<svg xmlns="http://www.w3.org/2000/svg" width="429.158" height="354.74" viewBox="0 0 429.158 354.74">
  <g id="Group_866" data-name="Group 866" transform="translate(-1098.921 -848.231)">
    <g id="Union_2" data-name="Union 2" transform="translate(1051.985 848.231)" fill="none" opacity="0.4">
      <path d="M261.515,65.9,46.936,191.87V128.945L261.468.041,261.493,0l.022.013L261.537,0l.025.041,214.533,128.9V191.87Z" stroke="none"/>
      <path d="M 261.5157165527344 1.180343627929688 L 261.5147399902344 1.180923461914062 L 261.5137939453125 1.18035888671875 L 47.9359130859375 129.5111541748047 L 47.9359130859375 190.1234130859375 L 261.5150146484375 64.73709106445312 L 475.0940551757812 190.1234130859375 L 475.0940551757812 129.5105895996094 L 261.5157165527344 1.180343627929688 M 261.4928894042969 -1.52587890625e-05 L 261.5147399902344 0.013153076171875 L 261.5365600585938 -1.52587890625e-05 L 261.561279296875 0.0410919189453125 L 476.0940551757812 128.9448089599609 L 476.0940551757812 191.8700866699219 L 261.5150146484375 65.89670562744141 L 46.9359130859375 191.8700866699219 L 46.9359130859375 128.9453735351562 L 261.4682312011719 0.0410919189453125 L 261.4928894042969 -1.52587890625e-05 Z" stroke="none" fill="#053888"/>
    </g>
    <path id="Union_3" data-name="Union 3" d="M261.515,65.9,46.936,191.87V128.945L261.468.041,261.493,0l.022.013L261.537,0l.025.041,214.533,128.9V191.87Z" transform="translate(1051.985 931.166)" fill="#c8ddfd" opacity="0.4"/>
    <path id="Union_4" data-name="Union 4" d="M261.515,65.9,46.936,191.87V128.945L261.468.041,261.493,0l.022.013L261.537,0l.025.041,214.533,128.9V191.87Z" transform="translate(1051.985 1011.101)" fill="#c8ddfd" opacity="0.4"/>
  </g>
</svg>
