<svg id="Icon_awesome-arrow-right" data-name="Icon awesome-arrow-right" xmlns="http://www.w3.org/2000/svg" width="22.51" height="21.939" viewBox="0 0 22.51 21.939">
  <path id="Icon_awesome-arrow-right-2" data-name="Icon awesome-arrow-right" d="M12.939,4.117,11.824,3a1.2,1.2,0,0,0-1.7,0L.354,12.763a1.2,1.2,0,0,0,0,1.7l9.767,9.766a1.2,1.2,0,0,0,1.7,0l1.115-1.115a1.207,1.207,0,0,0-.02-1.723L6.865,15.627H21.3a1.2,1.2,0,0,0,1.206-1.206V12.813A1.2,1.2,0,0,0,21.3,11.607H6.865L12.919,5.84A1.2,1.2,0,0,0,12.939,4.117Z" transform="translate(0 -2.647)" fill="#fff"/>
</svg>
