<svg xmlns="http://www.w3.org/2000/svg" width="149.665" height="105.233" viewBox="0 0 149.665 105.233">
  <path id="Icon_awesome-youtube" data-name="Icon awesome-youtube" d="M147.588,20.965A18.806,18.806,0,0,0,134.356,7.648C122.684,4.5,75.883,4.5,75.883,4.5s-46.8,0-58.473,3.148A18.806,18.806,0,0,0,4.177,20.965C1.05,32.713,1.05,57.223,1.05,57.223s0,24.51,3.127,36.258a18.525,18.525,0,0,0,13.232,13.105c11.672,3.148,58.473,3.148,58.473,3.148s46.8,0,58.473-3.148a18.525,18.525,0,0,0,13.232-13.105c3.127-11.747,3.127-36.258,3.127-36.258s0-24.51-3.127-36.258ZM60.576,79.476V34.97L99.693,57.224,60.576,79.476Z" transform="translate(-1.05 -4.5)"/>
</svg>
