<svg xmlns="http://www.w3.org/2000/svg" width="60" height="60" viewBox="0 0 60 60">
  <path id="Icon_awesome-chevron-circle-down" data-name="Icon awesome-chevron-circle-down" d="M60.562,30.562a30,30,0,1,1-30-30A29.995,29.995,0,0,1,60.562,30.562ZM32.619,44.341,49.01,27.95a2.891,2.891,0,0,0,0-4.1l-2.056-2.056a2.891,2.891,0,0,0-4.1,0l-12.29,12.29-12.29-12.29a2.891,2.891,0,0,0-4.1,0l-2.056,2.056a2.891,2.891,0,0,0,0,4.1L28.506,44.341A2.906,2.906,0,0,0,32.619,44.341Z" transform="translate(-0.563 -0.563)" fill="#fff"/>
</svg>
