<svg xmlns="http://www.w3.org/2000/svg" width="134.591" height="109.313" viewBox="0 0 134.591 109.313">
  <path id="Icon_awesome-twitter" data-name="Icon awesome-twitter" d="M120.756,30.623c.085,1.2.085,2.391.085,3.587,0,36.466-27.755,78.483-78.483,78.483A77.951,77.951,0,0,1,0,100.31a57.064,57.064,0,0,0,6.661.341A55.243,55.243,0,0,0,40.907,88.867a27.633,27.633,0,0,1-25.791-19.13,34.786,34.786,0,0,0,5.21.427,29.174,29.174,0,0,0,7.259-.939A27.588,27.588,0,0,1,5.465,42.153v-.341a27.78,27.78,0,0,0,12.468,3.5A27.625,27.625,0,0,1,9.394,8.419,78.407,78.407,0,0,0,66.27,37.285a31.14,31.14,0,0,1-.683-6.319,27.611,27.611,0,0,1,47.739-18.874A54.309,54.309,0,0,0,130.833,5.43a27.51,27.51,0,0,1-12.127,15.2,55.3,55.3,0,0,0,15.884-4.27,59.3,59.3,0,0,1-13.835,14.262Z" transform="translate(0 -3.381)"/>
</svg>
