<svg xmlns="http://www.w3.org/2000/svg" width="122.812" height="122.812" viewBox="0 0 122.812 122.812">
  <path id="Icon_awesome-linkedin" data-name="Icon awesome-linkedin" d="M114.039,2.25H8.745A8.81,8.81,0,0,0,0,11.1v105.1a8.81,8.81,0,0,0,8.745,8.854H114.039a8.833,8.833,0,0,0,8.772-8.854V11.1A8.833,8.833,0,0,0,114.039,2.25ZM37.118,107.517h-18.2V48.907h18.23v58.61ZM28.016,40.9A10.554,10.554,0,1,1,38.57,30.349,10.559,10.559,0,0,1,28.016,40.9Zm77.333,66.614h-18.2V79.007c0-6.8-.137-15.543-9.458-15.543-9.485,0-10.938,7.4-10.938,15.05v29h-18.2V48.907H66.011v8h.247c2.44-4.605,8.388-9.458,17.243-9.458,18.422,0,21.848,12.144,21.848,27.934Z" transform="translate(0 -2.25)"/>
</svg>
