<svg xmlns="http://www.w3.org/2000/svg" xmlns:xlink="http://www.w3.org/1999/xlink" width="706.41" height="586.919" viewBox="0 0 706.41 586.919">
  <defs>
    <linearGradient id="linear-gradient" x1="0.319" y1="0.234" x2="0.81" y2="0.763" gradientUnits="objectBoundingBox">
      <stop offset="0" stop-color="#e9eaf4"/>
      <stop offset="0.04" stop-color="#dedfe9"/>
      <stop offset="0.1" stop-color="#d7d8e2"/>
      <stop offset="0.27" stop-color="#d5d6e0"/>
    </linearGradient>
    <linearGradient id="linear-gradient-2" x1="0.32" y1="0.234" x2="0.81" y2="0.763" xlink:href="#linear-gradient"/>
    <linearGradient id="linear-gradient-3" x1="0.319" y1="0.234" x2="0.81" y2="0.763" xlink:href="#linear-gradient"/>
  </defs>
  <g id="Слой_2" data-name="Слой 2" transform="translate(0.003 6.033)">
    <g id="Слой_1" data-name="Слой 1" transform="translate(-0.003 -6.033)">
      <path id="Path_2877" data-name="Path 2877" d="M303.2,259.8h0L143.321,352.1,51.11,405.342l2.048,1.173,92.211-53.247,159.853-92.3h.014Z" transform="translate(21.1 115.758)" fill="#d6d8e5" opacity="0.4" style="isolation: isolate"/>
      <path id="Path_2878" data-name="Path 2878" d="M495,372.415l-29.357-16.967L402.78,319.154l-97-56,2.02-1.173,97.014,56L467.7,354.275l29.357,16.953Z" transform="translate(126.216 116.657)" fill="#d6d8e5" opacity="0.4" style="isolation: isolate"/>
      <path id="Path_2879" data-name="Path 2879" d="M288.867,247.445l-2.049,1.173-92.225-53.233-35.559-20.541L66.81,121.6l2.034-1.187,92.239,53.247L196.656,194.2Z" transform="translate(27.58 58.223)" fill="#d6d8e5" opacity="0.4" style="isolation: isolate"/>
      <path id="Path_2880" data-name="Path 2880" d="M121.032,206.666,42.115,161.1c-3.673-2.119-3.221-5.835,1.031-8.279L120,108.451c4.238-2.444,10.652-2.712,14.339-.593l78.917,45.561c3.673,2.119,3.207,5.835-1.031,8.279l-76.854,44.431C131.119,208.517,124.705,208.785,121.032,206.666Z" transform="translate(16.362 52.452)" fill="#d6d8e5" opacity="0.4" style="isolation: isolate"/>
      <path id="Path_2881" data-name="Path 2881" d="M219.714,149.144l-3.871,1.187-77.5-44.742c-3.673-2.119-10.1-1.865-14.339.593L47.146,150.557l-.184.127-3.278-1.031v5.086a2.515,2.515,0,0,0,0,.565v.424h0A4.422,4.422,0,0,0,46.1,158.85l78.917,45.561c3.673,2.119,10.1,1.851,14.339-.593l76.854-44.375a6.047,6.047,0,0,0,3.475-4.436h0Z" transform="translate(18.028 51.514)" fill="#d5d6e0"/>
      <path id="Path_2882" data-name="Path 2882" d="M216.248,155.619l-45.6,26.334-2.049,1.173L139.38,199.994c-4.238,2.444-10.652,2.712-14.339.593L46.124,155.026c-3.673-2.133-3.207-5.821,1.031-8.279l29.216-16.868,2.034-1.187,45.6-26.306c4.238-2.472,10.666-2.727,14.339-.607l78.917,45.561C220.938,149.459,220.486,153.175,216.248,155.619Z" transform="translate(18.019 49.942)" fill="#e9eaf4"/>
      <ellipse id="Ellipse_5498" data-name="Ellipse 5498" cx="51.41" cy="29.682" rx="51.41" ry="29.682" transform="translate(93.359 172.149)" opacity="0.05"/>
      <path id="Path_2883" data-name="Path 2883" d="M171.42,143.193V129.928l-2.119,4.747c-2.359-4.577-6.668-8.886-12.927-12.5-20.089-11.6-52.639-11.6-72.715,0A32.494,32.494,0,0,0,71.129,134L68.6,130.662V143.25h0c0,7.572,5.044,15.145,15.06,20.923,20.075,11.585,52.625,11.585,72.715,0,10-5.764,15.018-13.336,15.046-20.909h0Z" transform="translate(28.319 55.36)" fill="#dd990e"/>
      <ellipse id="Ellipse_5499" data-name="Ellipse 5499" cx="51.41" cy="29.682" rx="51.41" ry="29.682" transform="translate(96.919 156.128)" fill="#f9cb07"/>
      <path id="Path_2884" data-name="Path 2884" d="M152.483,132.97c-.494,5.015-4.069,9.889-10.695,13.76-14.382,8.293-37.692,8.293-52.06,0-6.626-3.814-10.214-8.745-10.709-13.76-.607-5.849,2.967-11.825,10.709-16.3,14.368-8.293,37.678-8.293,52.06,0C149.5,121.117,153.076,127.122,152.483,132.97Z" transform="translate(32.592 54.111)" fill="#cc8b09"/>
      <path id="Path_2885" data-name="Path 2885" d="M152.463,132.226c-.494,5.015-4.069,9.889-10.695,13.76-14.382,8.293-37.692,8.293-52.06,0-6.626-3.814-10.214-8.745-10.709-13.76.494-5,4.083-9.889,10.709-13.746,14.368-8.307,37.678-8.307,52.06,0C148.366,122.295,151.941,127.225,152.463,132.226Z" transform="translate(32.611 54.855)" fill="#e8a30a"/>
      <path id="Path_2886" data-name="Path 2886" d="M126.294,134.286a27.089,27.089,0,0,0,2.628-1.865,10.369,10.369,0,0,0,1.738-1.808,3.688,3.688,0,0,0,.777-1.808,2.826,2.826,0,0,0-.494-1.78,6.88,6.88,0,0,0-1.851-1.822,10.567,10.567,0,0,0-5.213-1.964,13.888,13.888,0,0,0-5.58.834q1.413-2.6-2.543-4.507a10.045,10.045,0,0,0-3.037-.9,10.723,10.723,0,0,0-3.221,0,18.675,18.675,0,0,0-3.179.791,32.383,32.383,0,0,0-3.263,1.413l-4.464-2.571.381-.155h-.636l-.339-.2-.339.2H94.973v1.6l4.916,2.826-2.4,1.413-4.959-2.826-.791.452-2.416-.254v1.582l5.058,2.924c-.424.268-1.074.636-1.921,1.13L90.678,128l-2.458-.085v1.6l3.292,1.893,2.232-1.286a3.5,3.5,0,0,1,3.15-.24l5.764,3.32.339-.17-.325.184,8.081,4.662c.551.452.523.862-.113,1.243l-2.26-.283v1.6l3.052,2.472,4.012-2.317,1.116-.636,1.1-.607,5.114,2.953,3.094-1.794v-1.582l-1.413.791-3.687-2.119,2.472-1.413,5.044,2.91,3.094-1.78v-1.6h-2.826Zm-17.405-5.651-.932.537-.706.4-6.16-3.56.777-.466,1.074-.636c.283-.17.678-.381,1.215-.65a13.644,13.644,0,0,1,1.413-.622,12.5,12.5,0,0,1,1.413-.438,7.065,7.065,0,0,1,1.526-.24,6.582,6.582,0,0,1,1.413.141,4.549,4.549,0,0,1,1.413.523,2.741,2.741,0,0,1,.848.706.961.961,0,0,1,.226.749,2.657,2.657,0,0,1-.2.749,2.288,2.288,0,0,1-.607.777q-.452.424-.805.721a8.332,8.332,0,0,1-1,.706Zm14.438,1.95a5.116,5.116,0,0,1-.523.791,7.731,7.731,0,0,1-.834.805q-.523.438-.975.763l-1.1.72-1.031.636-.975.551c-.4.212-.65.353-.749.424l-6.8-3.927.932-.565,1.286-.749c.325-.2.805-.452,1.413-.777a14.439,14.439,0,0,1,1.667-.749c.48-.184,1.045-.367,1.681-.551a9.086,9.086,0,0,1,1.78-.311,7.4,7.4,0,0,1,1.653.113,4.676,4.676,0,0,1,1.6.565,2.642,2.642,0,0,1,.834.706,1.5,1.5,0,0,1,.311.735,1.413,1.413,0,0,1-.17.876Z" transform="translate(36.417 57.204)" fill="#cc8b09"/>
      <path id="Path_2887" data-name="Path 2887" d="M123.878,122.114a13.408,13.408,0,0,0-5.58.834q1.413-2.6-2.543-4.521a10.017,10.017,0,0,0-3.037-.89,11.2,11.2,0,0,0-3.221,0,20.1,20.1,0,0,0-3.179.791,32.379,32.379,0,0,0-3.263,1.413L98,116.83,94.973,118.6l4.916,2.826-2.4,1.413-4.959-2.826L89.322,121.8l5.058,2.91c-.424.268-1.074.65-1.921,1.144L88.22,128.3l3.292,1.907,2.232-1.286a3.461,3.461,0,0,1,3.15-.254L102.658,132a1.257,1.257,0,0,1,.339-.17l-.325.184,8.081,4.662c.565.452.523.876-.141,1.257l-2.232,1.286,3.052,2.486,4.012-2.317,1.116-.636,1.1-.622,5.114,2.953,3.094-1.78-5.058-2.924c.579-.311,1.413-.777,2.472-1.413l5.044,2.91,3.094-1.794-5.128-2.953a27.091,27.091,0,0,0,2.628-1.865,9.465,9.465,0,0,0,1.738-1.808,3.645,3.645,0,0,0,.777-1.794,2.826,2.826,0,0,0-.494-1.78,6.7,6.7,0,0,0-1.851-1.837,10.412,10.412,0,0,0-5.213-1.935Zm-22.788,2.826.777-.466,1.074-.636c.283-.17.678-.381,1.215-.636a13.549,13.549,0,0,1,1.413-.622,12.3,12.3,0,0,1,1.413-.452,7.066,7.066,0,0,1,1.526-.226,6.541,6.541,0,0,1,1.413.127,4.577,4.577,0,0,1,1.413.537,2.727,2.727,0,0,1,.848.692,1.017,1.017,0,0,1,.226.763,2.571,2.571,0,0,1-.2.735,2.289,2.289,0,0,1-.607.777l-.805.735a10.587,10.587,0,0,1-1,.692l-.961.607c-.212.141-.523.311-.932.537l-.706.4-6.16-3.56Zm22.138,3.009a1.554,1.554,0,0,1,.311.749,1.413,1.413,0,0,1-.2.805,5.114,5.114,0,0,1-.523.791,7.726,7.726,0,0,1-.834.805q-.523.438-.975.763t-1.1.721c-.438.283-.777.494-1.031.636l-.975.551-.749.424-6.8-3.913.932-.565,1.286-.763q.494-.3,1.413-.763c.636-.325,1.187-.565,1.667-.763a17.038,17.038,0,0,1,1.681-.537,8.137,8.137,0,0,1,1.78-.311,6.625,6.625,0,0,1,1.653.1,4.987,4.987,0,0,1,1.6.565A2.825,2.825,0,0,1,123.228,127.948Z" transform="translate(36.417 56.746)" fill="#f9ca06"/>
      <path id="Path_2888" data-name="Path 2888" d="M171.82,130v-13.2l-2.119,4.747c-2.359-4.577-6.668-8.9-12.927-12.5-20.089-11.6-52.639-11.6-72.715,0a32.493,32.493,0,0,0-12.531,11.8L69,117.443v12.6h0c0,7.572,5.044,15.131,15.06,20.909,20.075,11.6,52.625,11.6,72.715,0,10-5.778,15.018-13.336,15.046-20.909h0Z" transform="translate(28.484 49.945)" fill="#dd990e"/>
      <ellipse id="Ellipse_5500" data-name="Ellipse 5500" cx="51.41" cy="29.682" rx="51.41" ry="29.682" transform="translate(97.484 137.522)" fill="#f9cb07"/>
      <path id="Path_2889" data-name="Path 2889" d="M152.863,119.8c-.494,5-4.069,9.889-10.695,13.76-14.382,8.293-37.692,8.293-52.06,0C83.482,129.735,79.894,124.8,79.4,119.8c-.607-5.849,2.967-11.839,10.709-16.3,14.368-8.307,37.678-8.307,52.06,0C149.91,107.965,153.484,113.955,152.863,119.8Z" transform="translate(32.749 48.672)" fill="#cc8b09"/>
      <path id="Path_2890" data-name="Path 2890" d="M152.843,119.056c-.494,5-4.069,9.889-10.695,13.76-14.382,8.293-37.692,8.293-52.06,0-6.626-3.829-10.214-8.759-10.709-13.76.494-5,4.083-9.889,10.709-13.746,14.368-8.307,37.678-8.307,52.06,0C148.775,109.125,152.306,114.055,152.843,119.056Z" transform="translate(32.768 49.419)" fill="#e8a30a"/>
      <path id="Path_2891" data-name="Path 2891" d="M126.7,121.106a29.934,29.934,0,0,0,2.628-1.851,10.37,10.37,0,0,0,1.738-1.808,3.744,3.744,0,0,0,.777-1.808,2.826,2.826,0,0,0-.494-1.78,6.485,6.485,0,0,0-1.851-1.822,10.384,10.384,0,0,0-5.213-1.964,13.633,13.633,0,0,0-5.651.834q1.413-2.614-2.543-4.507a10.045,10.045,0,0,0-3.037-.9,10.723,10.723,0,0,0-3.221,0,18.65,18.65,0,0,0-3.179.777,29.667,29.667,0,0,0-3.263,1.413L99.05,105.1l.381-.141H98.8l-.339-.2-.339.2H95.292v1.554l4.916,2.826-2.4,1.413-4.959-2.826-.791.466-2.3-.268v1.6l5.058,2.967-1.921,1.13-1.78,1.017-2.5-.155v1.582l3.376,1.907,2.232-1.286a3.419,3.419,0,0,1,3.15-.24l5.764,3.32.339-.17-.325.184,8.081,4.662c.551.438.523.862-.113,1.229l-2.26-.268v1.582l3.052,2.486,4.012-2.317,1.116-.636,1.1-.622,5.114,2.967,3.094-1.794v-1.582l-1.413.791-3.687-2.133c.579-.311,1.413-.777,2.472-1.413l5.044,2.91,3.094-1.78v-1.582h-2.826Zm-17.405-5.651q-.325.212-.932.551l-.706.381-6.16-3.56a4.235,4.235,0,0,0,.777-.452l1.074-.65c.283-.17.678-.381,1.215-.636s.989-.466,1.413-.622.876-.3,1.413-.452a7.247,7.247,0,0,1,1.526-.226,6.542,6.542,0,0,1,1.413.127,4.959,4.959,0,0,1,1.413.537,2.726,2.726,0,0,1,.848.692,1.017,1.017,0,0,1,.226.763,2.825,2.825,0,0,1-.2.749,2.43,2.43,0,0,1-.607.777q-.438.424-.805.721a10.325,10.325,0,0,1-1,.706,4.7,4.7,0,0,1-.9.65Zm14.438,1.95a4.522,4.522,0,0,1-.523.791,7.728,7.728,0,0,1-.834.805,11.826,11.826,0,0,1-.975.763l-1.1.735-1.031.622-.975.551-.749.424-6.8-3.913.932-.565,1.286-.763,1.413-.763c.636-.311,1.187-.565,1.667-.749s1.045-.367,1.681-.551a9.084,9.084,0,0,1,1.78-.311,7.544,7.544,0,0,1,1.667.1,4.733,4.733,0,0,1,1.582.579,2.628,2.628,0,0,1,.834.692,1.611,1.611,0,0,1,.311.749,1.413,1.413,0,0,1-.17.862Z" transform="translate(36.578 51.764)" fill="#cc8b09"/>
      <path id="Path_2892" data-name="Path 2892" d="M124.27,108.938a13.887,13.887,0,0,0-5.651.834q1.413-2.614-2.543-4.507a10.045,10.045,0,0,0-3.037-.9,11.2,11.2,0,0,0-3.221,0,18.678,18.678,0,0,0-3.179.791,32.379,32.379,0,0,0-3.263,1.413l-5.058-2.924-3.094,1.794,4.916,2.826-2.4,1.413-4.959-2.826-3.094,1.78,5.114,2.924c-.424.268-1.074.65-1.921,1.144L88.64,115.14l3.334,1.893,2.232-1.286a3.5,3.5,0,0,1,3.15-.24l5.764,3.334a2.077,2.077,0,0,1,.339-.184l-.325.184,8.081,4.662c.565.466.523.876-.141,1.271l-2.232,1.286,3.052,2.486,4.012-2.331,1.116-.622,1.1-.622,5.114,2.953,3.094-1.78-5.058-2.924,2.472-1.413,5.044,2.91,3.094-1.78-5.128-2.953a27.1,27.1,0,0,0,2.628-1.865,9.888,9.888,0,0,0,1.738-1.808,3.687,3.687,0,0,0,.777-1.808,2.825,2.825,0,0,0-.494-1.78,6.88,6.88,0,0,0-1.851-1.822,10.525,10.525,0,0,0-5.284-1.964Zm-22.788,2.826.777-.466,1.074-.636c.283-.17.678-.381,1.215-.65a13.646,13.646,0,0,1,1.413-.622,12.506,12.506,0,0,1,1.413-.438,7.346,7.346,0,0,1,1.526-.24,7.559,7.559,0,0,1,1.413.141,4.577,4.577,0,0,1,1.413.537,2.543,2.543,0,0,1,.848.692.975.975,0,0,1,.226.763,2.7,2.7,0,0,1-.2.735,2.289,2.289,0,0,1-.607.777q-.438.424-.805.721a8.335,8.335,0,0,1-1,.706l-.961.608-.932.537-.706.4-6.16-3.56Zm22.124,3.023a1.5,1.5,0,0,1,.311.749,1.413,1.413,0,0,1-.2.805,5.115,5.115,0,0,1-.523.791,7.728,7.728,0,0,1-.834.805q-.523.438-.975.763c-.3.2-.664.452-1.1.721l-1.031.636-.975.551c-.4.212-.65.353-.749.424l-6.8-3.927a4.8,4.8,0,0,0,.932-.565l1.286-.749c.325-.2.805-.452,1.413-.777a14.436,14.436,0,0,1,1.667-.749,17.042,17.042,0,0,1,1.681-.537,9.184,9.184,0,0,1,1.78-.325,7.585,7.585,0,0,1,1.667.113,4.7,4.7,0,0,1,1.582.565,2.642,2.642,0,0,1,.862.706Z" transform="translate(36.59 51.302)" fill="#f9ca06"/>
      <path id="Path_2893" data-name="Path 2893" d="M303.9,345.582,154.708,257.4a3.179,3.179,0,0,1,0-5.481L236,205.126a3.207,3.207,0,0,1,3.207,0l149.173,88.156a3.179,3.179,0,0,1,0,5.5l-81.248,46.875a3.179,3.179,0,0,1-3.235-.071Z" transform="translate(63.213 93.013)" fill="#d6d8e5" opacity="0.3" style="isolation: isolate"/>
      <path id="Path_2894" data-name="Path 2894" d="M328.853,102.294V248.02c0,3.871-1.413,6.442-3.659,7.205L206.749,323.334l-2.43,1.413L200.9,307.412l-11.754-59.8L168.11,140.961l120.974-69.55c1.554-1.215,3.716-1.286,6.1.085l25.218,14.566a17.194,17.194,0,0,1,6.357,7.516,20.526,20.526,0,0,1,2.091,8.717Z" transform="translate(69.392 37.616)" fill="#e9eaf4"/>
      <path id="Path_2895" data-name="Path 2895" d="M323.729,95.58V241.306c0,3.871-1.413,6.442-3.659,7.205L201.624,316.62c-.311-.819-2.741-7.4-5.849-15.936-6.357-17.448-15.54-43.047-15.244-43.8.127-.254,1.483-6.626,3.447-16.049,5.99-28.764,17.674-86.178,17.674-86.178L321.6,86.75a20.527,20.527,0,0,1,2.133,8.83Z" transform="translate(74.517 44.33)" fill="url(#linear-gradient)"/>
      <path id="Path_2896" data-name="Path 2896" d="M201.124,134.728l-25.218-14.551a5.383,5.383,0,0,0-5.51-.466h0l-2.4,1.314.537.622a10.073,10.073,0,0,0-1.13,4.973V272.3c0,6.273,3.814,13.548,8.477,16.261L201.1,303.114c4.7,2.712,8.477-.17,8.477-6.428v-145.7C209.643,144.716,205.829,137.44,201.124,134.728Z" transform="translate(69.098 57.708)" fill="#fff"/>
      <path id="Path_2897" data-name="Path 2897" d="M199.3,304.12l-25.218-14.565c-4.7-2.713-8.477-9.988-8.477-16.247V127.6c0-6.259,3.8-9.141,8.477-6.428L199.3,135.72c4.69,2.712,8.477,10,8.477,16.261v145.7C207.809,303.951,203.995,306.833,199.3,304.12Z" transform="translate(68.36 58.115)" fill="#dfe0ea"/>
      <path id="Path_2898" data-name="Path 2898" d="M193.231,152.559V271.075c0,3.447-1.611,5.453-3.9,5.3a5.284,5.284,0,0,1-2.176-.706l-7.5-4.337c-3.362-1.935-6.075-7.064-6.075-11.613v-118.5c0-4.478,2.712-6.527,6.075-4.591l.353.212,7.149,4.125C190.5,142.9,193.231,148.081,193.231,152.559Z" transform="translate(71.65 64.615)" fill="#053888"/>
      <path id="Path_2899" data-name="Path 2899" d="M192.468,152.286V270.8c0,3.447-1.611,5.453-3.9,5.3l-7.064-4.111c-3.348-1.935-6.075-7.064-6.075-11.6V141.874c0-3.433,1.625-5.453,3.871-5.312l7.149,4.125C189.741,142.623,192.468,147.808,192.468,152.286Z" transform="translate(72.414 64.887)" fill="#3382fa"/>
      <path id="Path_2900" data-name="Path 2900" d="M368.106,125.228V270.94c0,3.885-1.413,6.442-3.673,7.219L245.987,346.254l-2.416,1.413-3.447-17.32-11.768-59.8L207.32,163.9l32.917-18.931,1.3-.749,5-2.826,39.868-22.915.735-.424,2.43-1.413,38.794-22.307c1.54-1.215,3.7-1.286,6.089.085l25.218,14.566a17.348,17.348,0,0,1,6.372,7.53A20.683,20.683,0,0,1,368.106,125.228Z" transform="translate(85.576 47.076)" fill="#e9eaf4"/>
      <path id="Path_2901" data-name="Path 2901" d="M362.973,118.51V264.221c0,3.871-1.413,6.442-3.673,7.205L240.855,339.535c-.311-.819-2.741-7.4-5.849-15.936-6.357-17.448-15.54-43.047-15.244-43.8.127-.24,1.483-6.612,3.447-16.049,5.99-28.764,17.674-86.178,17.674-86.178l119.957-67.9A20.625,20.625,0,0,1,362.973,118.51Z" transform="translate(90.709 53.795)" fill="url(#linear-gradient-2)"/>
      <path id="Path_2902" data-name="Path 2902" d="M240.368,157.645,215.15,143.093a5.467,5.467,0,0,0-5.524-.466h0l-2.388,1.314.523.622a10.073,10.073,0,0,0-1.13,4.973V295.219c0,6.273,3.814,13.548,8.477,16.261l25.218,14.566c4.69,2.712,8.477-.17,8.477-6.442v-145.7C248.873,167.633,245.059,160.329,240.368,157.645Z" transform="translate(85.29 67.172)" fill="#fff"/>
      <path id="Path_2903" data-name="Path 2903" d="M247.029,174.9V320.611c0,6.259-3.786,9.141-8.477,6.414l-14.382-8.293-2.6-1.5-8.265-4.733c-4.676-2.7-8.477-9.974-8.477-16.261V150.529c0-6.287,3.829-9.141,8.477-6.442l25.218,14.551C243.215,161.337,247.029,168.627,247.029,174.9Z" transform="translate(84.549 67.577)" fill="#dfe0ea"/>
      <path id="Path_2904" data-name="Path 2904" d="M232.461,175.493V294c0,3.447-1.611,5.453-3.9,5.3a5.087,5.087,0,0,1-2.176-.706l-7.5-4.337c-3.362-1.935-6.075-7.134-6.075-11.613v-118.5c0-4.478,2.713-6.527,6.075-4.591l.367.212,7.064,4.125C229.749,165.816,232.461,171.015,232.461,175.493Z" transform="translate(87.842 74.075)" fill="#053888"/>
      <path id="Path_2905" data-name="Path 2905" d="M231.7,175.22v118.5c0,3.447-1.611,5.453-3.9,5.3l-7.064-4.111c-3.362-1.935-6.089-7.064-6.089-11.6v-118.5c0-3.447,1.625-5.467,3.885-5.326l7.064,4.125C228.989,165.543,231.7,170.742,231.7,175.22Z" transform="translate(88.602 74.348)" fill="#3382fa"/>
      <path id="Path_2906" data-name="Path 2906" d="M409.326,149.061v145.7c0,3.871-1.413,6.442-3.659,7.219L287.221,370.073l-2.43,1.413-3.433-17.264-11.782-59.8L248.54,187.771l120.974-69.55c1.54-1.215,3.7-1.286,6.089.085l25.218,14.566a17.165,17.165,0,0,1,6.372,7.53,20.428,20.428,0,0,1,2.133,8.66Z" transform="translate(102.59 56.937)" fill="#e9eaf4"/>
      <path id="Path_2907" data-name="Path 2907" d="M404.189,142.36v145.7c0,3.871-1.413,6.442-3.659,7.219L282.085,363.371c-.311-.819-2.741-7.389-5.863-15.922-6.357-17.462-15.54-43.061-15.23-43.8.127-.24,1.483-6.612,3.447-16.049,5.99-28.764,17.659-86.178,17.659-86.178l119.957-67.9a20.428,20.428,0,0,1,2.133,8.83Z" transform="translate(107.727 63.639)" fill="url(#linear-gradient-3)"/>
      <path id="Path_2908" data-name="Path 2908" d="M281.585,181.485l-25.218-14.551a5.467,5.467,0,0,0-5.524-.466h0l-2.388,1.314.537.622a9.889,9.889,0,0,0-1.13,4.973v145.7c0,6.259,3.814,13.534,8.477,16.247l25.218,14.566c4.7,2.713,8.477-.169,8.477-6.442v-145.7C290.089,191.459,286.289,184.2,281.585,181.485Z" transform="translate(102.308 77.012)" fill="#fff"/>
      <path id="Path_2909" data-name="Path 2909" d="M279.764,350.88l-25.218-14.566c-4.7-2.712-8.477-9.988-8.477-16.247V174.356c0-6.258,3.814-9.141,8.477-6.428l25.218,14.566c4.69,2.712,8.477,9.988,8.477,16.247V344.452C288.269,350.7,284.455,353.593,279.764,350.88Z" transform="translate(101.571 77.416)" fill="#dfe0ea"/>
      <path id="Path_2910" data-name="Path 2910" d="M273.746,199.333v118.5c0,3.447-1.611,5.453-3.9,5.312a5.057,5.057,0,0,1-2.176-.72l-7.516-4.337c-3.348-1.935-6.075-7.064-6.075-11.613v-118.5c0-4.478,2.727-6.527,6.075-4.591l.367.212,7.149,4.125C270.92,189.656,273.746,194.855,273.746,199.333Z" transform="translate(104.877 83.915)" fill="#053888"/>
      <path id="Path_2911" data-name="Path 2911" d="M272.978,199.06v118.5c0,3.447-1.611,5.453-3.9,5.312l-7.064-4.125c-3.348-1.935-6.075-7.064-6.075-11.6v-118.5c0-3.447,1.611-5.467,3.871-5.326l7.148,4.125C270.152,189.383,272.978,194.582,272.978,199.06Z" transform="translate(105.645 84.188)" fill="#3382fa"/>
      <path id="Path_2912" data-name="Path 2912" d="M326.386,86.673c0-29.569-20.768-65.552-46.395-80.343C267.276-1.017,255.734-1.751,247.356,3h-.1l-.17.1c-1.328.777-11.472,6.739-11.641,6.824l3.814.791c-4.591,5.651-5.651,11.754-5.651,22.35,0,29.583,20.768,65.552,46.381,80.343,8.081,4.662,15.682,6.668,22.293,6.287l-2.713,4.662,12.856-7.5.678-.381.339-.2h0C321.441,111.312,326.386,101.1,326.386,86.673Z" transform="translate(96.428 8.523)" fill="#dd990e"/>
      <ellipse id="Ellipse_5501" data-name="Ellipse 5501" cx="38.006" cy="65.834" rx="38.006" ry="65.834" transform="translate(299.568 37.876) rotate(-29.887)" fill="#f9cb07"/>
      <path id="Path_2913" data-name="Path 2913" d="M300.465,79.282c0,21.191-14.862,29.753-33.214,19.171-1.13-.664-2.275-1.413-3.391-2.162a.226.226,0,0,1-.113-.085c-16.7-11.655-29.668-35.46-29.668-55.267,0-21.191,14.876-29.767,33.214-19.185a48.769,48.769,0,0,1,5.651,3.871C288.584,37.747,300.465,60.351,300.465,79.282Z" transform="translate(96.622 15.632)" fill="#cc8b09"/>
      <path id="Path_2914" data-name="Path 2914" d="M299.871,78.818c0,21.191-14.862,29.753-33.214,19.171-1.13-.664-2.275-1.413-3.391-2.162a.226.226,0,0,1-.113-.085c-15.7-12.107-27.633-34.754-27.633-53.685,0-21.191,14.862-29.767,33.2-19.171,1.229.706,2.444,1.483,3.631,2.331C287.99,37.283,299.871,59.887,299.871,78.818Z" transform="translate(97.216 16.096)" fill="#e8a30a"/>
      <path id="Path_2915" data-name="Path 2915" d="M277.69,64.656a17.5,17.5,0,0,0-4.478-5.651c2.543,0,3.659-1.935,3.348-5.651a12.473,12.473,0,0,0-.932-3.927,14.126,14.126,0,0,0-2.119-3.532,23.379,23.379,0,0,0-2.9-3.066,34.409,34.409,0,0,0-3.588-2.727V32.672l-3.942-2.289-1.413.834,1.413,2.077v4.351c-.678-.4-1.724-.989-3.122-1.752v-7.3L256,26.3l-1.413.834L256,28.546v5.241l-2.486-1.413-5.425-3.165-1.413.819,1.413,1.7v2.331l2.826,1.639a4.464,4.464,0,0,1,2.289,3.334v8.477l.41.268-.41-.24v11.9c-.141.932-.636,1.144-1.483.65L248.9,58.44l-1.413.819,1.088,1.413-.438,2.7,5.128,2.953,1.413.834,1.413.805V75.52l2.317,1.328.184,1.766L260,77.795V70.364c.721.438,1.752,1.045,3.122,1.837v7.431l2.246,1.286.254,1.808,1.413-.819V74.362a36.192,36.192,0,0,0,3.73,1.709,13.1,13.1,0,0,0,3.122.777,4.916,4.916,0,0,0,2.486-.3,3.729,3.729,0,0,0,1.653-1.681,8.9,8.9,0,0,0,.834-3.221A13.336,13.336,0,0,0,277.69,64.656ZM262.432,42.6q.551.3,1.483.932c.622.424,1.144.805,1.582,1.144a15.74,15.74,0,0,1,1.413,1.3,7.715,7.715,0,0,1,1.229,1.54,8.476,8.476,0,0,1,.791,1.7,5.949,5.949,0,0,1,.311,1.921,3.518,3.518,0,0,1-.226,1.413,1.271,1.271,0,0,1-.692.735,3.249,3.249,0,0,1-.947.254,3.052,3.052,0,0,1-1.243-.17c-.509-.155-.947-.3-1.314-.438a12.36,12.36,0,0,1-1.413-.65l-1.286-.678c-.283-.155-.692-.381-1.187-.692l-.89-.523V41.261l1.017.565Zm8.378,25.034a2.105,2.105,0,0,1-.622.819,1.879,1.879,0,0,1-1.017.3,5.737,5.737,0,0,1-1.215-.071,9.2,9.2,0,0,1-1.413-.41q-.721-.261-1.413-.593c-.424-.2-.918-.438-1.5-.749L262.22,66.2l-1.243-.763-.947-.551V54.908l1.229.636q1.017.551,1.653.932c.438.24,1.017.607,1.78,1.1a12.658,12.658,0,0,1,1.893,1.413c.48.466,1.074.918,1.681,1.512a12.075,12.075,0,0,1,1.413,1.752,10,10,0,0,1,.947,1.907,6.218,6.218,0,0,1,.381,2.119A3.505,3.505,0,0,1,270.81,67.637Z" transform="translate(101.822 19.379)" fill="#cc8b09"/>
      <path id="Path_2916" data-name="Path 2916" d="M276.231,65.19a17.32,17.32,0,0,0-4.478-5.651q3.814,0,3.362-5.651a12.982,12.982,0,0,0-.947-3.927,13.917,13.917,0,0,0-2.1-3.532,24.214,24.214,0,0,0-2.826-3,37.716,37.716,0,0,0-3.588-2.741V33.247l-3.942-2.275V38.22l-3.136-1.752v-7.3L254.63,26.89v7.459c-.565-.311-1.413-.777-2.486-1.413L246.7,29.772v4.846l2.826,1.653a4.422,4.422,0,0,1,2.275,3.32v8.477l.41.268-.41-.226V59.991c-.127.932-.636,1.144-1.483.664L247.5,59l-.805,4.959,5.128,2.967,1.413.819,1.413.819V76.11l3.942,2.275V70.94c.72.438,1.766,1.045,3.136,1.837v7.431l3.942,2.275V74.938a33.648,33.648,0,0,0,3.73,1.709,13,13,0,0,0,3.108.777,4.606,4.606,0,0,0,2.487-.3,3.659,3.659,0,0,0,1.653-1.681,8.222,8.222,0,0,0,.833-3.221,13.067,13.067,0,0,0-1.243-7.036ZM258.585,41.837l1,.579,1.413.763c.367.212.862.523,1.5.932a18.389,18.389,0,0,1,1.568,1.144,18.6,18.6,0,0,1,1.413,1.314,9.379,9.379,0,0,1,1.229,1.526,8.479,8.479,0,0,1,.777,1.7,6.032,6.032,0,0,1,.325,1.921,3.744,3.744,0,0,1-.226,1.413,1.413,1.413,0,0,1-.678.763,3.856,3.856,0,0,1-.961.254,3.306,3.306,0,0,1-1.229-.184c-.509-.141-.947-.3-1.328-.424a12.369,12.369,0,0,1-1.413-.65c-.565-.283-.989-.523-1.271-.692l-1.2-.678-.876-.537V41.837Zm10.765,26.376a1.893,1.893,0,0,1-.622.819,1.709,1.709,0,0,1-1.017.311,5.792,5.792,0,0,1-1.215-.085,9.082,9.082,0,0,1-1.413-.41q-.72-.262-1.413-.593c-.41-.184-.918-.438-1.5-.749s-1.031-.551-1.413-.735l-1.229-.72-.947-.565v-10l1.215.678,1.653.918c.424.254,1.017.622,1.766,1.116a13.443,13.443,0,0,1,1.893,1.413,21.192,21.192,0,0,1,1.681,1.512,11.1,11.1,0,0,1,1.413,1.752,9.237,9.237,0,0,1,.947,1.907,5.92,5.92,0,0,1,.4,2.119A3.208,3.208,0,0,1,269.351,68.213Z" transform="translate(101.827 19.622)" fill="#f9ca06"/>
      <path id="Path_2917" data-name="Path 2917" d="M541.769,116.683l-92.211,53.247-43.81,25.288-92.211,53.247-2.049-1.173,92.2-53.261,43.81-25.274,92.239-53.247Z" transform="translate(128.573 56.201)" fill="#d6d8e5" opacity="0.4" style="isolation: isolate"/>
      <path id="Path_2918" data-name="Path 2918" d="M452.782,203.106l-78.917-45.561c-3.673-2.119-3.221-5.835,1.031-8.279l76.854-44.375c4.238-2.444,10.666-2.712,14.339-.593l78.917,45.561c3.673,2.119,3.221,5.835-1.031,8.279l-76.925,44.375C462.812,204.957,456.384,205.225,452.782,203.106Z" transform="translate(153.294 50.983)" fill="#d6d8e5" opacity="0.4" style="isolation: isolate"/>
      <path id="Path_2919" data-name="Path 2919" d="M551.437,145.554l-3.885,1.187L470.048,102c-3.673-2.119-10.087-1.865-14.339.593l-76.854,44.375a1.417,1.417,0,0,0-.184.127l-3.278-1.031v5.086a3.78,3.78,0,0,0,0,.565v.424h0a4.507,4.507,0,0,0,2.416,3.122l78.973,45.547c3.687,2.119,10.1,1.851,14.339-.593l76.854-44.375a6.047,6.047,0,0,0,3.49-4.436h0Z" transform="translate(154.945 50.032)" fill="#d5d6e0"/>
      <path id="Path_2920" data-name="Path 2920" d="M456.8,197.026l-78.973-45.561c-3.673-2.119-3.207-5.835,1.031-8.279l76.854-44.375c4.238-2.444,10.666-2.712,14.339-.593l78.917,45.561c3.687,2.119,3.221,5.835-1.031,8.279L471.08,196.433C466.842,198.877,460.428,199.145,456.8,197.026Z" transform="translate(154.93 48.473)" fill="#e9eaf4"/>
      <ellipse id="Ellipse_5502" data-name="Ellipse 5502" cx="51.41" cy="29.682" rx="51.41" ry="29.682" transform="translate(561.97 167.119)" opacity="0.05"/>
      <path id="Path_2921" data-name="Path 2921" d="M503.135,139.683V126.418L501,131.164c-2.359-4.577-6.668-8.886-12.927-12.5-20.075-11.6-52.639-11.6-72.715,0a32.748,32.748,0,0,0-12.531,11.811l-2.529-3.334v12.545h0c0,7.572,5.058,15.145,15.06,20.923,20.075,11.585,52.639,11.585,72.715,0,10-5.764,15.018-13.336,15.06-20.909h0Z" transform="translate(165.23 53.911)" fill="#dd990e"/>
      <ellipse id="Ellipse_5503" data-name="Ellipse 5503" cx="51.41" cy="29.682" rx="51.41" ry="29.682" transform="translate(565.53 151.099)" fill="#f9cb07"/>
      <path id="Path_2922" data-name="Path 2922" d="M484.177,129.41c-.509,5.015-4.069,9.889-10.709,13.76-14.368,8.293-37.678,8.293-52.06,0-6.626-3.814-10.2-8.745-10.709-13.76-.607-5.849,2.967-11.825,10.709-16.3,14.382-8.293,37.692-8.293,52.06,0C481.21,117.586,484.8,123.562,484.177,129.41Z" transform="translate(169.495 52.642)" fill="#cc8b09"/>
      <path id="Path_2923" data-name="Path 2923" d="M484.157,128.666c-.509,5.015-4.069,9.889-10.709,13.76-14.368,8.293-37.678,8.293-52.06,0-6.626-3.814-10.2-8.745-10.709-13.76.509-5,4.083-9.889,10.709-13.746,14.382-8.307,37.692-8.307,52.06,0C480.089,118.735,483.649,123.665,484.157,128.666Z" transform="translate(169.515 53.386)" fill="#e8a30a"/>
      <path id="Path_2924" data-name="Path 2924" d="M458.014,130.776a27.082,27.082,0,0,0,2.628-1.865,10.481,10.481,0,0,0,1.752-1.808,3.786,3.786,0,0,0,.763-1.808,2.825,2.825,0,0,0-.494-1.78,6.668,6.668,0,0,0-1.851-1.822,10.469,10.469,0,0,0-5.2-1.964,13.845,13.845,0,0,0-5.58.834q1.413-2.6-2.557-4.507a9.889,9.889,0,0,0-3.037-.9,10.737,10.737,0,0,0-3.221,0,18.2,18.2,0,0,0-3.165.791,27.327,27.327,0,0,0-3.263,1.413l-4.464-2.571.381-.155h-.65l-.339-.2-.339.2h-2.826v1.6l4.931,2.826c-.537.311-1.342.777-2.416,1.413l-4.959-2.826-.791.452-2.3-.254v1.582l5.058,2.924c-.424.268-1.06.636-1.921,1.13l-1.78,1.017-2.5-.155v1.6l3.292,1.893,2.232-1.286a3.5,3.5,0,0,1,3.15-.24l5.764,3.32.339-.17-.311.184,8.067,4.662c.565.452.523.862-.1,1.243l-2.274-.283v1.6l3.052,2.472,4.026-2.317,1.116-.636,1.088-.607,5.128,2.953,3.094-1.794v-1.582l-1.413.791-3.687-2.119,2.472-1.413,5.044,2.91,3.193-1.907V132h-2.755Zm-17.391-5.651-.947.537-.692.4-6.216-3.574.791-.466,1.06-.636c.283-.17.692-.381,1.215-.65a13.275,13.275,0,0,1,2.826-1.06,7.33,7.33,0,0,1,1.54-.24,6.668,6.668,0,0,1,1.413.141,4.691,4.691,0,0,1,1.413.523,2.826,2.826,0,0,1,.834.706.975.975,0,0,1,.24.749,2.685,2.685,0,0,1-.212.749,2.416,2.416,0,0,1-.593.777l-.819.72a9.874,9.874,0,0,1-.989.706Zm14.438,1.935a4.708,4.708,0,0,1-.537.805,6.6,6.6,0,0,1-.833.805q-.523.438-.975.763l-1.088.721-1.045.636-.975.551-.749.424-6.781-3.927.932-.565c.509-.311.932-.565,1.271-.749s.819-.452,1.413-.777a13.437,13.437,0,0,1,1.667-.749q.72-.275,1.7-.551a8.787,8.787,0,0,1,1.766-.311,6.766,6.766,0,0,1,1.667.113,4.606,4.606,0,0,1,1.582.565,2.643,2.643,0,0,1,.833.692,1.611,1.611,0,0,1,.311.749,1.413,1.413,0,0,1-.155.791Z" transform="translate(173.308 55.755)" fill="#cc8b09"/>
      <path id="Path_2925" data-name="Path 2925" d="M455.58,118.548a13.379,13.379,0,0,0-5.58.834q1.413-2.6-2.557-4.521a10.329,10.329,0,0,0-3.037-.9,11.753,11.753,0,0,0-3.221,0,18.2,18.2,0,0,0-3.165.791,29.873,29.873,0,0,0-3.263,1.413l-5.072-2.91-3.094,1.78,4.931,2.826-2.416,1.413-4.959-2.826-3.094,1.794,5.058,2.91c-.424.268-1.06.65-1.921,1.144l-4.238,2.444,3.292,1.907,2.232-1.286a3.461,3.461,0,0,1,3.15-.254l5.764,3.334a1.849,1.849,0,0,1,.339-.17l-.311.184,8.067,4.662c.579.452.537.876-.141,1.257l-2.232,1.286,3.052,2.486,4.026-2.317,1.116-.636,1.088-.622,5.128,2.953,3.094-1.78-5.1-2.91c.579-.311,1.413-.791,2.472-1.413l5.044,2.91,3.094-1.794L458,129.581a27.091,27.091,0,0,0,2.628-1.865,9.564,9.564,0,0,0,1.752-1.808,3.744,3.744,0,0,0,.763-1.794,2.825,2.825,0,0,0-.494-1.78,6.512,6.512,0,0,0-1.851-1.837,10.313,10.313,0,0,0-5.213-1.95Zm-22.844,2.826.791-.466,1.06-.636c.283-.17.692-.381,1.215-.636a13.557,13.557,0,0,1,1.413-.622,12.3,12.3,0,0,1,1.413-.452,6.441,6.441,0,0,1,1.54-.226,6.611,6.611,0,0,1,1.413.127,4.719,4.719,0,0,1,1.413.537,2.825,2.825,0,0,1,.833.692,1.031,1.031,0,0,1,.24.763,2.588,2.588,0,0,1-.212.735,2.416,2.416,0,0,1-.593.777l-.819.735a10.1,10.1,0,0,1-.989.692l-.961.607-.947.537-.692.4Zm22.124,3.023a1.554,1.554,0,0,1,.311.749,1.413,1.413,0,0,1-.184.805,5.175,5.175,0,0,1-.537.791,6.6,6.6,0,0,1-.834.805q-.523.438-.975.763c-.3.212-.664.452-1.088.721s-.791.494-1.045.636l-.975.551-.749.424L442,126.714l.932-.551,1.271-.763q.509-.3,1.413-.763c.636-.325,1.187-.565,1.667-.763a16.242,16.242,0,0,1,1.7-.537,7.882,7.882,0,0,1,1.766-.311,6.739,6.739,0,0,1,1.667.1,4.917,4.917,0,0,1,1.582.565,2.67,2.67,0,0,1,.9.706Z" transform="translate(173.341 55.268)" fill="#f9ca06"/>
      <path id="Path_2926" data-name="Path 2926" d="M503.526,126.463v-13.28l-2.1,4.761c-2.359-4.577-6.668-8.9-12.927-12.5-20.075-11.6-52.639-11.6-72.715,0a32.719,32.719,0,0,0-12.531,11.8L400.72,113.9v12.6h0c0,7.572,5.058,15.131,15.06,20.909,20.075,11.6,52.639,11.6,72.715,0,10-5.778,15.018-13.336,15.06-20.909h0Z" transform="translate(165.403 48.455)" fill="#dd990e"/>
      <ellipse id="Ellipse_5504" data-name="Ellipse 5504" cx="51.41" cy="29.682" rx="51.41" ry="29.682" transform="translate(566.095 132.493)" fill="#f9cb07"/>
      <path id="Path_2927" data-name="Path 2927" d="M484.577,116.243c-.509,5-4.069,9.889-10.709,13.76-14.368,8.293-37.678,8.293-52.06,0-6.626-3.829-10.2-8.759-10.709-13.76-.607-5.849,2.967-11.839,10.709-16.3,14.382-8.307,37.692-8.307,52.06,0C481.624,104.4,485.2,110.395,484.577,116.243Z" transform="translate(169.66 47.203)" fill="#cc8b09"/>
      <path id="Path_2928" data-name="Path 2928" d="M484.557,115.5c-.509,5-4.069,9.889-10.709,13.76-14.368,8.293-37.678,8.293-52.06,0-6.626-3.829-10.2-8.759-10.709-13.76.509-5,4.083-9.889,10.709-13.746,14.382-8.307,37.692-8.307,52.06,0C480.489,105.565,484.049,110.5,484.557,115.5Z" transform="translate(169.68 47.95)" fill="#e8a30a"/>
      <path id="Path_2929" data-name="Path 2929" d="M458.394,117.541a29.941,29.941,0,0,0,2.628-1.851,10.483,10.483,0,0,0,1.752-1.808,3.843,3.843,0,0,0,.763-1.808,2.826,2.826,0,0,0-.495-1.78,6.315,6.315,0,0,0-1.851-1.823,10.214,10.214,0,0,0-5.2-1.964,13.6,13.6,0,0,0-5.58.834q1.413-2.614-2.557-4.507a9.889,9.889,0,0,0-3.037-.9,11.218,11.218,0,0,0-3.221,0,19.565,19.565,0,0,0-3.165.791,27.528,27.528,0,0,0-3.263,1.413l-4.464-2.585.381-.141h-.65l-.339-.2-.339.2H427v1.582l4.931,2.826-2.416,1.413-4.959-2.826-.791.466-2.3-.268v1.6l5.058,2.924-1.921,1.13-1.78,1.017-2.5-.155V112.7l3.292,1.907,2.232-1.286a3.419,3.419,0,0,1,3.15-.24l5.764,3.32.339-.17-.311.184,8.067,4.662c.565.438.523.848-.1,1.229l-2.275-.268v1.582l3.052,2.486,4.026-2.317,1.116-.636,1.088-.622,5.128,2.967,3.094-1.794v-1.6l-1.413.791-3.687-2.133c.579-.311,1.413-.777,2.472-1.413l5.044,2.91,3.094-1.78v-1.6h-2.656ZM441,111.89c-.226.141-.537.325-.947.537l-.692.4-6.174-3.433.791-.452,1.06-.65c.283-.17.692-.381,1.215-.636s.989-.466,1.413-.622a12.311,12.311,0,0,1,1.413-.452,7.249,7.249,0,0,1,1.54-.226,6.612,6.612,0,0,1,1.413.127,5.114,5.114,0,0,1,1.413.537,2.826,2.826,0,0,1,.834.692,1.031,1.031,0,0,1,.24.763,2.827,2.827,0,0,1-.212.749,2.572,2.572,0,0,1-.593.777l-.819.721a9.883,9.883,0,0,1-.989.706Zm14.438,1.95a4.575,4.575,0,0,1-.537.791,6.6,6.6,0,0,1-.833.805,11.824,11.824,0,0,1-.975.763l-1.088.735-1.045.622-.975.551-.749.424-6.781-3.913.932-.565,1.271-.763c.339-.184.819-.452,1.413-.763a15.934,15.934,0,0,1,1.667-.749q.721-.275,1.7-.551a8.787,8.787,0,0,1,1.766-.311,7.486,7.486,0,0,1,1.667.1,4.619,4.619,0,0,1,1.582.579,2.473,2.473,0,0,1,.834.692,1.61,1.61,0,0,1,.311.749,1.413,1.413,0,0,1-.155.862Z" transform="translate(173.493 50.299)" fill="#cc8b09"/>
      <path id="Path_2930" data-name="Path 2930" d="M455.98,105.378a13.845,13.845,0,0,0-5.58.834q1.413-2.614-2.557-4.507a9.89,9.89,0,0,0-3.037-.9,11.217,11.217,0,0,0-3.221,0,18.2,18.2,0,0,0-3.165.791A29.883,29.883,0,0,0,435.156,103l-5.072-2.924-3.094,1.794,4.93,2.826-2.416,1.413-4.959-2.826-3.094,1.78,5.058,2.924c-.424.268-1.06.65-1.921,1.144l-4.238,2.444,3.292,1.893,2.232-1.286a3.5,3.5,0,0,1,3.15-.24l5.764,3.334.339-.184-.311.184,8.067,4.662c.579.466.537.876-.141,1.271L440.51,122.5l3.052,2.472,4.026-2.317,1.116-.622,1.088-.622,5.128,2.953,3.08-1.794-5.072-2.924,2.472-1.413,5.044,2.91,3.094-1.78-5.128-2.953a27.1,27.1,0,0,0,2.628-1.865,10,10,0,0,0,1.752-1.808,3.786,3.786,0,0,0,.763-1.808,2.825,2.825,0,0,0-.494-1.78,6.669,6.669,0,0,0-1.851-1.822,10.468,10.468,0,0,0-5.227-1.95Zm-22.8,2.826.791-.466,1.06-.636c.283-.17.692-.381,1.215-.65a13.276,13.276,0,0,1,2.825-1.06,7.331,7.331,0,0,1,1.54-.24,7.671,7.671,0,0,1,1.413.141,4.72,4.72,0,0,1,1.413.537,2.628,2.628,0,0,1,.834.692.989.989,0,0,1,.24.763,2.726,2.726,0,0,1-.212.735,2.415,2.415,0,0,1-.593.777l-.819.721a8.011,8.011,0,0,1-.989.706l-.961.607-.947.537-.692.4-6.174-3.56Zm22.124,3.066a1.5,1.5,0,0,1,.311.749,1.412,1.412,0,0,1-.184.805,5.182,5.182,0,0,1-.537.791,6.6,6.6,0,0,1-.834.805q-.523.438-.975.763L452,115.9l-1.045.636-.975.551-.749.424-6.781-3.927.932-.565c.509-.311.932-.565,1.271-.749s.819-.452,1.413-.777a13.446,13.446,0,0,1,1.667-.749,16.25,16.25,0,0,1,1.7-.537,8.871,8.871,0,0,1,1.766-.325,7.53,7.53,0,0,1,1.667.113,4.606,4.606,0,0,1,1.582.565,2.5,2.5,0,0,1,.862.706Z" transform="translate(173.506 49.832)" fill="#f9ca06"/>
      <path id="Path_2931" data-name="Path 2931" d="M501.665,113.28V100.014l-2.133,4.761c-2.359-4.577-6.668-8.9-12.927-12.517-20.075-11.585-52.639-11.585-72.715,0a32.649,32.649,0,0,0-12.531,11.811l-2.529-3.334v12.6h0c0,7.572,5.058,15.145,15.06,20.923,20.075,11.585,52.625,11.585,72.715,0,10-5.778,15.018-13.351,15.06-20.923h0Z" transform="translate(164.623 43.018)" fill="#dd990e"/>
      <ellipse id="Ellipse_5505" data-name="Ellipse 5505" cx="51.41" cy="29.682" rx="51.41" ry="29.682" transform="translate(563.453 113.887)" fill="#f9cb07"/>
      <path id="Path_2932" data-name="Path 2932" d="M482.693,103.073c-.494,5-4.069,9.889-10.695,13.746-14.382,8.307-37.678,8.307-52.06,0-6.626-3.814-10.2-8.745-10.709-13.746-.607-5.863,2.967-11.839,10.709-16.3,14.382-8.307,37.678-8.307,52.06,0C479.74,91.235,483.314,97.211,482.693,103.073Z" transform="translate(168.888 41.767)" fill="#cc8b09"/>
      <path id="Path_2933" data-name="Path 2933" d="M482.673,102.327c-.495,5-4.069,9.889-10.695,13.746-14.382,8.307-37.678,8.307-52.06,0-6.626-3.814-10.2-8.745-10.709-13.746.509-5.015,4.083-9.889,10.709-13.76,14.382-8.293,37.678-8.293,52.06,0C478.6,92.382,482.179,97.312,482.673,102.327Z" transform="translate(168.908 42.513)" fill="#e8a30a"/>
      <path id="Path_2934" data-name="Path 2934" d="M456.524,104.371a27.1,27.1,0,0,0,2.628-1.865,9.056,9.056,0,0,0,1.738-1.808,3.645,3.645,0,0,0,.777-1.794,2.826,2.826,0,0,0-.494-1.78,6.7,6.7,0,0,0-1.851-1.837,10.369,10.369,0,0,0-5.2-1.95,13.463,13.463,0,0,0-5.651.834c.989-1.738.127-3.249-2.543-4.521a10.328,10.328,0,0,0-3.037-.9,11.74,11.74,0,0,0-3.221,0,18.677,18.677,0,0,0-3.179.791,32.387,32.387,0,0,0-3.263,1.413l-4.464-2.571.4-.155h-.65l-.339-.184-.339.184h-2.755v1.6l4.931,2.826-2.416,1.413-4.959-2.826-.791.452-2.3-.254v1.6l5.058,2.91c-.424.268-1.074.65-1.921,1.144l-1.78,1.017-2.444-.226v1.6l3.292,1.907,2.232-1.286a3.461,3.461,0,0,1,3.15-.254l5.764,3.334a1.851,1.851,0,0,1,.339-.17l-.325.184,8.081,4.662c.565.438.523.848-.1,1.229l-2.275-.268v1.582l3.052,2.486,4.026-2.317,1.1-.636,1.1-.622,5.114,2.953,3.094-1.667v-1.6l-1.413.805L451,107.663c.579-.311,1.413-.791,2.472-1.413l5.044,2.91,3.094-1.794v-1.582h-2.755ZM439.119,98.72c-.212.141-.523.311-.932.537l-.692.4-6.174-3.56.791-.466,1.06-.636c.283-.17.678-.381,1.215-.636a13.547,13.547,0,0,1,1.413-.622,12.307,12.307,0,0,1,1.413-.452,6.429,6.429,0,0,1,1.526-.226,6.541,6.541,0,0,1,1.413.127,4.577,4.577,0,0,1,1.413.537,2.727,2.727,0,0,1,.848.692,1.017,1.017,0,0,1,.226.763,2.573,2.573,0,0,1-.2.735,2.416,2.416,0,0,1-.593.777l-.819.735a10.1,10.1,0,0,1-.989.692Zm14.453,1.978a5.184,5.184,0,0,1-.537.791,6.6,6.6,0,0,1-.834.805q-.523.438-.975.763t-1.1.721c-.424.283-.777.494-1.031.636l-.975.551-.749.424-6.8-3.927.947-.551,1.271-.763q.508-.3,1.413-.763c.636-.325,1.187-.565,1.667-.763a16.245,16.245,0,0,1,1.7-.537,7.883,7.883,0,0,1,1.766-.311,6.74,6.74,0,0,1,1.667.1,5.029,5.029,0,0,1,1.582.565,2.671,2.671,0,0,1,.834.706,1.554,1.554,0,0,1,.311.749A1.512,1.512,0,0,1,453.571,100.7Z" transform="translate(172.722 44.863)" fill="#cc8b09"/>
      <path id="Path_2935" data-name="Path 2935" d="M454.089,92.2a13.7,13.7,0,0,0-5.651.833c.989-1.738.127-3.235-2.543-4.507a9.89,9.89,0,0,0-3.037-.9,10.723,10.723,0,0,0-3.221,0,20.077,20.077,0,0,0-3.179.777,29.67,29.67,0,0,0-3.136,1.455l-5.058-2.924-3.094,1.78,4.93,2.826c-.537.3-1.342.777-2.416,1.413l-4.959-2.826-3.094,1.78,5.058,2.924-1.921,1.13L418.53,98.4l3.292,1.907,2.232-1.286a3.461,3.461,0,0,1,3.151-.24l5.764,3.32.339-.17-.325.184,8.081,4.662c.579.452.523.876-.141,1.257l-2.232,1.3,3.052,2.472,4.026-2.317,1.1-.636,1.1-.622,5.114,2.967,3.094-1.794-5.058-2.924c.579-.311,1.413-.777,2.472-1.413l5.044,2.91,3.094-1.78-5.128-2.967a29.941,29.941,0,0,0,2.628-1.851,9.889,9.889,0,0,0,1.738-1.808,3.688,3.688,0,0,0,.608-1.808,2.826,2.826,0,0,0-.494-1.78,6.682,6.682,0,0,0-1.851-1.823,10.383,10.383,0,0,0-5.142-1.964Zm-22.8,2.826.791-.466,1.06-.636a13.721,13.721,0,0,1,1.215-.65c.523-.254.989-.466,1.413-.622s.876-.3,1.413-.452a7.248,7.248,0,0,1,1.526-.226,5.834,5.834,0,0,1,1.413.141,4.548,4.548,0,0,1,1.413.523,2.741,2.741,0,0,1,.848.706.961.961,0,0,1,.226.749,2.656,2.656,0,0,1-.2.749,2.572,2.572,0,0,1-.593.777l-.819.721a9.882,9.882,0,0,1-.989.706l-.975.593q-.311.212-.932.551l-.692.381-6.174-3.546Zm22.124,3.009a1.611,1.611,0,0,1,.311.749,1.412,1.412,0,0,1-.184.805,4.705,4.705,0,0,1-.537.805,6.6,6.6,0,0,1-.834.805,11.384,11.384,0,0,1-.975.749c-.3.212-.664.452-1.1.735l-1.031.622-.975.551-.749.424-6.8-3.913.947-.565,1.271-.763,1.413-.763c.636-.311,1.187-.565,1.667-.749s1.045-.367,1.7-.551a8.788,8.788,0,0,1,1.766-.311,7.489,7.489,0,0,1,1.667.1,5.058,5.058,0,0,1,1.582.579A2.643,2.643,0,0,1,453.411,98.034Z" transform="translate(172.755 44.404)" fill="#f9ca06"/>
      <path id="Path_2936" data-name="Path 2936" d="M439.2,388.862,360.284,343.3c-3.673-2.119-3.207-5.821,1.031-8.279l76.854-44.431c4.238-2.444,10.666-2.712,14.339-.593l78.917,45.561c3.687,2.133,3.221,5.835-1.031,8.279L453.54,388.213C449.3,390.727,442.845,390.982,439.2,388.862Z" transform="translate(147.69 127.632)" fill="#d6d8e5" opacity="0.4" style="isolation: isolate"/>
      <path id="Path_2937" data-name="Path 2937" d="M537.894,331.293l-3.871,1.187-77.5-44.742c-3.673-2.119-10.1-1.851-14.339.593l-76.854,44.375-.184.127-3.278-1.031v5.1a2.4,2.4,0,0,0,0,.551v.424h0A4.421,4.421,0,0,0,364.28,341L443.2,386.56c3.673,2.119,10.087,1.851,14.339-.593l76.882-44.389a6.047,6.047,0,0,0,3.475-4.436h0Z" transform="translate(149.359 126.699)" fill="#d5d6e0"/>
      <path id="Path_2938" data-name="Path 2938" d="M443.222,382.749l-78.917-45.561c-3.673-2.119-3.221-5.821,1.031-8.279l76.854-44.318c4.238-2.444,10.666-2.713,14.339-.593l78.917,45.561c3.673,2.133,3.207,5.835-1.031,8.279l-76.854,44.375C453.309,384.614,446.839,384.9,443.222,382.749Z" transform="translate(149.348 125.155)" fill="#e9eaf4"/>
      <ellipse id="Ellipse_5506" data-name="Ellipse 5506" cx="51.41" cy="29.682" rx="51.41" ry="29.682" transform="translate(542.855 429.525)" opacity="0.05"/>
      <path id="Path_2939" data-name="Path 2939" d="M489.6,325.37V312.1l-2.133,4.761c-2.359-4.591-6.654-8.9-12.927-12.517-20.075-11.585-52.625-11.585-72.715,0a32.748,32.748,0,0,0-12.531,11.811l-2.515-3.334v12.588h0c0,7.572,5.044,15.145,15.046,20.923,20.089,11.585,52.639,11.585,72.715,0,10.016-5.778,15.032-13.351,15.06-20.923h0Z" transform="translate(159.65 130.559)" fill="#dd990e"/>
      <ellipse id="Ellipse_5507" data-name="Ellipse 5507" cx="51.41" cy="29.682" rx="51.41" ry="29.682" transform="translate(546.415 413.504)" fill="#f9cb07"/>
      <path id="Path_2940" data-name="Path 2940" d="M470.643,315.164c-.509,5-4.069,9.889-10.695,13.746-14.382,8.307-37.692,8.307-52.06,0-6.64-3.814-10.214-8.745-10.709-13.746-.622-5.863,2.967-11.839,10.709-16.317,14.368-8.293,37.678-8.293,52.06,0C467.691,303.326,471.265,309.3,470.643,315.164Z" transform="translate(163.914 129.307)" fill="#cc8b09"/>
      <path id="Path_2941" data-name="Path 2941" d="M470.623,314.417c-.509,5-4.069,9.889-10.695,13.746-14.382,8.307-37.692,8.307-52.06,0-6.64-3.814-10.214-8.745-10.709-13.746.495-5.015,4.069-9.889,10.709-13.76,14.368-8.293,37.678-8.293,52.06,0C466.555,304.472,470.115,309.36,470.623,314.417Z" transform="translate(163.934 130.054)" fill="#e8a30a"/>
      <path id="Path_2942" data-name="Path 2942" d="M444.478,316.466a25.1,25.1,0,0,0,2.614-1.865,10,10,0,0,0,1.752-1.808,3.687,3.687,0,0,0,.777-1.808,2.825,2.825,0,0,0-.495-1.78,6.751,6.751,0,0,0-1.865-1.822,10.468,10.468,0,0,0-5.2-1.964,13.634,13.634,0,0,0-5.58.848c.975-1.752.127-3.249-2.557-4.521a9.888,9.888,0,0,0-3.023-.9,11.2,11.2,0,0,0-3.221,0,18.048,18.048,0,0,0-3.179.791,31.086,31.086,0,0,0-3.263,1.413l-4.464-2.571.381-.155h-.636l-.339-.2-.339.2h-2.755v1.6L418,304.74l-2.4,1.413-4.973-2.826-.777.452-2.317-.254v1.582l5.072,2.924c-.438.268-1.074.65-1.935,1.144l-1.766,1-2.515-.155v1.6l3.306,1.893,2.218-1.286a3.532,3.532,0,0,1,3.165-.24l5.764,3.334a2.077,2.077,0,0,1,.339-.184l-.325.184,8.067,4.662c.565.452.523.862-.1,1.243l-2.26-.283v1.611l3.052,2.486,4.012-2.331,1.116-.622,1.088-.622,5.128,2.953,3.094-1.78v-1.6l-1.413.791-3.673-2.119,2.472-1.413,5.029,2.91,3.094-1.794v-1.582h-2.826Zm-17.405-5.651-.932.537-.706.4-6.16-3.56.777-.466,1.06-.636c.283-.169.692-.381,1.215-.65a13.649,13.649,0,0,1,1.413-.622c.41-.155.89-.3,1.413-.438a7.062,7.062,0,0,1,1.526-.24,7.558,7.558,0,0,1,1.413.141,4.576,4.576,0,0,1,1.413.537,2.824,2.824,0,0,1,.848.692,1.031,1.031,0,0,1,.226.763,2.571,2.571,0,0,1-.2.735,2.487,2.487,0,0,1-.608.777q-.452.424-.805.721a8.322,8.322,0,0,1-1,.706Zm14.438,1.95a4.336,4.336,0,0,1-.537.791,5.752,5.752,0,0,1-.834.805q-.523.438-.975.763c-.283.212-.65.452-1.088.721l-1.031.636-.975.551c-.4.212-.65.353-.749.424l-6.8-3.927.932-.551,1.271-.763c.339-.2.819-.452,1.413-.763a15.99,15.99,0,0,1,1.667-.763,17.015,17.015,0,0,1,1.681-.537,9.049,9.049,0,0,1,1.766-.325,7.53,7.53,0,0,1,1.667.113,4.79,4.79,0,0,1,1.6.565,2.642,2.642,0,0,1,.834.706,1.7,1.7,0,0,1,.311.749,1.54,1.54,0,0,1-.155.862Z" transform="translate(167.744 132.4)" fill="#cc8b09"/>
      <path id="Path_2943" data-name="Path 2943" d="M442.05,304.3a13.6,13.6,0,0,0-5.58.834c.975-1.738.127-3.249-2.557-4.507a9.889,9.889,0,0,0-3.023-.9,11.2,11.2,0,0,0-3.221,0,19.373,19.373,0,0,0-3.179.791,28.557,28.557,0,0,0-3.264,1.413L416.168,299l-3.094,1.78,4.916,2.826-2.4,1.413-4.973-2.826-3.094,1.794,5.072,2.924-1.935,1.13-4.238,2.444,3.306,1.907,2.218-1.286a3.49,3.49,0,0,1,3.165-.254l5.764,3.334a1.883,1.883,0,0,1,.339-.17l-.325.184,8.067,4.662c.579.452.537.876-.127,1.257l-2.232,1.286,3.052,2.486,4.012-2.317,1.116-.636,1.088-.622,5.128,2.953,3.094-1.78-5.058-2.924c.565-.311,1.413-.777,2.472-1.413l5.029,2.91,3.094-1.78-5.114-2.967a27.553,27.553,0,0,0,2.614-1.851,10.061,10.061,0,0,0,1.752-1.823,3.645,3.645,0,0,0,.777-1.794,2.826,2.826,0,0,0-.494-1.78,6.386,6.386,0,0,0-1.865-1.822,10.214,10.214,0,0,0-5.241-1.949Zm-22.788,2.826.777-.452,1.06-.65c.283-.17.692-.381,1.215-.636s1-.466,1.413-.622a13.583,13.583,0,0,1,1.413-.452,7.065,7.065,0,0,1,1.526-.226,6.543,6.543,0,0,1,1.413.127,4.577,4.577,0,0,1,1.413.537,3.093,3.093,0,0,1,.848.692,1.074,1.074,0,0,1,.226.763,2.824,2.824,0,0,1-.2.749,2.656,2.656,0,0,1-.607.777q-.452.424-.805.72a10.329,10.329,0,0,1-1,.706l-.961.593c-.226.141-.537.325-.932.537l-.706.4-6.16-3.56Zm22.124,3.023a1.766,1.766,0,0,1,.311.749,1.414,1.414,0,0,1-.2.805,3.9,3.9,0,0,1-.537.791,5.748,5.748,0,0,1-.833.805q-.523.438-.975.763c-.283.212-.65.452-1.088.72s-.777.495-1.031.636l-.975.551-.749.424-6.8-3.913.932-.565,1.271-.763c.339-.2.819-.452,1.413-.763a15.926,15.926,0,0,1,1.667-.749,16.839,16.839,0,0,1,1.681-.551,8.023,8.023,0,0,1,1.766-.311,7.486,7.486,0,0,1,1.667.1,5.113,5.113,0,0,1,1.6.565,2.826,2.826,0,0,1,.876.692Z" transform="translate(167.756 131.938)" fill="#f9ca06"/>
      <path id="Path_2944" data-name="Path 2944" d="M490.04,312.2V298.938l-2.133,4.747c-2.359-4.577-6.654-8.886-12.927-12.5-20.075-11.6-52.625-11.6-72.715,0a32.747,32.747,0,0,0-12.531,11.811l-2.515-3.334v12.588h0c0,7.572,5.044,15.145,15.046,20.909,20.089,11.6,52.639,11.6,72.715,0,10.016-5.778,15.032-13.336,15.06-20.909h0Z" transform="translate(159.831 125.12)" fill="#dd990e"/>
      <ellipse id="Ellipse_5508" data-name="Ellipse 5508" cx="51.41" cy="29.682" rx="51.41" ry="29.682" transform="translate(546.981 394.898)" fill="#f9cb07"/>
      <path id="Path_2945" data-name="Path 2945" d="M471.043,301.98c-.509,5.015-4.069,9.889-10.695,13.76-14.382,8.293-37.692,8.293-52.06,0-6.64-3.814-10.214-8.745-10.709-13.76-.622-5.849,2.967-11.825,10.709-16.3,14.368-8.293,37.678-8.293,52.06,0C468.091,290.113,471.665,296.132,471.043,301.98Z" transform="translate(164.079 123.871)" fill="#cc8b09"/>
      <path id="Path_2946" data-name="Path 2946" d="M471.023,301.236c-.509,5.015-4.069,9.889-10.695,13.76-14.382,8.293-37.692,8.293-52.06,0-6.64-3.814-10.214-8.745-10.709-13.76.494-5,4.069-9.889,10.709-13.746,14.368-8.307,37.678-8.307,52.06,0C466.955,291.3,470.515,296.235,471.023,301.236Z" transform="translate(164.099 124.615)" fill="#e8a30a"/>
      <path id="Path_2947" data-name="Path 2947" d="M444.882,303.3a27.413,27.413,0,0,0,2.614-1.865,10.477,10.477,0,0,0,1.752-1.808,3.686,3.686,0,0,0,.777-1.808,2.826,2.826,0,0,0-.495-1.78,6.752,6.752,0,0,0-1.865-1.822,10.341,10.341,0,0,0-5.256-1.964,13.845,13.845,0,0,0-5.651.833q1.413-2.614-2.557-4.507a9.89,9.89,0,0,0-3.023-.9,10.725,10.725,0,0,0-3.221,0,18.043,18.043,0,0,0-3.179.791,29.4,29.4,0,0,0-3.263,1.413l-4.464-2.571.381-.155h-.452l-.339-.2-.339.2h-2.825v1.6l4.916,2.826c-.537.311-1.342.777-2.4,1.413l-4.973-2.826-.777.452-2.317-.268v1.6L413,294.861l-1.935,1.13-1.766,1.017-2.515-.155v1.6l3.306,1.893,2.218-1.286a3.489,3.489,0,0,1,3.165-.24l5.75,3.32.339-.17-.325.184,8.067,4.662c.565.452.523.862-.1,1.243l-2.26-.283v1.6l3.052,2.472L434,309.526l1.116-.636,1.088-.622,5.128,2.967,3.094-1.794v-1.582l-1.413.791-3.673-2.119,2.472-1.413,5.029,2.91,3.094-1.78v-1.6h-2.755Zm-17.405-5.651-.932.537-.706.4-6.16-3.56.777-.466,1.06-.636c.283-.17.692-.4,1.215-.65s1-.466,1.413-.622a13.791,13.791,0,0,1,1.413-.438,6.3,6.3,0,0,1,1.526-.24,6.583,6.583,0,0,1,1.413.141,4.547,4.547,0,0,1,1.413.523,3.121,3.121,0,0,1,.848.706,1.017,1.017,0,0,1,.226.749,2.654,2.654,0,0,1-.2.749,2.488,2.488,0,0,1-.608.777q-.438.424-.805.721a10.31,10.31,0,0,1-1,.706Zm14.438,1.935a4,4,0,0,1-.537.805,5.746,5.746,0,0,1-.834.805,11.387,11.387,0,0,1-.975.749c-.283.212-.65.452-1.088.735l-1.031.622-.975.551-.749.424-6.8-3.913.932-.565,1.271-.763,1.413-.763c.622-.311,1.187-.565,1.667-.749s1.045-.367,1.681-.551a8.956,8.956,0,0,1,1.766-.311,6.77,6.77,0,0,1,1.667.113,4.788,4.788,0,0,1,1.6.565,2.824,2.824,0,0,1,.834.692,1.764,1.764,0,0,1,.311.749,1.413,1.413,0,0,1-.155.862Z" transform="translate(167.905 126.964)" fill="#cc8b09"/>
      <path id="Path_2948" data-name="Path 2948" d="M442.43,291.128a13.379,13.379,0,0,0-5.651.834q1.413-2.614-2.557-4.521a10.243,10.243,0,0,0-3.023-.9,11.741,11.741,0,0,0-3.221,0,18.041,18.041,0,0,0-3.179.791,32.4,32.4,0,0,0-3.263,1.413l-5.058-2.91-3.094,1.78,4.916,2.826-2.4,1.413-4.973-2.826-3.094,1.78,5.072,2.924c-.438.268-1.074.65-1.935,1.144l-4.238,2.444,3.306,1.907,2.218-1.3a3.532,3.532,0,0,1,3.165-.24l5.764,3.334a2.078,2.078,0,0,1,.339-.184l-.325.2,8.067,4.662c.579.452.537.876-.127,1.257l-2.232,1.286,3.052,2.486,4.012-2.317,1.116-.636,1.088-.622L441.3,310.1l3.094-1.78-5.058-2.924,2.472-1.413,5.029,2.91,3.094-1.794-5.114-2.953a25.1,25.1,0,0,0,2.614-1.865,10,10,0,0,0,1.752-1.808,3.645,3.645,0,0,0,.777-1.794,2.826,2.826,0,0,0-.494-1.78,6.585,6.585,0,0,0-1.865-1.837A10.314,10.314,0,0,0,442.43,291.128Zm-22.788,2.826.777-.466,1.06-.636c.283-.17.692-.381,1.215-.636s1-.466,1.413-.622a13.583,13.583,0,0,1,1.413-.452,6.23,6.23,0,0,1,1.526-.226,6.54,6.54,0,0,1,1.413.127,4.577,4.577,0,0,1,1.413.537,3.092,3.092,0,0,1,.848.692,1.06,1.06,0,0,1,.226.763,2.571,2.571,0,0,1-.2.735,2.486,2.486,0,0,1-.607.777l-.805.735a10.579,10.579,0,0,1-1,.692l-.961.607-.932.537-.706.4-6.16-3.56Zm22.124,3.023a1.7,1.7,0,0,1,.311.749,1.539,1.539,0,0,1-.2.805,4.338,4.338,0,0,1-.537.791,5.747,5.747,0,0,1-.833.805q-.523.438-.975.763c-.283.212-.65.452-1.088.721s-.777.494-1.031.636l-.975.551c-.4.226-.65.353-.749.424l-6.8-3.927.932-.551,1.271-.763c.339-.2.819-.452,1.413-.763a15.974,15.974,0,0,1,1.667-.763,17.024,17.024,0,0,1,1.681-.537,8.025,8.025,0,0,1,1.766-.311,6.74,6.74,0,0,1,1.667.1,4.789,4.789,0,0,1,1.6.565,2.825,2.825,0,0,1,.933.692Z" transform="translate(167.884 126.502)" fill="#f9ca06"/>
      <path id="Path_2949" data-name="Path 2949" d="M488.135,299.013V285.8L486,290.564c-2.359-4.577-6.668-8.9-12.927-12.5-20.075-11.6-52.625-11.6-72.715,0a32.719,32.719,0,0,0-12.531,11.8l-2.529-3.334v12.6h0c0,7.572,5.044,15.131,15.046,20.909,20.089,11.6,52.639,11.6,72.715,0,10-5.778,15.032-13.336,15.06-20.909h0Z" transform="translate(159.039 119.705)" fill="#dd990e"/>
      <ellipse id="Ellipse_5509" data-name="Ellipse 5509" cx="51.41" cy="29.682" rx="51.41" ry="29.682" transform="translate(544.339 376.292)" fill="#f9cb07"/>
      <path id="Path_2950" data-name="Path 2950" d="M469.177,288.813c-.509,5-4.069,9.889-10.709,13.76-14.368,8.293-37.678,8.293-52.046,0-6.64-3.829-10.214-8.759-10.723-13.76-.607-5.863,2.967-11.839,10.723-16.3,14.368-8.307,37.678-8.307,52.046,0C466.224,276.975,469.8,282.951,469.177,288.813Z" transform="translate(163.304 118.432)" fill="#cc8b09"/>
      <path id="Path_2951" data-name="Path 2951" d="M469.157,288.066c-.509,5-4.069,9.889-10.709,13.76-14.368,8.293-37.678,8.293-52.046,0-6.64-3.829-10.214-8.759-10.723-13.76.509-5,4.083-9.889,10.723-13.746,14.368-8.307,37.678-8.307,52.046,0C465.089,278.135,468.649,283.065,469.157,288.066Z" transform="translate(163.323 119.179)" fill="#e8a30a"/>
      <path id="Path_2952" data-name="Path 2952" d="M443.008,290.12a29.515,29.515,0,0,0,2.614-1.851,10.06,10.06,0,0,0,1.752-1.822,3.645,3.645,0,0,0,.777-1.794,2.91,2.91,0,0,0-.495-1.78,6.385,6.385,0,0,0-1.865-1.822,10.214,10.214,0,0,0-5.2-1.964,13.6,13.6,0,0,0-5.58.833c.975-1.738.127-3.249-2.557-4.507a9.89,9.89,0,0,0-3.023-.9,11.2,11.2,0,0,0-3.221,0,19.363,19.363,0,0,0-3.179.791,27.526,27.526,0,0,0-3.263,1.413L415.3,274.1l.381-.141h-.636l-.339-.2-.339.2h-2.755v1.554l4.916,2.826-2.416,1.413-4.959-2.826-.791.466-2.3-.268v1.6l5.072,2.924-1.935,1.13-1.766,1.017-2.515-.155v1.582l3.292,1.907,2.232-1.286a3.461,3.461,0,0,1,3.15-.254l5.764,3.334a2.55,2.55,0,0,1,.353-.17l-.325.184,8.067,4.662c.565.438.523.848-.1,1.229l-2.26-.268v1.582l3.052,2.486,4.012-2.317,1.116-.636,1.088-.622L439.49,298l3.094-1.78v-1.6l-1.413.805L437.5,293.3c.565-.311,1.413-.777,2.458-1.413L445,294.8l3.094-1.78v-1.6h-2.755ZM425.6,284.469c-.226.141-.537.325-.932.537l-.706.4-6.216-3.5.777-.452,1.06-.65c.283-.17.692-.381,1.215-.636s1-.466,1.413-.622a12.605,12.605,0,0,1,1.413-.452,7.067,7.067,0,0,1,1.526-.226,6.612,6.612,0,0,1,1.413.127,4.577,4.577,0,0,1,1.413.537,3.1,3.1,0,0,1,.848.692,1.073,1.073,0,0,1,.226.763,2.823,2.823,0,0,1-.2.749,2.654,2.654,0,0,1-.607.777c-.3.283-.565.523-.819.721a9.879,9.879,0,0,1-.989.706Zm14.438,1.95a4.572,4.572,0,0,1-.537.791,6.6,6.6,0,0,1-.834.805,11.263,11.263,0,0,1-.975.763c-.3.212-.65.452-1.088.721s-.777.494-1.031.636l-.975.551-.763.424-6.781-3.913.932-.565,1.271-.763c.339-.2.819-.452,1.413-.763a17.356,17.356,0,0,1,1.667-.749,15.7,15.7,0,0,1,1.681-.551,7.883,7.883,0,0,1,1.766-.311,7.485,7.485,0,0,1,1.667.1,4.917,4.917,0,0,1,1.582.565,2.515,2.515,0,0,1,.834.706,1.638,1.638,0,0,1,.325.749,1.413,1.413,0,0,1-.155.862Z" transform="translate(167.137 121.52)" fill="#cc8b09"/>
      <path id="Path_2953" data-name="Path 2953" d="M440.58,277.948a13.845,13.845,0,0,0-5.58.833q1.413-2.614-2.557-4.507a9.889,9.889,0,0,0-3.023-.9,11.2,11.2,0,0,0-3.221,0,18.041,18.041,0,0,0-3.179.791,29.9,29.9,0,0,0-3.263,1.413L414.7,272.65l-3.094,1.794,4.916,2.826-2.416,1.413-4.959-2.826-3.094,1.78,5.072,2.924-1.935,1.13-4.238,2.458,3.292,1.893,2.232-1.286a3.5,3.5,0,0,1,3.15-.24l5.764,3.32.353-.17-.325.184,8.067,4.662c.579.452.537.876-.141,1.271l-2.218,1.286,3.052,2.472,4.012-2.317,1.116-.622,1.088-.622,5.128,2.953,3.094-1.794-5.1-2.91,2.458-1.413,5.044,2.91,3.094-1.78L443,289a26.729,26.729,0,0,0,2.614-1.865,10.485,10.485,0,0,0,1.752-1.808,3.687,3.687,0,0,0,.777-1.808,2.953,2.953,0,0,0-.495-1.78,6.751,6.751,0,0,0-1.865-1.822,10.468,10.468,0,0,0-5.2-1.964Zm-22.788,2.825.777-.466,1.06-.636c.283-.169.692-.381,1.215-.65a13.648,13.648,0,0,1,1.413-.622,12.827,12.827,0,0,1,1.413-.438,7.066,7.066,0,0,1,1.526-.24,6.674,6.674,0,0,1,1.413.141,4.55,4.55,0,0,1,1.413.523,3.124,3.124,0,0,1,.848.706,1.017,1.017,0,0,1,.226.749,2.656,2.656,0,0,1-.2.749,2.487,2.487,0,0,1-.608.777c-.3.283-.565.523-.819.72a8.006,8.006,0,0,1-.989.706l-.961.608-.932.537-.706.4-6.145-3.56ZM439.9,283.8a1.286,1.286,0,0,1,.127,1.554,5.188,5.188,0,0,1-.537.791,6.605,6.605,0,0,1-.834.805,11.274,11.274,0,0,1-.975.763l-1.088.721-1.031.636-.975.551-.763.424-6.781-3.927.932-.565,1.271-.749c.339-.2.819-.452,1.413-.777a17.351,17.351,0,0,1,1.667-.749c.48-.184,1.031-.367,1.681-.551a8.789,8.789,0,0,1,1.766-.311,7.525,7.525,0,0,1,1.667.113,4.6,4.6,0,0,1,1.582.565,2.358,2.358,0,0,1,.876.706Z" transform="translate(167.149 121.061)" fill="#f9ca06"/>
      <path id="Path_2954" data-name="Path 2954" d="M491.675,286.141V272.8l-2.133,4.761c-2.359-4.577-6.668-8.9-12.927-12.517-20.075-11.585-52.625-11.585-72.715,0a32.847,32.847,0,0,0-12.531,11.811l-2.529-3.334v12.6h0c0,7.572,5.044,15.131,15.046,20.909,20.075,11.6,52.639,11.6,72.715,0,10-5.778,15.032-13.336,15.06-20.909h0Z" transform="translate(160.5 114.338)" fill="#dd990e"/>
      <ellipse id="Ellipse_5510" data-name="Ellipse 5510" cx="51.41" cy="29.682" rx="51.41" ry="29.682" transform="translate(549.34 358.054)" fill="#f9cb07"/>
      <path id="Path_2955" data-name="Path 2955" d="M472.717,275.9c-.509,5-4.069,9.889-10.709,13.746-14.368,8.307-37.678,8.307-52.046,0-6.64-3.814-10.214-8.745-10.723-13.746-.607-5.863,2.967-11.839,10.723-16.3,14.368-8.307,37.678-8.307,52.046,0C469.764,264.065,473.338,270.041,472.717,275.9Z" transform="translate(164.765 113.104)" fill="#cc8b09"/>
      <path id="Path_2956" data-name="Path 2956" d="M472.7,275.157c-.509,5-4.069,9.889-10.709,13.746-14.368,8.307-37.678,8.307-52.046,0-6.64-3.814-10.214-8.745-10.723-13.746.509-5,4.083-9.889,10.723-13.76,14.368-8.293,37.678-8.293,52.046,0C468.629,265.226,472.189,270.156,472.7,275.157Z" transform="translate(164.784 113.85)" fill="#e8a30a"/>
      <path id="Path_2957" data-name="Path 2957" d="M446.548,277.2a26.719,26.719,0,0,0,2.614-1.865,9.563,9.563,0,0,0,1.752-1.808,3.645,3.645,0,0,0,.777-1.794,2.911,2.911,0,0,0-.495-1.78,6.583,6.583,0,0,0-1.865-1.837,10.313,10.313,0,0,0-5.2-1.95,13.38,13.38,0,0,0-5.58.834c.975-1.738.127-3.249-2.557-4.507a9.465,9.465,0,0,0-3.023-.9,11.2,11.2,0,0,0-3.221,0,19.373,19.373,0,0,0-3.179.791,27.526,27.526,0,0,0-3.263,1.413l-4.464-2.585.381-.141h-.636l-.339-.2-.339.2h-2.755v1.582l4.916,2.826-2.416,1.413-4.959-2.826-.791.452-2.3-.254v1.6l5.072,2.91c-.438.268-1.074.65-1.935,1.144l-1.766,1.017-2.515-.155v1.582l3.292,1.907,2.232-1.286a3.461,3.461,0,0,1,3.15-.254l5.764,3.334a1.554,1.554,0,0,1,.353-.169l-.325.184,8.067,4.662c.565.438.523.848-.1,1.229l-2.26-.268v1.582l3.052,2.486,4.012-2.317,1.116-.636,1.088-.622,5.128,2.953,3.094-1.78v-1.6l-1.413.805-3.673-2.133c.565-.311,1.413-.777,2.458-1.413l5.044,2.91,3.094-1.794v-1.568h-2.826Zm-17.405-5.651-.932.537-.706.4-6.16-3.56.777-.466,1.06-.636c.283-.17.692-.381,1.215-.636s1-.466,1.413-.622a12.607,12.607,0,0,1,1.413-.452,7.063,7.063,0,0,1,1.526-.226,6.61,6.61,0,0,1,1.413.127,4.579,4.579,0,0,1,1.413.537,3.092,3.092,0,0,1,.848.692,1.073,1.073,0,0,1,.226.763,2.823,2.823,0,0,1-.2.749,2.458,2.458,0,0,1-.607.763c-.3.283-.579.537-.819.735a8.131,8.131,0,0,1-.989.692Zm14.438,1.95a4.582,4.582,0,0,1-.537.791,6.6,6.6,0,0,1-.833.805q-.523.438-.975.763c-.3.212-.65.452-1.088.721s-.777.494-1.031.636l-.975.551-.763.424-6.781-3.913.932-.565,1.271-.763c.339-.2.819-.452,1.413-.763a17.776,17.776,0,0,1,1.667-.763c.48-.184,1.031-.353,1.681-.537a7.879,7.879,0,0,1,1.766-.311,7.484,7.484,0,0,1,1.667.1,4.918,4.918,0,0,1,1.582.565,2.515,2.515,0,0,1,.834.706,1.535,1.535,0,0,1,.17,1.611Z" transform="translate(168.598 116.199)" fill="#cc8b09"/>
      <path id="Path_2958" data-name="Path 2958" d="M444.12,265.038a13.844,13.844,0,0,0-5.58.833q1.413-2.6-2.557-4.507a9.891,9.891,0,0,0-3.023-.9,10.723,10.723,0,0,0-3.221,0,18.035,18.035,0,0,0-3.179.791,27.323,27.323,0,0,0-3.263,1.413l-5.058-2.924-3.094,1.78,4.916,2.826c-.537.311-1.342.777-2.416,1.413l-4.959-2.826-3.094,1.78,5.072,2.924-1.935,1.13-4.238,2.458,3.292,1.893,2.232-1.286a3.461,3.461,0,0,1,3.15-.24l5.764,3.32.353-.17-.325.184,8.067,4.662c.579.452.537.876-.141,1.271l-2.218,1.286,3.052,2.472,4.012-2.317,1.116-.636,1.088-.622,5.128,2.967,3.094-1.794-5.058-2.91,2.458-1.413,5.044,2.91,3-1.766-5.114-2.953a29.375,29.375,0,0,0,2.614-1.865,10.48,10.48,0,0,0,1.752-1.808,3.687,3.687,0,0,0,.777-1.808,2.952,2.952,0,0,0-.495-1.78A6.754,6.754,0,0,0,449.262,267,10.341,10.341,0,0,0,444.12,265.038Zm-22.788,2.826.777-.466,1.06-.636c.283-.17.692-.4,1.215-.65s1-.466,1.413-.622a12.822,12.822,0,0,1,1.413-.438,6.3,6.3,0,0,1,1.526-.24,6.668,6.668,0,0,1,1.413.141,4.549,4.549,0,0,1,1.413.523,3.123,3.123,0,0,1,.848.706,1.017,1.017,0,0,1,.226.749,2.658,2.658,0,0,1-.2.749,2.487,2.487,0,0,1-.607.777c-.3.283-.579.523-.819.721a9.892,9.892,0,0,1-.989.706l-.961.607-.932.537-.706.4-6.16-3.56Zm22.11,3.009a1.346,1.346,0,0,1,.127,1.554,4.7,4.7,0,0,1-.537.805,6.6,6.6,0,0,1-.833.805,11.4,11.4,0,0,1-.975.749l-1.088.735-1.031.622-.975.551-.763.424-6.781-3.913.932-.565,1.271-.763,1.413-.763a17.359,17.359,0,0,1,1.667-.749c.48-.184,1.031-.367,1.681-.551a8.785,8.785,0,0,1,1.766-.311,6.766,6.766,0,0,1,1.667.113,4.6,4.6,0,0,1,1.582.565A2.5,2.5,0,0,1,443.442,270.873Z" transform="translate(168.611 115.733)" fill="#f9ca06"/>
      <path id="Path_2959" data-name="Path 2959" d="M70.907,430.233,5.045,392.187c-7.473-4.309-6.541-11.825,2.091-16.812l33.44-19.312c8.618-4.973,21.672-5.524,29.131-1.2l65.919,38.031c7.473,4.309,6.527,11.839-2.091,16.812l-33.482,19.312C91.421,433.962,78.381,434.542,70.907,430.233Z" transform="translate(0.003 153.791)" fill="#d6d8e5" opacity="0.4" style="isolation: isolate"/>
      <path id="Path_2960" data-name="Path 2960" d="M161.291,405.259V313.3L20.722,297.48v92.564h0c-.113,2.826,1.526,5.51,5,7.53l65.863,38.017c7.459,4.323,20.513,3.772,29.131-1.2l33.44-19.3c4.86-2.826,7.276-6.414,7.191-9.8Z" transform="translate(8.554 131.31)" fill="#d6d8e5"/>
      <path id="Path_2962" data-name="Path 2962" d="M91.594,352.575,25.732,314.558c-7.459-4.323-6.527-11.839,2.091-16.826l33.44-19.3c8.632-4.973,21.672-5.524,29.131-1.215l65.863,38.031c7.473,4.238,6.527,11.839-2.091,16.826L120.725,351.4C112.107,356.39,99.054,356.884,91.594,352.575Z" transform="translate(8.546 121.748)" fill="#e2e5f2"/>
    </g>
  </g>
</svg>
