<svg xmlns="http://www.w3.org/2000/svg" width="36.373" height="36.373" viewBox="0 0 36.373 36.373">
  <path id="Icon_simple-instagram" data-name="Icon simple-instagram" d="M18.187,0c-4.941,0-5.557.023-7.5.109A13.41,13.41,0,0,0,6.274.955a8.906,8.906,0,0,0-3.222,2.1,8.874,8.874,0,0,0-2.1,3.222,13.371,13.371,0,0,0-.846,4.415C.018,12.629,0,13.246,0,18.187s.023,5.557.109,7.5A13.419,13.419,0,0,0,.955,30.1a8.919,8.919,0,0,0,2.1,3.222,8.893,8.893,0,0,0,3.222,2.1,13.427,13.427,0,0,0,4.415.846c1.94.091,2.557.109,7.5.109s5.557-.023,7.5-.109a13.458,13.458,0,0,0,4.415-.846,9.294,9.294,0,0,0,5.32-5.32,13.419,13.419,0,0,0,.846-4.415c.091-1.94.109-2.557.109-7.5s-.023-5.557-.109-7.5a13.45,13.45,0,0,0-.846-4.415,8.926,8.926,0,0,0-2.1-3.222A8.861,8.861,0,0,0,30.1.955,13.379,13.379,0,0,0,25.684.109C23.744.018,23.127,0,18.187,0Zm0,3.274c4.854,0,5.433.024,7.35.108a10.02,10.02,0,0,1,3.375.629,5.985,5.985,0,0,1,3.452,3.451,10.041,10.041,0,0,1,.626,3.375c.086,1.919.106,2.495.106,7.35s-.023,5.433-.112,7.35a10.235,10.235,0,0,1-.638,3.375,5.775,5.775,0,0,1-1.362,2.094,5.674,5.674,0,0,1-2.091,1.358,10.115,10.115,0,0,1-3.387.626c-1.931.086-2.5.106-7.364.106s-5.435-.023-7.364-.112a10.312,10.312,0,0,1-3.389-.638A5.632,5.632,0,0,1,5.3,30.984a5.522,5.522,0,0,1-1.364-2.091A10.321,10.321,0,0,1,3.3,25.505c-.068-1.91-.092-2.5-.092-7.341S3.23,12.729,3.3,10.8a10.309,10.309,0,0,1,.637-3.386A5.391,5.391,0,0,1,5.3,5.318a5.379,5.379,0,0,1,2.09-1.361,10.066,10.066,0,0,1,3.366-.638c1.932-.068,2.5-.091,7.364-.091l.068.045Zm0,5.574a9.339,9.339,0,1,0,9.339,9.339A9.338,9.338,0,0,0,18.187,8.848Zm0,15.4a6.062,6.062,0,1,1,6.062-6.062A6.061,6.061,0,0,1,18.187,24.249ZM30.077,8.479A2.182,2.182,0,1,1,27.9,6.3,2.184,2.184,0,0,1,30.077,8.479Z" fill="#053888"/>
</svg>
