<svg id="_027---Email-Tick" data-name="027---Email-Tick" xmlns="http://www.w3.org/2000/svg" width="118" height="118" viewBox="0 0 118 118">
  <path id="Path" d="M109.862,19.28l5.066,4.008A8.162,8.162,0,0,1,118,29.656V89.917a8.138,8.138,0,0,1-8.138,8.138H8.138A8.138,8.138,0,0,1,0,89.917V29.656a8.162,8.162,0,0,1,3.072-6.368L8.138,19.28Z" transform="translate(0 19.945)" fill="#f29c1f" fill-rule="evenodd"/>
  <path id="Path-2" data-name="Path" d="M4,97.126V4.069A4.081,4.081,0,0,1,8.069,0h93.586a4.081,4.081,0,0,1,4.069,4.069V95.011Z" transform="translate(4.138)" fill="#ecf0f1" fill-rule="evenodd"/>
  <circle id="Oval" cx="28.5" cy="28.5" r="28.5" transform="translate(30 8)" fill="#4fba6f"/>
  <path id="Path-3" data-name="Path" d="M32.181,40.508A4.049,4.049,0,0,1,29.3,39.316l-8.138-8.138a4.069,4.069,0,0,1,5.754-5.754l5.261,5.259L49.65,13.218A4.069,4.069,0,1,1,55.4,18.971L35.058,39.316a4.049,4.049,0,0,1-2.877,1.192Z" transform="translate(20.715 12.388)" fill="#ecf0f1" fill-rule="evenodd"/>
  <path id="Path-4" data-name="Path" d="M78.886,24.91V84.093a8.024,8.024,0,0,1-2.706,6.042L37.81,60.31Z" transform="translate(39.114 25.769)" fill="#f0c419" fill-rule="evenodd"/>
  <path id="Path-5" data-name="Path" d="M113.919,78.661a8.105,8.105,0,0,1-5.432,2.1H6.762a8.105,8.105,0,0,1-5.432-2.1L39.7,48.835,55.1,36.872a4.093,4.093,0,0,1,5.046,0l15.4,11.963Z" transform="translate(1.376 37.244)" fill="#f3d55b" fill-rule="evenodd"/>
  <path id="Path-6" data-name="Path" d="M41.076,60.31,2.706,90.136A8.024,8.024,0,0,1,0,84.093V24.91Z" transform="translate(0 25.769)" fill="#f0c419" fill-rule="evenodd"/>
</svg>
