<svg xmlns="http://www.w3.org/2000/svg" width="76" height="67" viewBox="0 0 76 67">
  <path id="Polygon_18" data-name="Polygon 18" d="M48.26,7.7a4,4,0,0,1,6.576,3.744l-1.948,10.3a4,4,0,0,0,2.6,4.515L65.3,29.728a4,4,0,0,1,0,7.545l-9.814,3.461a4,4,0,0,0-2.6,4.515l1.948,10.3A4,4,0,0,1,48.26,59.3l-7.615-6.713a4,4,0,0,0-5.29,0L27.74,59.3a4,4,0,0,1-6.576-3.744l1.948-10.3a4,4,0,0,0-2.6-4.515L10.7,37.272a4,4,0,0,1,0-7.545l9.814-3.461a4,4,0,0,0,2.6-4.515l-1.948-10.3A4,4,0,0,1,27.74,7.7l7.615,6.713a4,4,0,0,0,5.29,0Z" fill="#32f5df"/>
</svg>
