<svg xmlns="http://www.w3.org/2000/svg" width="40" height="40" viewBox="0 0 40 40">
  <g id="loading" opacity="0.5">
    <path id="Path_1142" data-name="Path 1142" d="M226.121,8.132A2.084,2.084,0,0,1,224,6.011V2.121a2.121,2.121,0,0,1,4.243,0V6.011A2.128,2.128,0,0,1,226.121,8.132Z" transform="translate(-206.121)" fill="#fff"/>
    <path id="Path_1143" data-name="Path 1143" d="M226.121,412.132A2.084,2.084,0,0,1,224,410.011v-3.889a2.121,2.121,0,0,1,4.243,0v3.889A2.084,2.084,0,0,1,226.121,412.132Z" transform="translate(-206.121 -372.132)" fill="#fff"/>
    <path id="Path_1144" data-name="Path 1144" d="M116.164,38.1a2.131,2.131,0,0,1-1.839-1.061l-1.909-3.324a2.123,2.123,0,1,1,3.677-2.121L118,34.917a2.165,2.165,0,0,1-.778,2.9A2.622,2.622,0,0,1,116.164,38.1Z" transform="translate(-103.243 -27.846)" fill="#fff"/>
    <path id="Path_1145" data-name="Path 1145" d="M318.564,387.7a2.131,2.131,0,0,1-1.839-1.061l-1.909-3.324a2.123,2.123,0,0,1,3.677-2.121l1.909,3.324a2.165,2.165,0,0,1-.778,2.9A2,2,0,0,1,318.564,387.7Z" transform="translate(-289.575 -350.387)" fill="#fff"/>
    <path id="Path_1146" data-name="Path 1146" d="M35.978,118.285A2,2,0,0,1,34.917,118l-3.324-1.909a2.123,2.123,0,1,1,2.121-3.677l3.324,1.909a2.165,2.165,0,0,1,.778,2.9A2.131,2.131,0,0,1,35.978,118.285Z" transform="translate(-27.846 -103.243)" fill="#fff"/>
    <path id="Path_1147" data-name="Path 1147" d="M385.649,320.685a2,2,0,0,1-1.061-.283l-3.394-1.909a2.123,2.123,0,0,1,2.121-3.677l3.324,1.909a2.165,2.165,0,0,1,.778,2.9A1.944,1.944,0,0,1,385.649,320.685Z" transform="translate(-350.387 -289.576)" fill="#fff"/>
    <path id="Path_1148" data-name="Path 1148" d="M6.011,228.243H2.121a2.121,2.121,0,0,1,0-4.243H6.011a2.084,2.084,0,0,1,2.121,2.121A2.128,2.128,0,0,1,6.011,228.243Z" transform="translate(0 -206.121)" fill="#fff"/>
    <path id="Path_1149" data-name="Path 1149" d="M410.011,228.243h-3.889a2.121,2.121,0,0,1,0-4.243h3.889a2.121,2.121,0,0,1,0,4.243Z" transform="translate(-372.132 -206.121)" fill="#fff"/>
    <path id="Path_1150" data-name="Path 1150" d="M31.854,320.685a2.131,2.131,0,0,1-1.839-1.061,2.165,2.165,0,0,1,.778-2.9l3.324-1.909a2.123,2.123,0,1,1,2.121,3.677L32.915,320.4A1.7,1.7,0,0,1,31.854,320.685Z" transform="translate(-27.116 -289.576)" fill="#fff"/>
    <path id="Path_1151" data-name="Path 1151" d="M382.254,118.285a2.131,2.131,0,0,1-1.839-1.061,2.165,2.165,0,0,1,.778-2.9l3.324-1.909a2.123,2.123,0,0,1,2.121,3.677L383.315,118A2,2,0,0,1,382.254,118.285Z" transform="translate(-350.387 -103.243)" fill="#fff"/>
    <path id="Path_1152" data-name="Path 1152" d="M114.254,387.7a2,2,0,0,1-1.061-.283,2.165,2.165,0,0,1-.778-2.9l1.909-3.324A2.123,2.123,0,0,1,118,383.315l-1.909,3.324A2.131,2.131,0,0,1,114.254,387.7Z" transform="translate(-103.243 -350.387)" fill="#fff"/>
    <path id="Path_1153" data-name="Path 1153" d="M316.654,38.1a2,2,0,0,1-1.061-.283,2.165,2.165,0,0,1-.778-2.9l1.909-3.324a2.123,2.123,0,1,1,3.677,2.121l-1.909,3.324A2.3,2.3,0,0,1,316.654,38.1Z" transform="translate(-289.575 -27.846)" fill="#fff"/>
  </g>
</svg>
