<svg xmlns="http://www.w3.org/2000/svg" width="122.877" height="122.877" viewBox="0 0 122.877 122.877">
  <path id="Icon_metro-facebook" data-name="Icon metro-facebook" d="M104.97,1.928H23.048A20.479,20.479,0,0,0,2.571,22.41v81.913A20.479,20.479,0,0,0,23.048,124.8H64.009V71.046H48.649V55.687h15.36V44.167a19.2,19.2,0,0,1,19.2-19.2h19.2v15.36h-19.2a3.84,3.84,0,0,0-3.84,3.84v11.52h21.119l-3.84,15.36H79.369V124.8h25.6a20.479,20.479,0,0,0,20.477-20.482V22.41A20.479,20.479,0,0,0,104.97,1.928Z" transform="translate(-2.571 -1.928)"/>
</svg>
