<svg xmlns="http://www.w3.org/2000/svg" width="392.09" height="475" viewBox="0 0 392.09 475">
  <g id="Group_379" data-name="Group 379" transform="translate(-764 -215)">
    <text id="_404" data-name="404" transform="translate(960 658)" fill="#2e4ae7" font-size="150" font-family="Arial-BoldMT, Arial" font-weight="700"><tspan x="-125.134" y="0">404</tspan></text>
    <g id="Rocket-rafiki_1_" data-name="Rocket-rafiki (1)" transform="translate(707.89 111)">
      <g id="freepik--background-simple--inject-49">
        <path id="Path_985" data-name="Path 985" d="M331,110.69c21-.18,39.66,14.86,46.6,34.27,10.07,28.17-8,52.6-22.52,75.18-10.88,17-20.45,36.07-19.09,56.77,1.37,21,12.78,39.74,14.86,60.62,1.65,16.56-6,33.75-18.58,44.44-17.8,15.13-44.53,16.43-64.3,4.33-21.73-13.3-31.76-38.44-51.23-54.21-23-18.65-53.24-21.39-80.49-30.27-24.5-8-46-29.81-46.5-56.7-.42-24.57,15.94-45.46,36.88-56.7,23.36-12.53,50-8.78,75.35-8.26,11.33.23,23.78-.47,34.68-4.95,12.12-5,20.14-15.06,28.32-24.8,10.49-12.48,23.08-24.91,37.72-32.43a64.09,64.09,0,0,1,28.3-7.29Z" fill="#2e4ae7"/>
        <path id="Path_986" data-name="Path 986" d="M331,110.69c21-.18,39.66,14.86,46.6,34.27,10.07,28.17-8,52.6-22.52,75.18-10.88,17-20.45,36.07-19.09,56.77,1.37,21,12.78,39.74,14.86,60.62,1.65,16.56-6,33.75-18.58,44.44-17.8,15.13-44.53,16.43-64.3,4.33-21.73-13.3-31.76-38.44-51.23-54.21-23-18.65-53.24-21.39-80.49-30.27-24.5-8-46-29.81-46.5-56.7-.42-24.57,15.94-45.46,36.88-56.7,23.36-12.53,50-8.78,75.35-8.26,11.33.23,23.78-.47,34.68-4.95,12.12-5,20.14-15.06,28.32-24.8,10.49-12.48,23.08-24.91,37.72-32.43a64.09,64.09,0,0,1,28.3-7.29Z" fill="#fff" opacity="0.9" style="isolation: isolate"/>
      </g>
      <g id="freepik--Shadow--inject-49">
        <ellipse id="freepik--path--inject-49" cx="193.89" cy="11.32" rx="193.89" ry="11.32" transform="translate(56.11 404.92)" fill="#f5f5f5"/>
      </g>
      <g id="freepik--Satelite--inject-49">
        <path id="Path_987" data-name="Path 987" d="M405.99,353.04l13.87-8.94-4.3,11.74H405.19Z" fill="#263238"/>
        <path id="Path_988" data-name="Path 988" d="M405.99,353.04l13.87-8.94-4.3,11.74H405.19Z" fill="#fff" opacity="0.2"/>
        <path id="Path_989" data-name="Path 989" d="M406.27,353.17l13.44-8.66-4.15,11.33H405.44Z" fill="#fff" opacity="0.4"/>
        <path id="Path_990" data-name="Path 990" d="M419.89,361.27l10.69-25.03h-6.86l-9.85,25.49Z" fill="#263238"/>
        <path id="Path_991" data-name="Path 991" d="M419.89,361.27l10.69-25.03h-6.86l-9.85,25.49Z" fill="#fff" opacity="0.2"/>
        <path id="Path_992" data-name="Path 992" d="M419.89,361.27l10.6-24.82h-6.66l-9.75,25.26Z" fill="#fff" opacity="0.4"/>
        <path id="Path_993" data-name="Path 993" d="M420.31,361.18l10.61-25.1,5.92-.15-10.21,24.35Z" fill="#263238"/>
        <path id="Path_994" data-name="Path 994" d="M420.31,361.18l10.61-25.1,5.92-.15-10.21,24.35Z" fill="#fff" opacity="0.2"/>
        <path id="Path_995" data-name="Path 995" d="M420.43,361.16l10.65-24.92,5.7-.16-10.15,24.2Z" fill="#fff" opacity="0.4"/>
        <path id="Path_996" data-name="Path 996" d="M437.18,335.78l5.68-.12-10.18,23.61-5.68.82Z" fill="#263238"/>
        <path id="Path_997" data-name="Path 997" d="M437.18,335.78l5.68-.12-10.18,23.61-5.68.82Z" fill="#fff" opacity="0.2"/>
        <path id="Path_998" data-name="Path 998" d="M437.28,335.93l5.53-.16-10.13,23.5-5.55.8Z" fill="#fff" opacity="0.4"/>
        <path id="Path_999" data-name="Path 999" d="M443.22,335.66l4.98-.15-9.78,22.93-5.44.8Z" fill="#263238"/>
        <path id="Path_1000" data-name="Path 1000" d="M443.22,335.66l4.98-.15-9.78,22.93-5.44.8Z" fill="#fff" opacity="0.2"/>
        <path id="Path_1001" data-name="Path 1001" d="M443.33,335.77l4.84-.18-9.75,22.85-5.28.77Z" fill="#fff" opacity="0.4"/>
        <path id="Path_1002" data-name="Path 1002" d="M400.17,355.92l-8.75,24.07,16.37-4.54,8.1-23.33Z" fill="#2e4ae7"/>
        <path id="Path_1003" data-name="Path 1003" d="M400.17,355.92l-8.75,24.07,16.37-4.54,8.1-23.33Z" opacity="0.2"/>
        <path id="Path_1004" data-name="Path 1004" d="M377.32,342.56l22.85,13.36-8.75,24.07-22.27-14.8Z" fill="#2e4ae7"/>
        <path id="Path_1005" data-name="Path 1005" d="M377.32,342.56l22.85,13.36-8.75,24.07-22.27-14.8Z" opacity="0.05"/>
        <path id="Path_1006" data-name="Path 1006" d="M377.32,342.56l16.86-1.3,21.71,10.86-15.72,3.8Z" fill="#2e4ae7"/>
        <path id="Path_1007" data-name="Path 1007" d="M377.32,342.56l16.86-1.3,21.71,10.86-15.72,3.8Z" fill="#fff" opacity="0.4"/>
        <path id="Path_1008" data-name="Path 1008" d="M406.42,333.64l.64.33-5.43,14.59-.81-.25Z" fill="#263238"/>
        <path id="Path_1009" data-name="Path 1009" d="M406.42,333.64l.25.13-5.58,14.62-.27-.08Z" fill="#fff" opacity="0.4"/>
        <path id="Path_1010" data-name="Path 1010" d="M407.06,333.97l-.39-.2-5.58,14.62.54.17Z" fill="#fff" opacity="0.2"/>
        <path id="Path_1011" data-name="Path 1011" d="M327.66,339.96,316.4,376.58l12.96-2.02,11.43-35.08Z" fill="#263238"/>
        <path id="Path_1012" data-name="Path 1012" d="M327.66,339.96,316.4,376.58l12.96-2.02,11.43-35.08Z" fill="#fff" opacity="0.2"/>
        <path id="Path_1013" data-name="Path 1013" d="M327.86,340.17l-11.18,36.37,12.68-1.98,11.33-34.79Z" fill="#fff" opacity="0.4"/>
        <path id="Path_1014" data-name="Path 1014" d="M341.35,339.48l-11.26,35.08,12.23-1.79,11.18-33.78Z" fill="#263238"/>
        <path id="Path_1015" data-name="Path 1015" d="M341.35,339.48l-11.26,35.08,12.23-1.79,11.18-33.78Z" fill="#fff" opacity="0.2"/>
        <path id="Path_1016" data-name="Path 1016" d="M341.56,339.77l-11.18,34.74,11.94-1.74,11.12-33.57Z" fill="#fff" opacity="0.4"/>
        <path id="Path_1017" data-name="Path 1017" d="M353.99,339l-11.14,33.49,11.14-1.42,11.14-32.36Z" fill="#263238"/>
        <path id="Path_1018" data-name="Path 1018" d="M353.99,339l-11.14,33.49,11.14-1.42,11.14-32.36Z" fill="#fff" opacity="0.2"/>
        <path id="Path_1019" data-name="Path 1019" d="M354.14,339.2l-10.99,33.25,10.84-1.38,11.04-32.08Z" fill="#fff" opacity="0.4"/>
        <path id="Path_1020" data-name="Path 1020" d="M365.58,338.42l-11.26,32.49,10.57-1.5,10.93-31.35Z" fill="#263238"/>
        <path id="Path_1021" data-name="Path 1021" d="M365.58,338.42l-11.26,32.49,10.57-1.5,10.93-31.35Z" fill="#fff" opacity="0.2"/>
        <path id="Path_1022" data-name="Path 1022" d="M365.7,338.63l-11.13,32.25,10.32-1.47,10.86-31.15Z" fill="#fff" opacity="0.4"/>
        <path id="Path_1023" data-name="Path 1023" d="M385.49,355.6l-1.33,3.85-16.48,3.28,5.76-16.04Z" fill="#263238"/>
        <path id="Path_1024" data-name="Path 1024" d="M385.49,355.6l-1.33,3.85-16.48,3.28,5.76-16.04Z" fill="#fff" opacity="0.2"/>
        <path id="Path_1025" data-name="Path 1025" d="M385.37,355.92l-1.21,3.53-16.18,3.22,5.58-15.66Z" fill="#fff" opacity="0.4"/>
        <path id="Path_1026" data-name="Path 1026" d="M416.25,353.81l-15.71,29.27c-4.2-2-4.23-13.91-1.1-20.75C403.31,355.69,411.9,352.43,416.25,353.81Z" fill="#263238"/>
        <g id="Group_372" data-name="Group 372" opacity="0.2">
          <path id="Path_1027" data-name="Path 1027" d="M401.8,380.72l-.68,1.27c-3.89-3.67-3.56-14.19-1.68-19.66C396.48,374.06,401.8,380.72,401.8,380.72Z"/>
        </g>
        <g id="Group_373" data-name="Group 373" opacity="0.3">
          <path id="Path_1028" data-name="Path 1028" d="M416.25,353.81l-15.71,29.27c-4.2-2-4.23-13.91-1.1-20.75C403.31,355.69,411.9,352.43,416.25,353.81Z" fill="#fff"/>
        </g>
        <path id="Path_1029" data-name="Path 1029" d="M400.42,361.42c6.21-5.42,10.63-6.27,14.52-5.17l.63-1.18C410.76,354.47,406.27,355.63,400.42,361.42Z" fill="#fff" opacity="0.2"/>
        <path id="Path_1030" data-name="Path 1030" d="M402.33,364.87c-4.6,8-5.62,16-2.28,17.92s9.77-3,14.37-10.94,5.62-16,2.28-17.91S406.93,356.91,402.33,364.87Z" fill="#2e4ae7"/>
        <path id="Path_1031" data-name="Path 1031" d="M402.33,364.87c-4.6,8-5.62,16-2.28,17.92s9.77-3,14.37-10.94,5.62-16,2.28-17.91S406.93,356.91,402.33,364.87Z" fill="#fff" opacity="0.4"/>
        <path id="Path_1032" data-name="Path 1032" d="M402.35,364.57a29.631,29.631,0,0,0-2.21,4.94,3.14,3.14,0,0,0,1.12,3.67c1.6.92,4.69-1.43,6.9-5.25s2.7-7.68,1.1-8.61c-.94-.54-2.75-.19-4.06,1.31a26.319,26.319,0,0,0-2.85,3.94Z" opacity="0.2"/>
        <path id="Path_1033" data-name="Path 1033" d="M410.76,367.28l-4.18-1.69L404.21,363a2.48,2.48,0,0,0-1.71,2.77l3.22,1.06,3.2,3.61Z" fill="#263238"/>
        <path id="Path_1034" data-name="Path 1034" d="M410.76,367.28l-4.18-1.69L404.21,363a2.48,2.48,0,0,0-1.71,2.77l3.22,1.06,3.2,3.61Z" fill="#fff" opacity="0.2"/>
        <path id="Path_1035" data-name="Path 1035" d="M409.17,368.49c-.51.89-.62,1.77-.25,2s1.08-.33,1.59-1.21.62-1.77.25-2S409.68,367.61,409.17,368.49Z" fill="#263238"/>
        <path id="Path_1036" data-name="Path 1036" d="M409.17,368.49c-.51.89-.62,1.77-.25,2s1.08-.33,1.59-1.21.62-1.77.25-2S409.68,367.61,409.17,368.49Z" fill="#fff" opacity="0.4"/>
        <path id="Path_1037" data-name="Path 1037" d="M402.87,364.06a3.07,3.07,0,0,0-.37,1.75l3.22,1.06,3.2,3.61c-.4-.3-.12-1.5.34-2.13C409.26,368.35,408,367.56,402.87,364.06Z" opacity="0.2"/>
        <path id="Path_1038" data-name="Path 1038" d="M410.48,367.25l-4.01-1.51-2.49-2.61-.16.06,2.58,2.58,3.85,1.56Z" fill="#fff" opacity="0.2"/>
        <g id="Group_374" data-name="Group 374" opacity="0.2">
          <path id="Path_1039" data-name="Path 1039" d="M409.37,368.61c-.43.75-.53,1.51-.22,1.69s.93-.28,1.36-1,.53-1.51.22-1.7S409.8,367.85,409.37,368.61Z"/>
          <path id="Path_1040" data-name="Path 1040" d="M409.37,368.61c-.43.75-.53,1.51-.22,1.69s.93-.28,1.36-1,.53-1.51.22-1.7S409.8,367.85,409.37,368.61Z" opacity="0.4"/>
        </g>
        <path id="Path_1041" data-name="Path 1041" d="M402.75,380.94l.2.32,11.46-5.59-.15-.3Z" fill="#263238"/>
        <path id="Path_1042" data-name="Path 1042" d="M402.75,380.94l.2.32,11.46-5.59-.15-.3Z" fill="#fff" opacity="0.1"/>
        <path id="Path_1043" data-name="Path 1043" d="M417.71,359.69h.3l.32,10.04h-.4Z" fill="#263238"/>
        <path id="Path_1044" data-name="Path 1044" d="M417.71,359.69h.3l.32,10.04h-.4Z" fill="#fff" opacity="0.1"/>
        <path id="Path_1045" data-name="Path 1045" d="M404.26,362.14l14.07,7.59-.17.23L404,362.4Z" fill="#263238"/>
        <path id="Path_1046" data-name="Path 1046" d="M404.26,362.14l14.07,7.59-.17.23L404,362.4Z" fill="#fff" opacity="0.1"/>
        <path id="Path_1047" data-name="Path 1047" d="M403.65,363.11l.24-.3,10.62,12.42-.16.24Z" fill="#263238"/>
        <path id="Path_1048" data-name="Path 1048" d="M403.65,363.11l.24-.3,10.62,12.42-.16.24Z" fill="#fff" opacity="0.1"/>
        <path id="Path_1049" data-name="Path 1049" d="M415.1,372.19c-1,1.79-1.26,3.59-.51,4s2.2-.66,3.23-2.45,1.26-3.59.51-4S416.14,370.4,415.1,372.19Z" fill="#263238"/>
        <path id="Path_1050" data-name="Path 1050" d="M415.1,372.19c-1,1.79-1.26,3.59-.51,4s2.2-.66,3.23-2.45,1.26-3.59.51-4S416.14,370.4,415.1,372.19Z" fill="#fff" opacity="0.2"/>
        <path id="Path_1051" data-name="Path 1051" d="M415.38,372.35c-.93,1.61-1.13,3.22-.46,3.61s2-.6,2.9-2.2,1.13-3.23.46-3.62S416.31,370.74,415.38,372.35Z" opacity="0.1"/>
        <path id="Path_1052" data-name="Path 1052" d="M384.16,359.45l-15.01,5.74,1.1-3.05Z" opacity="0.2"/>
      </g>
      <g id="freepik--planet-2--inject-49">
        <circle id="Ellipse_19" data-name="Ellipse 19" cx="26.63" cy="26.63" r="26.63" transform="translate(370.6 104)" fill="#2e4ae7"/>
        <circle id="Ellipse_20" data-name="Ellipse 20" cx="26.63" cy="26.63" r="26.63" transform="translate(370.6 104)" fill="#fff" opacity="0.4"/>
        <circle id="Ellipse_21" data-name="Ellipse 21" cx="26.63" cy="26.63" r="26.63" transform="translate(370.6 104)" fill="#fff" opacity="0.4"/>
        <path id="Path_1053" data-name="Path 1053" d="M373.77,118c-.6,3,1.48,4.26,6.05,4a78.16,78.16,0,0,0,31.09-8.38c2.12-1.45,2.33-3.1,1.53-4.86,12.93,10.27,13.83,24,8.2,34.55a10.65,10.65,0,0,1-5.81,4.33,82.37,82.37,0,0,1-21.52,5.27c-6.83,1-10.84.55-12.38-1.23C369.28,142.65,368.3,128.8,373.77,118Z" fill="#fff" opacity="0.2"/>
        <path id="Path_1054" data-name="Path 1054" d="M370.6,130.63A25.23,25.23,0,0,0,375,145c1.4,2,5.93,2.4,13,1.41a100.621,100.621,0,0,0,26.79-6.56c4.68-1.84,7.78-4.19,9.11-7.14a27,27,0,0,0-2.72-13.7c-.41,3.68-2.93,6.73-8,9a136.589,136.589,0,0,1-30.73,7.59C375.76,136.37,371.15,135.27,370.6,130.63Z" fill="#fff" opacity="0.2"/>
        <path id="Path_1055" data-name="Path 1055" d="M386.52,107.19a40.11,40.11,0,0,1,7.86-2.15c3.53-.36,4.14.24,3.75,1.17a12,12,0,0,1-3.66,2.56,22.221,22.221,0,0,1-6.7,1.73c-1.61.07-3.32.11-4.29-.63C383,109,384.44,108.08,386.52,107.19Z" opacity="0.1"/>
        <path id="Path_1056" data-name="Path 1056" d="M440.24,117.55c-1.33-4.1-10.08-5.25-22.29-3.64a23.649,23.649,0,0,1,2.82,4.26h0c4.37.17,7.26,1.21,7.89,3.14,1.54,4.77-11.27,13.19-28.62,18.8s-32.66,6.31-34.2,1.54c-.67-2,.94-4.47,4.78-7.35-.05,0,.27-.21.22-.18a27.243,27.243,0,0,1-.18-5c-11.14,5.94-17.78,12.13-16.43,16.29,2.12,6.53,23.09,5.59,46.85-2.11S442.36,124.08,440.24,117.55Z" fill="#2e4ae7"/>
        <path id="Path_1057" data-name="Path 1057" d="M440.24,117.55c-1.33-4.1-10.08-5.25-22.29-3.64a23.649,23.649,0,0,1,2.82,4.26h0c4.37.17,7.26,1.21,7.89,3.14,1.54,4.77-11.27,13.19-28.62,18.8s-32.66,6.31-34.2,1.54c-.67-2,.94-4.47,4.78-7.35-.05,0,.27-.21.22-.18a27.243,27.243,0,0,1-.18-5c-11.14,5.94-17.78,12.13-16.43,16.29,2.12,6.53,23.09,5.59,46.85-2.11S442.36,124.08,440.24,117.55Z" fill="#fff" opacity="0.3"/>
      </g>
      <g id="freepik--planet-1--inject-49">
        <circle id="Ellipse_22" data-name="Ellipse 22" cx="39.01" cy="39.01" r="39.01" transform="translate(58.531 178.563) rotate(-45)" fill="#2e4ae7"/>
        <circle id="Ellipse_23" data-name="Ellipse 23" cx="39.01" cy="39.01" r="39.01" transform="translate(58.531 178.563) rotate(-45)" fill="#fff" opacity="0.4"/>
        <path id="Path_1058" data-name="Path 1058" d="M141.7,181.57l-.89.13a.81.81,0,0,1-.65-.18l-1.44-1.21a1.37,1.37,0,0,0-.2-.13l-4.2-1.81a.82.82,0,0,1-.35-.29l-2.37-3.35a1,1,0,0,0-.42-.35l-1.39-.64a.66.66,0,0,0-.2-.06l-1.47-.22a1.34,1.34,0,0,1-.56-.24l-3.12-2.36a.91.91,0,0,0-.43-.17l-2.29-.3a.83.83,0,0,0-.44.06l-.62.27a.84.84,0,0,1-.66,0l-2.73-1.26a.78.78,0,0,0-.52-.06l-2.42.54a.76.76,0,0,0-.39.24l-1,1.1a.72.72,0,0,1-.69.22l-2-.42-4.21-1.88-1.37-2.14a.79.79,0,0,1-.1-.56l.3-1.66,1-2.38a.14.14,0,0,0-.15-.2l-1.77.21a.73.73,0,0,0-.54.36l-.52.9a.86.86,0,0,1-.55.4l-2.42.54a.45.45,0,0,1-.54-.3l-.3-.91-.74-1.36a.71.71,0,0,1,0-.74l1.2-1.75.47-1.21a.77.77,0,0,1,.31-.38l1.59-1a.85.85,0,0,1,.54-.12l1.51.21a.69.69,0,0,0,.54-.15l.61-.48a.73.73,0,0,1,.38-.14l1.69-.12a.82.82,0,0,1,.4.08l.91.42a.52.52,0,0,1,.29.47V158a.48.48,0,0,0,.48.48h.27a.63.63,0,0,0,.62-.68l-.08-.7-.16-1.42a.66.66,0,0,1,.36-.67l1.62-.81,2.12-2.33,1.44-2.17,2.66-.83a.55.55,0,0,0,.39-.52v-1.3a.51.51,0,0,1,.39-.5l1.76-.43a.68.68,0,0,0,.39-.26l.73-1.08a.29.29,0,0,0-.14-.44l-3.21-1.18-2.35-1.14a.64.64,0,0,0-.64.05l-3,2.09a.74.74,0,0,1-.72.06l-2.17-1-1.63-.75a.18.18,0,0,1,0-.33l1.65-.55a.56.56,0,0,0,.2-.11L112,139.6A38.74,38.74,0,0,0,96,144a72.16,72.16,0,0,0-4.2,15.72.8.8,0,0,0,.25.68l6.14,5.88a.67.67,0,0,0,.4.18l2.28.25a.68.68,0,0,1,.32.11l8.8,5.29a.62.62,0,0,1,.31.61l-.85,8.89a1.45,1.45,0,0,0,.22.95l4.3,6.83a.93.93,0,0,0,.21.23l3.3,2.54a.56.56,0,0,1,.21.53l-1.18,7.22-2.25,11.15c.22,1.5,2.17.58,5-1.52l2.81-4.62,2.47-1,6.32-4.51,4.35-4.93,2.34-5.18a1.14,1.14,0,0,1,.15-.23l2.38-2.73,1.59-1.65a.83.83,0,0,0,.23-.56v-2.38a.17.17,0,0,0-.2-.18Z" opacity="0.2"/>
        <path id="Path_1059" data-name="Path 1059" d="M90.18,161.93Z" fill="#fff"/>
        <path id="Path_1060" data-name="Path 1060" d="M147.73,177.55Z" fill="#fff"/>
        <path id="Path_1061" data-name="Path 1061" d="M150.31,174.26Z" fill="#fff"/>
        <path id="Path_1062" data-name="Path 1062" d="M150.31,174.21v-.01h0Z" fill="#fff"/>
        <path id="Path_1063" data-name="Path 1063" d="M131.08,147.84h-.05a.13.13,0,0,0,0-.06Z" fill="#fff"/>
      </g>
      <g id="freepik--Character--inject-49">
        <path id="Path_1064" data-name="Path 1064" d="M281.61,248.5c3.26,1.72,28.6,30.3,21.84,43.89-5,10-36.25,14.65-36.25,14.65l-3.85-8.53s22.88-8.1,24.23-11.65-24.36-22.45-24.36-22.45Z" fill="#2e4ae7"/>
        <path id="Path_1065" data-name="Path 1065" d="M281.61,248.5c3.26,1.72,28.6,30.3,21.84,43.89-5,10-36.25,14.65-36.25,14.65l-3.85-8.53s22.88-8.1,24.23-11.65-24.36-22.45-24.36-22.45Z" fill="#fff" opacity="0.3"/>
        <path id="Path_1066" data-name="Path 1066" d="M278.13,292.63c-.82,3.32-3.2,5.88-8.06,7.26l3,6.07-.62.13-4.74-9.2Z" opacity="0.2"/>
        <path id="Path_1067" data-name="Path 1067" d="M266.78,295l6.63,12.88-12.77,2.89a1.33,1.33,0,0,0-1,1.7l1.52,4.69a2,2,0,0,1-.85,2.27l-1,.6a1.37,1.37,0,0,1-1.84-.42l-11-16.61a.82.82,0,0,1,.42-1.23Z" fill="#2e4ae7"/>
        <g id="Group_375" data-name="Group 375" opacity="0.2">
          <path id="Path_1068" data-name="Path 1068" d="M266.78,295l6.63,12.88-12.77,2.89a1.33,1.33,0,0,0-1,1.7l1.52,4.69a2,2,0,0,1-.85,2.27l-1,.6a1.37,1.37,0,0,1-1.84-.42l-11-16.61a.82.82,0,0,1,.42-1.23Z" fill="#fff"/>
        </g>
        <path id="Path_1069" data-name="Path 1069" d="M255,299a40.39,40.39,0,0,0,14.38,1l-2.6-5.05Z" opacity="0.2"/>
        <path id="Path_1070" data-name="Path 1070" d="M280.34,278.08l2.1,1.92c2.14-7.73-1.72-15.13-3-25l-1.85.52a101.079,101.079,0,0,1,2.75,22.56Z" opacity="0.2"/>
        <path id="Path_1071" data-name="Path 1071" d="M224.16,331.24,206,338.21l-3.4-26.71,17.94-7.19Z" fill="#2e4ae7"/>
        <path id="Path_1072" data-name="Path 1072" d="M224.16,331.24,206,338.21l-3.4-26.71,17.94-7.19Z" opacity="0.2"/>
        <path id="Path_1073" data-name="Path 1073" d="M212.72,305c10.81-22.13,21.65-38.08,32.57-40.2L328,241c19.84-3,37.74,2.86,53.59,18.18-2.93,24.86-15,37.91-32.32,44.09l-85.54,22.48C255.92,327.69,239.88,321.67,212.72,305Z" fill="#2e4ae7"/>
        <path id="Path_1074" data-name="Path 1074" d="M189.65,307.71,218.78,294c7.62,5,8.43,12.46,6.07,18.34l-29.56,9.73C188.94,318.29,187.64,314.13,189.65,307.71Z" fill="#2e4ae7"/>
        <path id="Path_1075" data-name="Path 1075" d="M169.23,301.11l-11.91,1.07a17,17,0,0,0-9.87,4.31l-36.81,33.28L160.45,344a17,17,0,0,0,7.86-1.19l9.54-3.9a17,17,0,0,0,10.23-12.34l.38-1.86a17,17,0,0,0-.47-8.53l-1.08-3.37a17,17,0,0,0-3.23-5.83h0a17,17,0,0,0-14.45-5.87Z" fill="#2e4ae7"/>
        <path id="Path_1076" data-name="Path 1076" d="M169.23,301.11l-11.91,1.07a17,17,0,0,0-9.87,4.31l-36.81,33.28L160.45,344a17,17,0,0,0,7.86-1.19l9.54-3.9a17,17,0,0,0,10.23-12.34l.38-1.86a17,17,0,0,0-.47-8.53l-1.08-3.37a17,17,0,0,0-3.23-5.83h0a17,17,0,0,0-14.45-5.87Z" fill="#fff" opacity="0.19"/>
        <path id="Path_1077" data-name="Path 1077" d="M176.66,309.59l-6.07.55a8.65,8.65,0,0,0-5,2.19l-18.75,16.95,25.37,2.18a8.68,8.68,0,0,0,4-.61l4.86-2a8.66,8.66,0,0,0,5.21-6.29l.19-.95a8.63,8.63,0,0,0-.23-4.34l-.55-1.72a8.68,8.68,0,0,0-1.65-3h0a8.64,8.64,0,0,0-7.38-2.96Z" fill="#fff" opacity="0.29"/>
        <path id="Path_1078" data-name="Path 1078" d="M179,313.22l-3.8.34a5.44,5.44,0,0,0-3.14,1.38l-11.72,10.6,15.86,1.36a5.52,5.52,0,0,0,2.51-.38l3-1.24a5.42,5.42,0,0,0,3.25-3.94l.12-.59a5.42,5.42,0,0,0-.15-2.71l-.34-1.08a5.43,5.43,0,0,0-1-1.85h0a5.42,5.42,0,0,0-4.59-1.89Z" fill="#2e4ae7"/>
        <path id="Path_1079" data-name="Path 1079" d="M212.72,305c10.81-22.13,21.65-38.08,33.23-40.39l82.65-23.76c19.19-2.85,37.09,3.05,52.94,18.37-2.93,24.86-15,37.91-32.32,44.09l-85.54,22.48C255.92,327.69,239.88,321.67,212.72,305Z" opacity="0.1"/>
        <path id="Path_1080" data-name="Path 1080" d="M189.65,307.71,218.78,294c-1.85,8.05,2.19,14.49,6.07,18.34l-29.56,9.73C188.94,318.29,187.64,314.13,189.65,307.71Z" fill="#2e4ae7"/>
        <path id="Path_1081" data-name="Path 1081" d="M185.14,352.34l27.83-10.63,5.04-33.55-20.83,8.02Z" fill="#2e4ae7"/>
        <path id="Path_1082" data-name="Path 1082" d="M185.14,352.34l27.83-10.63,5.04-33.55-20.83,8.02Z" fill="#fff" opacity="0.3"/>
        <path id="Path_1083" data-name="Path 1083" d="M160.96,285.79l30.33-9.22,24.75,21.83-23.93,9.85Z" fill="#2e4ae7"/>
        <path id="Path_1084" data-name="Path 1084" d="M160.96,285.79l30.33-9.22,24.75,21.83-23.93,9.85Z" fill="#fff" opacity="0.3"/>
        <path id="Path_1085" data-name="Path 1085" d="M315.33,244.67l4.18-1.2a12.15,12.15,0,0,0-5.23,8.68c-3.67,19.32,1.14,37,13.36,52.31,2,2.06,5.27,2.57,8.06,2.4l-3.58.94c-3.78.25-5.53-1-7.72-3-12.31-11.79-17.73-35.29-13.47-52.38C311.71,248.38,313.59,245.17,315.33,244.67Z" fill="#fff" opacity="0.7"/>
        <path id="Path_1086" data-name="Path 1086" d="M305.8,247.41l4-1.15c-2.54,1.1-4.68,5.15-5.23,8.64-3.66,19.32,1.18,36.77,13.36,52.31,1.72,1.91,5.19,2.39,8,2.23l-3.74.95c-3.78.25-5.43-.65-7.48-2.82-12.31-11.79-17.74-35.29-13.48-52.38C301.83,251.16,304.61,247.75,305.8,247.41Z" fill="#fff" opacity="0.7"/>
        <path id="Path_1087" data-name="Path 1087" d="M378.75,257.93c-.77,2.07-.42,3.65,1.53,4.5l25.81-7.8c3.87-1.59,5.3-2.6-.46-1.87Z" fill="#2e4ae7"/>
        <path id="Path_1088" data-name="Path 1088" d="M378.75,257.93c-.77,2.07-.42,3.65,1.53,4.5l25.81-7.8c3.87-1.59,5.3-2.6-.46-1.87Z" opacity="0.3"/>
        <path id="Path_1089" data-name="Path 1089" d="M222.44,309.57c16.57,6,35.21,14.07,43.12,11.69L350,298.81c11.13-1.65,21.36-23.3,29.08-37.18-9,12.78-18.1,31.61-31.33,34.33L265.56,318C256,321.17,237.79,313.59,222.44,309.57Z" opacity="0.2"/>
        <path id="Path_1090" data-name="Path 1090" d="M319.52,245.56a8,8,0,0,0-3.11,4.95l14-3.88c13.19-2.87,36.45,5.83,48,13-10-8.88-34.82-19.62-47-16.69Z" fill="#fff" opacity="0.4"/>
        <path id="Path_1091" data-name="Path 1091" d="M378.65,261.02l1.12,1.15,29.44-9.05Z" opacity="0.3"/>
        <path id="Path_1092" data-name="Path 1092" d="M274.07,256.53l-.72,39.88-28.15.15c14.67,5.65,29.3,7.34,33.11,1.65,6.59-11,6.3-26.14,2-43.49Z" opacity="0.2"/>
        <path id="Path_1093" data-name="Path 1093" d="M280.77,256.48l22.32-6.24a8.35,8.35,0,0,0-1.62,3.74l-20,5.68Z" fill="#e6e6e6" opacity="0.2"/>
        <path id="Path_1094" data-name="Path 1094" d="M255.57,264.68l-11.31,3.61a23,23,0,0,0-7,5.15l-6.12,7.09,4.21.92,5.08-5.92a17.281,17.281,0,0,1,5.57-4.28l10.79-3.83Z" fill="#e0e0e0" opacity="0.2"/>
        <path id="Path_1095" data-name="Path 1095" d="M233.89,211l15.18,11.66,24.47,3.12,15.17-35.08-7.15-9.84-32.49-11.61C240.9,180.87,237.08,195.32,233.89,211Z" fill="#2e4ae7"/>
        <path id="Path_1096" data-name="Path 1096" d="M233.89,211l15.18,11.66,24.47,3.12,15.17-35.08-7.15-9.84-32.49-11.61C242,179.45,237.06,193.65,233.89,211Z" fill="#fff" opacity="0.2"/>
        <path id="Path_1097" data-name="Path 1097" d="M233.89,211l15.18,11.65,15.71-38.82c-5.08-2.91-10.31-7.71-15.71-14.58C242.71,177.59,237.72,191.83,233.89,211Z" opacity="0.3"/>
        <path id="Path_1098" data-name="Path 1098" d="M275.41,248.53c2.06,3,10.82,40.31-1.56,49.09-9.1,6.45-38.87-4.23-38.87-4.23l.63-9.34s24,3.69,26.87,1.2-10.16-25.2-10.85-31.3S275.41,248.53,275.41,248.53Z" fill="#2e4ae7"/>
        <path id="Path_1099" data-name="Path 1099" d="M275.41,248.53c2.06,3,10.82,40.31-1.56,49.09-9.1,6.45-38.87-4.23-38.87-4.23l.63-9.34s24,3.69,26.87,1.2-10.16-25.2-10.85-31.3S275.41,248.53,275.41,248.53Z" fill="#fff" opacity="0.3"/>
        <path id="Path_1100" data-name="Path 1100" d="M246.06,283.75l-.92,14.45-12.45-4.07a1.32,1.32,0,0,0-1.7,1l-1.1,4.8a2,2,0,0,1-1.9,1.51h-1.16a1.37,1.37,0,0,1-1.37-1.3l-.92-19.91a.82.82,0,0,1,1-.84Z" fill="#2e4ae7"/>
        <path id="Path_1101" data-name="Path 1101" d="M297.11,191.64s4.55,22.27,7.66,26.74,19,19.47,19,19.47l-1.5,4.66s-23.86-15.31-25.5-17.46S284,202,284,202Z" fill="#2e4ae7"/>
        <path id="Path_1102" data-name="Path 1102" d="M304.77,166.76s-1.3,6.33-6.2,7.72.08-12.18.08-12.18l4.48-1.1Z" fill="#263238"/>
        <circle id="Ellipse_24" data-name="Ellipse 24" cx="17.8" cy="17.8" r="17.8" transform="translate(266.417 169.537) rotate(-45)" fill="#263238"/>
        <circle id="Ellipse_25" data-name="Ellipse 25" cx="17.8" cy="17.8" r="17.8" transform="translate(266.417 169.537) rotate(-45)" fill="#fff" opacity="0.2"/>
        <path id="Path_1103" data-name="Path 1103" d="M296,183.27a14.8,14.8,0,0,0,9.18-6l-1.37-.81a24.17,24.17,0,0,1-8.84,6Z" fill="#fff" opacity="0.7"/>
        <path id="Path_1104" data-name="Path 1104" d="M305.65,176.33l-1.42-.67a2.81,2.81,0,0,0,.65-1.3l1.33.68a2.19,2.19,0,0,1-.56,1.29Z" fill="#fff" opacity="0.7"/>
        <path id="Path_1105" data-name="Path 1105" d="M278.33,182.74c-1,3.67,9.56,8.83,13.26,5.16-2-1.51-2.52-3.09-2.27-4.63a7.1,7.1,0,0,1,1.09-2.61,12.762,12.762,0,0,1,.92-1.3l-4.5-9.32C285.9,174.14,283.82,183.4,278.33,182.74Z" fill="#e4897b"/>
        <path id="Path_1106" data-name="Path 1106" d="M286.71,174.4c-2,4.57,1,7.69,2.61,8.87a7.1,7.1,0,0,1,1.09-2.61Z" opacity="0.2" style="isolation: isolate"/>
        <path id="Path_1107" data-name="Path 1107" d="M285.22,176.16a7,7,0,0,0,6.65,5.35,7.83,7.83,0,0,0,5.47-1.89,6.432,6.432,0,0,0,.6-.57c3.54-3.76,7-11.33,3.36-16a7.63,7.63,0,0,0-12.94,1.39C285.87,169.46,284.18,172.29,285.22,176.16Z" fill="#e4897b"/>
        <path id="Path_1108" data-name="Path 1108" d="M294.94,170a.69.69,0,0,0,.05,1c.27.15.66,0,.88-.45s.2-.83-.06-1S295.17,169.63,294.94,170Z" fill="#263238"/>
        <path id="Path_1109" data-name="Path 1109" d="M299.39,172.59a.71.71,0,0,0,.06,1c.26.14.65-.06.88-.45s.2-.84-.06-1S299.61,172.21,299.39,172.59Z" fill="#263238"/>
        <path id="Path_1110" data-name="Path 1110" d="M297.87,172a15.79,15.79,0,0,0-.05,4.45,2.63,2.63,0,0,1-2.1-.73Z" fill="#de5753"/>
        <path id="Path_1111" data-name="Path 1111" d="M294.38,167.8a.28.28,0,0,0,.28,0,2.13,2.13,0,0,1,1.92.08.27.27,0,0,0,.3-.44h0a2.64,2.64,0,0,0-2.43-.13.27.27,0,0,0-.15.35h0a.44.44,0,0,0,.08.14Z" fill="#263238"/>
        <path id="Path_1112" data-name="Path 1112" d="M293.91,177.36h0a4.09,4.09,0,0,1-2.5-2.83.15.15,0,0,1,.12-.17.14.14,0,0,1,.16.11h0A3.94,3.94,0,0,0,294,177.1a.13.13,0,0,1,.08.17h0a.14.14,0,0,1-.18.08Z" fill="#263238"/>
        <path id="Path_1113" data-name="Path 1113" d="M302.19,172.15a.22.22,0,0,0,.13.08.26.26,0,0,0,.29-.24h0a2.64,2.64,0,0,0-.93-2.25.26.26,0,0,0-.37.05h0a.27.27,0,0,0,.06.37h0a2.19,2.19,0,0,1,.7,1.8.28.28,0,0,0,.12.19Z" fill="#263238"/>
        <path id="Path_1114" data-name="Path 1114" d="M285.14,167.4c1.1-4.94,2.87-8.55,4.64-9.37s6.15,5.24,6.15,5.24a2,2,0,0,0-3.28,1.16c-.23,2.2-2.74,4.52-4.74,4.94,0,0,.37-.82-.4-1s-2.71,4.1-2.41,6.76C285.1,175.15,284,172.34,285.14,167.4Z" fill="#263238"/>
        <path id="Path_1115" data-name="Path 1115" d="M284,167.23a5.31,5.31,0,0,0,1.31,3.84c1.23,1.39,2.86.53,3.36-1.17.43-1.51.34-4.09-1.32-4.84a2.37,2.37,0,0,0-3.35,2.17Z" fill="#e4897b"/>
        <path id="Path_1116" data-name="Path 1116" d="M288.24,160.41s3.45-4,10.18-3.46c8.23.69,7.13,12.1,5.73,12.59-1.09.18-.24-4.83-1.41-4.36-.9.67-.9,1.2-1.84,1.11-.53,0-1.16-1.18-1.79-2.43-1.23-1.28-4.05,2.82-6.14,3.67C291.07,167,289.48,163,288.24,160.41Z" fill="#263238"/>
        <path id="Path_1117" data-name="Path 1117" d="M248.87,228.54c-.58,9.46.63,21.45,3.6,28.57l25.14-1.58,8.83-2.56c-1.66-1.71-5.45-10.72-2.87-24.84Z" fill="#2e4ae7"/>
        <g id="Group_376" data-name="Group 376" opacity="0.3">
          <path id="Path_1118" data-name="Path 1118" d="M248.87,228.54c-.58,9.46.63,21.45,3.6,28.57l25.14-1.58,8.83-2.56c-1.86-2-5.3-10.71-2.87-24.84Z" fill="#fff"/>
        </g>
        <path id="Path_1119" data-name="Path 1119" d="M277.61,255.53l1.39-4.81,4.91,2.99Z" opacity="0.2"/>
        <path id="Path_1120" data-name="Path 1120" d="M286.71,170.61l-.32,2.34a4.22,4.22,0,0,0,.26,2.14l.15.37a4.21,4.21,0,0,0,3.27,2.6l1.51.23V179l-2-.38a4.23,4.23,0,0,1-3.1-2.53l-.35-.85a4.23,4.23,0,0,1-.24-2.41l.45-2.34Z" fill="#263238"/>
        <path id="Path_1121" data-name="Path 1121" d="M286.71,170.61l-.32,2.34a4.22,4.22,0,0,0,.26,2.14l.15.37a4.21,4.21,0,0,0,3.27,2.6l1.51.23V179l-2-.38a4.23,4.23,0,0,1-3.1-2.53l-.35-.85a4.23,4.23,0,0,1-.24-2.41l.45-2.34Z" fill="#fff" opacity="0.2"/>
        <rect id="Rectangle_363" data-name="Rectangle 363" width="2.23" height="1.88" rx="0.58" transform="translate(291.08 177.87)" fill="#263238"/>
        <rect id="Rectangle_364" data-name="Rectangle 364" width="2.05" height="3.45" rx="0.63" transform="translate(285.56 167.48)" fill="#263238"/>
        <path id="Path_1122" data-name="Path 1122" d="M297.11,191.64s4.55,22.27,7.66,26.74,19.71,20.15,19.71,20.15l-2.83,3.54s-23.22-14.87-24.86-17S284,202,284,202Z" fill="#fff" opacity="0.15"/>
        <path id="Path_1123" data-name="Path 1123" d="M289.28,207.41l3.66,11.06-4.59-8.36Z" opacity="0.2"/>
        <path id="Path_1124" data-name="Path 1124" d="M248.69,231.49,283,233.67s4-31.33,15-41.37l-5.65-4.65-15-5.2s-7.66-.21-12.16.75a46.841,46.841,0,0,0-3.8,5.42,80.14,80.14,0,0,0-5.84,11.52,93.27,93.27,0,0,0-6.86,31.35Z" fill="#2e4ae7" style="isolation: isolate"/>
        <path id="Path_1125" data-name="Path 1125" d="M283.2,232.28l-11-7.8c-2-1.92-7.58-15.31-11.76-24.18l23.44,28.24Z" opacity="0.2"/>
        <path id="Path_1126" data-name="Path 1126" d="M271.93,182.5h1.26l22.3,7.74.93.76h0a3,3,0,0,1-1.54,1.65l-1.29.62C285.41,190.29,277.79,187.43,271.93,182.5Z" fill="#263238" opacity="0.2"/>
        <path id="Path_1127" data-name="Path 1127" d="M273.64,189.64s6.21,21.65,9.32,26.12,24.13,25.05,24.13,25.05l-3.36,3.79s-27.91-18.71-29.55-20.86-13.58-22.81-13.58-22.81C257.4,192.12,269,178.38,273.64,189.64Z" fill="#2e4ae7"/>
        <path id="Path_1128" data-name="Path 1128" d="M273.64,189.64s6.21,21.65,9.32,26.12,24.13,25.05,24.13,25.05l-3.36,3.79s-27.91-18.71-29.55-20.86-13.58-22.81-13.58-22.81C257.4,192.12,269,178.38,273.64,189.64Z" fill="#fff" opacity="0.15"/>
        <path id="Path_1129" data-name="Path 1129" d="M263.57,198.93l2.28,4.68c1-3.76,2.8-6,5.48-6.62l-2.66-5.35a11.79,11.79,0,0,0-5.1,7.29Z" fill="#2e4ae7"/>
        <g id="Group_377" data-name="Group 377" opacity="0.2">
          <path id="Path_1130" data-name="Path 1130" d="M246.06,283.75l-.92,14.45-12.45-4.07a1.32,1.32,0,0,0-1.7,1l-1.1,4.8a2,2,0,0,1-1.9,1.51h-1.16a1.37,1.37,0,0,1-1.37-1.3l-.92-19.91a.82.82,0,0,1,1-.84Z" fill="#fff"/>
        </g>
        <path id="Path_1131" data-name="Path 1131" d="M300.56,231.88l-8.35,8.46,11.73,5.31,2.7,6.15a.78.78,0,0,0,1.26.24l5.83-5.74a.72.72,0,0,0-.05-1.08l-5.45-4.53Z" fill="#2e4ae7"/>
        <path id="Path_1132" data-name="Path 1132" d="M300.56,231.88l-8.35,8.46,11.73,5.31,2.7,6.15a.78.78,0,0,0,1.26.24l5.83-5.74a.72.72,0,0,0-.05-1.08l-5.45-4.53Z" fill="#fff" opacity="0.3"/>
        <path id="Path_1133" data-name="Path 1133" d="M308.92,237.79l8.36-9.25,7.42,8.57,5.09,2.58a.59.59,0,0,1,.23.83l-.14.24-8.64,2.2-.62-.74Z" fill="#2e4ae7"/>
        <g id="Group_378" data-name="Group 378" opacity="0.3">
          <path id="Path_1134" data-name="Path 1134" d="M308.92,237.79l8.36-9.25,7.42,8.57,5.09,2.58a.59.59,0,0,1,.23.83l-.14.24-8.64,2.2-.62-.74Z" fill="#fff"/>
        </g>
        <path id="Path_1135" data-name="Path 1135" d="M309.39,169.54A17.8,17.8,0,1,0,275.44,177l-.72-.58c-1.72,1-2.62,2.69-2.56,5.24a63.75,63.75,0,0,0,21.7,10.58,7.36,7.36,0,0,0,2.56-5.24l-.75-.16a17.8,17.8,0,0,0,13.72-17.3Zm-15,14.81a12.9,12.9,0,1,1,.04,0Z" fill="#2e4ae7"/>
        <path id="Path_1136" data-name="Path 1136" d="M309.39,169.54A17.8,17.8,0,1,0,275.44,177l-.72-.58c-1.72,1-2.62,2.69-2.56,5.24a63.75,63.75,0,0,0,21.7,10.58,7.36,7.36,0,0,0,2.56-5.24l-.75-.16a17.8,17.8,0,0,0,13.72-17.3Zm-15,14.81a12.9,12.9,0,1,1,.04,0Z" fill="#fff" opacity="0.3"/>
        <path id="Path_1137" data-name="Path 1137" d="M276.18,177.38l5.38,3.48c-4-2.9-6.29-7.14-6.73-12.91a16.72,16.72,0,0,0,1.35,9.43Z" opacity="0.2"/>
        <path id="Path_1138" data-name="Path 1138" d="M296,154.14a18.14,18.14,0,0,1,12,10.69,19.17,19.17,0,0,0-10.15-11.19Z" fill="#fff" opacity="0.2"/>
        <path id="Path_1139" data-name="Path 1139" d="M296.79,153.22l-1.77.7-1.54-.28.4-1.21a6.32,6.32,0,0,1,2.91.79Z" fill="#fff" opacity="0.2"/>
        <path id="Path_1140" data-name="Path 1140" d="M245.95,285.38l-.76,11.13.63.17.85-11.23Z" fill="#263238" opacity="0.2"/>
      </g>
    </g>
  </g>
</svg>
