<svg xmlns="http://www.w3.org/2000/svg" width="641.811" height="135.359" viewBox="0 0 641.811 135.359">
  <g id="Group_983" data-name="Group 983" transform="translate(-14620 8335)">
    <g id="Group_752" data-name="Group 752" transform="translate(14251.811 -8650.618)">
      <path id="Path_2791" data-name="Path 2791" d="M428.35,332.53c1.19-11.74,7.9-18.09,17.63-16.73a15,15,0,0,1,12.62,17.69c-2.01,9.91-9.87,13.83-22.53,10.92-8.27,3.28-16.06,7.84-21.86,15.14-6.54,8.23-6.39,15.35,1.28,22.52,5.54,5.17,12.05,9.32,18.96,14.55-14.48-1.05-28.02-2.45-39.79-10.34-6.82-4.57-8.71-11.47-4.17-18.69a82.071,82.071,0,0,1,14.58-17C412.21,344.15,420.27,338.72,428.35,332.53Z" fill="#fff"/>
      <path id="Path_2792" data-name="Path 2792" d="M443.72,424.72c5.28-3.98,11.76-7.92,17.07-13.06,7.86-7.62,7.61-15.14-.36-22.54-4.77-4.42-10.41-7.92-16.63-12.56,2.64.12,4.63-.12,6.45.34,9.14,2.29,18.65,3.77,27.22,7.42,9.57,4.08,12,13.08,5.2,20.87-8.14,9.34-18.16,17.06-27.44,25.4a54.943,54.943,0,0,1-5.6,3.93c-1.83,14.61-10.23,17.63-18.03,16.1-7.15-1.4-11.93-9.33-10.39-16.37C423.17,425.26,430.43,421.71,443.72,424.72Z" fill="#fff"/>
      <path id="Path_2793" data-name="Path 2793" d="M468.47,423.24c7.67-7.55,15.32-13.86,21.39-21.42a100.38,100.38,0,0,0,14.66-23.92c5.58-13.47-.44-27.21-13.93-32.98-6.45-2.76-13.76-3.6-20.73-5.08-2.4-.51-4.95-.36-8.06-.55.58-2.07,1.01-3.59,1.55-5.55,14.8-.04,28.96,1.02,41.41,9.46,11.1,7.53,15.66,19.94,10.33,32.44-3.78,8.87-9.27,17.26-15.2,24.94C492.86,409.7,476.92,420.44,468.47,423.24Z" fill="#fff"/>
      <path id="Path_2794" data-name="Path 2794" d="M383.44,370.14c.33,4.12.61,7.71.92,11.66-9.36,23.61-3.9,33.5,27.3,48.25-.22,1.48-.46,3.09-.64,4.34-4.71,3.63-28.7-7.03-36.26-15.61C363.55,406.06,366.84,386.88,383.44,370.14Z" fill="#fff"/>
    </g>
    <g id="Group_753" data-name="Group 753" transform="translate(14241.811 -8650.618)">
      <path id="Path_2795" data-name="Path 2795" d="M556.87,393.84c.88,7.86,8.52,13.03,18.97,13.03,10,0,17.21-5.17,17.21-12.26,0-6.16-4.34-9.84-14.62-12.37l-10.28-2.47c-14.57-3.52-21.33-10.34-21.33-21.38,0-13.69,11.93-23.09,28.86-23.09,16.77,0,28.26,9.4,28.64,23.09H592.34c-.72-7.92-7.26-12.7-16.82-12.7s-16.11,4.84-16.11,11.87c0,5.61,4.18,8.91,14.4,11.43l8.74,2.14c16.27,3.85,23.04,10.39,23.04,21.99,0,14.84-11.82,24.13-30.62,24.13-17.59,0-29.47-9.07-30.24-23.42h12.14Z" fill="#fff"/>
      <path id="Path_2796" data-name="Path 2796" d="M664.78,398.95c-1.65,10.56-11.65,18.09-24.9,18.09-16.99,0-27.27-11.49-27.27-29.74,0-18.14,10.45-30.24,26.77-30.24,16.05,0,26.06,11.32,26.06,28.86v4.07H624.6v.72c0,10.06,6.05,16.71,15.56,16.71,6.76,0,11.76-3.41,13.36-8.47h11.26Zm-40.13-17.26h28.92c-.28-8.85-5.88-15.06-14.18-15.06S625.25,372.95,624.65,381.69Z" fill="#fff"/>
      <path id="Path_2797" data-name="Path 2797" d="M674.62,358.1h11.32v9.68h.28c3.13-6.6,9.29-10.67,18.2-10.67,12.75,0,20.07,8.14,20.07,21.39v37.44H712.56V380.81c0-8.69-4.07-13.47-12.31-13.47-8.36,0-13.74,5.94-13.74,14.9v33.7H674.64V358.1Z" fill="#fff"/>
      <path id="Path_2798" data-name="Path 2798" d="M785.5,398.95c-1.65,10.56-11.65,18.09-24.9,18.09-16.99,0-27.27-11.49-27.27-29.74,0-18.14,10.45-30.24,26.77-30.24,16.05,0,26.06,11.32,26.06,28.86v4.07H745.31v.72c0,10.06,6.05,16.71,15.56,16.71,6.76,0,11.76-3.41,13.36-8.47H785.5Zm-40.14-17.26h28.92c-.28-8.85-5.88-15.06-14.18-15.06S745.97,372.95,745.36,381.69Z" fill="#fff"/>
      <path id="Path_2799" data-name="Path 2799" d="M815.73,394.66l-12.81,21.27H790.05l19.08-28.86-18.8-28.97h13.3l12.64,20.95h.22l12.48-20.95h13.09l-18.97,28.59,18.75,29.25H828.75L816,394.66Z" fill="#fff"/>
      <path id="Path_2800" data-name="Path 2800" d="M880.7,336.61c15.39,0,26.11,10.61,26.11,26.06,0,15.5-10.94,26.17-26.5,26.17H863.27v27.1H850.96V336.61ZM863.28,378.5h14.13c10.72,0,16.82-5.77,16.82-15.78S888.13,347,877.46,347H863.28Z" fill="#fff"/>
      <path id="Path_2801" data-name="Path 2801" d="M909.28,399.5c0-10.12,7.75-16.33,21.5-17.1l15.83-.93v-4.45c0-6.43-4.34-10.28-11.6-10.28-6.87,0-11.16,3.3-12.2,8.47H911.6c.66-10.45,9.56-18.14,23.86-18.14,14.02,0,22.98,7.42,22.98,19.02v39.86H947.06v-9.51h-.27c-3.35,6.43-10.67,10.5-18.25,10.5C917.2,416.93,909.28,409.89,909.28,399.5Zm37.33-5.22v-4.56l-14.24.88c-7.09.49-11.1,3.63-11.1,8.58,0,5.06,4.18,8.36,10.56,8.36C940.13,407.53,946.61,401.81,946.61,394.28Z" fill="#fff"/>
      <path id="Path_2802" data-name="Path 2802" d="M970.8,437.21v-9.62a21.976,21.976,0,0,0,3.85.22c5.55,0,8.47-2.31,10.28-8.25,0-.11,1.05-3.52,1.05-3.57L965.09,358.1h12.86l14.68,47.06h.17l14.68-47.06H1020l-21.71,60.86c-4.95,14.02-10.61,18.53-22.65,18.53A45.258,45.258,0,0,1,970.8,437.21Z" fill="#fff"/>
    </g>
  </g>
</svg>
