<svg xmlns="http://www.w3.org/2000/svg" width="266.6" height="241.99" viewBox="0 0 266.6 241.99">
  <g id="SenexPay_Logo" data-name="SenexPay Logo" transform="translate(-368.19 -315.618)">
    <g id="Group_752" data-name="Group 752" transform="translate(368.19 315.618)">
      <path id="Path_2791" data-name="Path 2791" d="M460.124,345.852c2.127-20.988,14.123-32.341,31.518-29.909A26.811,26.811,0,0,1,514.2,347.569c-3.593,17.717-17.645,24.725-40.278,19.522-14.785,5.864-28.711,14.016-39.08,27.067-11.692,14.713-11.424,27.442,2.288,40.26,9.9,9.243,21.543,16.662,33.9,26.012-25.887-1.877-50.093-4.38-71.135-18.485-12.193-8.17-15.571-20.506-7.455-33.413A146.722,146.722,0,0,1,418.5,378.139C431.27,366.626,445.679,356.919,460.124,345.852Z" transform="translate(-352.572 -315.618)" fill="#053888"/>
      <path id="Path_2792" data-name="Path 2792" d="M461.68,462.659c9.439-7.115,21.024-14.159,30.517-23.348,14.052-13.623,13.6-27.067-.644-40.3-8.528-7.9-18.611-14.159-29.73-22.454,4.72.215,8.277-.215,11.531.608,16.34,4.094,33.342,6.74,48.663,13.265,17.109,7.294,21.453,23.384,9.3,37.311-14.552,16.7-32.466,30.5-49.056,45.409-3.057,2.735-6.758,4.773-10.011,7.026-3.272,26.119-18.289,31.518-32.233,28.783-12.782-2.5-21.328-16.68-18.575-29.266C424.942,463.624,437.921,457.277,461.68,462.659Z" transform="translate(-326.65 -267.611)" fill="#053888"/>
      <path id="Path_2793" data-name="Path 2793" d="M473.724,493.746c13.712-13.5,27.389-24.778,38.24-38.294,10.423-12.979,19.88-27.478,26.209-42.763,9.976-24.081-.787-48.645-24.9-58.96-11.531-4.934-24.6-6.436-37.06-9.082-4.291-.912-8.849-.644-14.409-.983,1.037-3.7,1.806-6.418,2.771-9.922,26.459-.072,51.774,1.824,74.031,16.912,19.844,13.462,28,35.648,18.468,57.995C550.312,424.506,540.5,439.5,529.9,453.235,517.328,469.539,488.831,488.74,473.724,493.746Z" transform="translate(-294.447 -301.344)" fill="#053888"/>
      <path id="Path_2794" data-name="Path 2794" d="M395.454,370.14c.59,7.366,1.091,13.784,1.645,20.845-16.733,42.209-6.972,59.89,48.806,86.26-.393,2.646-.822,5.524-1.144,7.759-8.42,6.49-51.309-12.568-64.824-27.907C359.895,434.356,365.777,400.067,395.454,370.14Z" transform="translate(-368.19 -272.668)" fill="#053888"/>
    </g>
  </g>
</svg>
