<svg id="south-africa" xmlns="http://www.w3.org/2000/svg" width="60.98" height="39.952" viewBox="0 0 60.98 39.952">
  <path id="Path_1165" data-name="Path 1165" d="M0,150.069V175.3l16.822-12.617Z" transform="translate(0 -142.709)" fill="#464655"/>
  <path id="Path_1166" data-name="Path 1166" d="M118.623,88.276h-48L89.546,103H123.19V92.843A4.567,4.567,0,0,0,118.623,88.276Z" transform="translate(-62.21 -88.276)" fill="#ff4b55"/>
  <path id="Path_1167" data-name="Path 1167" d="M70.621,314.857h48a4.567,4.567,0,0,0,4.567-4.567V300.138H89.546Z" transform="translate(-62.21 -274.905)" fill="#41479b"/>
  <path id="Path_1168" data-name="Path 1168" d="M6.776,88.276H4.567A4.567,4.567,0,0,0,0,92.843v.8l18.458,14.612L0,122.865v.8a4.567,4.567,0,0,0,4.567,4.567H6.775L26.7,112.458H60.98v-8.411H26.7Z" transform="translate(0 -88.276)" fill="#73af00"/>
  <path id="Path_1169" data-name="Path 1169" d="M60.277,88.276H56.889L76.81,104.047h34.284v-2.1H77.542Z" transform="translate(-50.113 -88.276)" fill="#f5f5f5"/>
  <path id="Path_1170" data-name="Path 1170" d="M0,133.313v2.682l15.07,11.93L0,159.856v2.682l18.458-14.613Z" transform="translate(0 -127.949)" fill="#ffe15a"/>
  <path id="Path_1171" data-name="Path 1171" d="M76.805,291.31,56.884,307.081h3.388l17.265-13.668h33.552v-2.1Z" transform="translate(-50.109 -267.128)" fill="#f5f5f5"/>
</svg>
