<svg xmlns="http://www.w3.org/2000/svg" width="33.809" height="27.459" viewBox="0 0 33.809 27.459">
  <path id="Icon_awesome-twitter" data-name="Icon awesome-twitter" d="M30.334,10.224c.021.3.021.6.021.9,0,9.16-6.972,19.715-19.715,19.715A19.581,19.581,0,0,1,0,27.729a14.334,14.334,0,0,0,1.673.086,13.877,13.877,0,0,0,8.6-2.96A6.941,6.941,0,0,1,3.8,20.049a8.738,8.738,0,0,0,1.309.107,7.328,7.328,0,0,0,1.823-.236,6.93,6.93,0,0,1-5.556-6.8v-.086a6.978,6.978,0,0,0,3.132.879A6.939,6.939,0,0,1,2.36,4.646,19.7,19.7,0,0,0,16.647,11.9a7.822,7.822,0,0,1-.172-1.587A6.936,6.936,0,0,1,28.467,5.569a13.642,13.642,0,0,0,4.4-1.673,6.91,6.91,0,0,1-3.046,3.818,13.891,13.891,0,0,0,3.99-1.073,14.9,14.9,0,0,1-3.475,3.582Z" transform="translate(0 -3.381)" fill="#fff"/>
</svg>
