<svg xmlns="http://www.w3.org/2000/svg" width="30.866" height="30.866" viewBox="0 0 30.866 30.866">
  <path id="Icon_metro-facebook" data-name="Icon metro-facebook" d="M28.293,1.928H7.715A5.144,5.144,0,0,0,2.571,7.073V27.649a5.144,5.144,0,0,0,5.144,5.145H18V19.29H14.146V15.432H18V12.538a4.823,4.823,0,0,1,4.823-4.823H27.65v3.858H22.827a.965.965,0,0,0-.965.965v2.894h5.305L26.2,19.29H21.862v13.5h6.431a5.144,5.144,0,0,0,5.144-5.145V7.073a5.144,5.144,0,0,0-5.144-5.145Z" transform="translate(-2.571 -1.928)" fill="#fff"/>
</svg>
