<svg xmlns="http://www.w3.org/2000/svg" width="37.596" height="26.434" viewBox="0 0 37.596 26.434">
  <path id="Icon_awesome-youtube" data-name="Icon awesome-youtube" d="M37.86,8.636a4.724,4.724,0,0,0-3.324-3.345C31.6,4.5,19.848,4.5,19.848,4.5s-11.756,0-14.688.791A4.724,4.724,0,0,0,1.836,8.636c-.786,2.951-.786,9.108-.786,9.108s0,6.157.786,9.108a4.654,4.654,0,0,0,3.324,3.292c2.932.791,14.688.791,14.688.791s11.756,0,14.688-.791a4.654,4.654,0,0,0,3.324-3.292c.786-2.951.786-9.108.786-9.108s0-6.157-.786-9.108ZM16,23.334V12.154l9.826,5.59L16,23.334Z" transform="translate(-1.05 -4.5)" fill="#fff"/>
</svg>
