<svg xmlns="http://www.w3.org/2000/svg" width="1062.528" height="941" viewBox="0 0 1062.528 941">
  <path id="Intersection_4" data-name="Intersection 4" d="M290.254,941.66a15.366,15.366,0,0,1-7.093-2.7,6.5,6.5,0,0,1,11.9,2.7ZM312.613,936a6.484,6.484,0,0,1,4.805,2.122c-4.081.911-7.712,1.687-10.965,2.294A6.5,6.5,0,0,1,312.613,936Zm17.5-17.5a6.5,6.5,0,1,1,6.5,6.5A6.5,6.5,0,0,1,330.113,918.5Zm-24,0a6.5,6.5,0,1,1,6.5,6.5A6.5,6.5,0,0,1,306.113,918.5Zm-24,0a6.5,6.5,0,1,1,6.5,6.5A6.5,6.5,0,0,1,282.113,918.5Zm72,0a6.5,6.5,0,0,1,10.2-5.343,83.953,83.953,0,0,1-9.4,8.476A6.47,6.47,0,0,1,354.113,918.5Zm-84.629-4.3a6.477,6.477,0,0,1,1.628,4.268Q270.323,916.433,269.484,914.2ZM354.113,894.5a6.5,6.5,0,1,1,6.5,6.5A6.5,6.5,0,0,1,354.113,894.5Zm-24,0a6.5,6.5,0,1,1,6.5,6.5A6.5,6.5,0,0,1,330.113,894.5Zm-24,0a6.5,6.5,0,1,1,6.5,6.5A6.5,6.5,0,0,1,306.113,894.5Zm-24,0a6.5,6.5,0,1,1,6.5,6.5A6.5,6.5,0,0,1,282.113,894.5ZM264.507,901l-4.266-11.309A6.5,6.5,0,1,1,264.613,901Zm114.757-10.193c-.327.958-.689,1.911-1.1,2.85A6.452,6.452,0,0,1,379.264,890.807ZM354.113,870.5a6.5,6.5,0,1,1,6.5,6.5A6.5,6.5,0,0,1,354.113,870.5Zm-24,0a6.5,6.5,0,1,1,6.5,6.5A6.5,6.5,0,0,1,330.113,870.5Zm-24,0a6.5,6.5,0,1,1,6.5,6.5A6.5,6.5,0,0,1,306.113,870.5Zm-24,0a6.5,6.5,0,1,1,6.5,6.5A6.5,6.5,0,0,1,282.113,870.5Zm-24,0a6.5,6.5,0,1,1,6.5,6.5A6.5,6.5,0,0,1,258.113,870.5Zm120,0a6.5,6.5,0,0,1,9.492-5.773q-.134.186-.267.378c-2.414,3.433-3.67,7.411-4.655,11.6A6.5,6.5,0,0,1,378.113,870.5Zm0-24a6.5,6.5,0,1,1,6.5,6.5A6.5,6.5,0,0,1,378.113,846.5Zm-24,0a6.5,6.5,0,1,1,6.5,6.5A6.5,6.5,0,0,1,354.113,846.5Zm-24,0a6.5,6.5,0,1,1,6.5,6.5A6.5,6.5,0,0,1,330.113,846.5Zm-24,0a6.5,6.5,0,1,1,6.5,6.5A6.5,6.5,0,0,1,306.113,846.5Zm-24,0a6.5,6.5,0,1,1,6.5,6.5A6.5,6.5,0,0,1,282.113,846.5Zm-24,0a6.5,6.5,0,1,1,6.5,6.5A6.5,6.5,0,0,1,258.113,846.5Zm144,0a6.5,6.5,0,0,1,5.59-6.437,17.037,17.037,0,0,1-.55,4.937,18.737,18.737,0,0,1-2.9,6.323A6.483,6.483,0,0,1,402.113,846.5ZM241.52,840.063a6.5,6.5,0,0,1,4.025,10.671ZM378.113,822.5a6.5,6.5,0,1,1,6.5,6.5A6.5,6.5,0,0,1,378.113,822.5Zm-24,0a6.5,6.5,0,1,1,6.5,6.5A6.5,6.5,0,0,1,354.113,822.5Zm-24,0a6.5,6.5,0,1,1,6.5,6.5A6.5,6.5,0,0,1,330.113,822.5Zm-24,0a6.5,6.5,0,1,1,6.5,6.5A6.5,6.5,0,0,1,306.113,822.5Zm-24,0a6.5,6.5,0,1,1,6.5,6.5A6.5,6.5,0,0,1,282.113,822.5Zm-24,0a6.5,6.5,0,1,1,6.5,6.5A6.5,6.5,0,0,1,258.113,822.5Zm-21.2,5.342-2.607-6.911a6.5,6.5,0,1,1,2.607,6.911Zm165.2-5.342a6.489,6.489,0,0,1,2.173-4.852,43.939,43.939,0,0,0,1.471,10.692A6.5,6.5,0,0,1,402.113,822.5Zm0-24a6.5,6.5,0,1,1,6.5,6.5A6.5,6.5,0,0,1,402.113,798.5Zm-24,0a6.5,6.5,0,1,1,6.5,6.5A6.5,6.5,0,0,1,378.113,798.5Zm-24,0a6.5,6.5,0,1,1,6.5,6.5A6.5,6.5,0,0,1,354.113,798.5Zm-24,0a6.5,6.5,0,1,1,6.5,6.5A6.5,6.5,0,0,1,330.113,798.5Zm-24,0a6.5,6.5,0,1,1,6.5,6.5A6.5,6.5,0,0,1,306.113,798.5Zm-24,0a6.5,6.5,0,1,1,6.5,6.5A6.5,6.5,0,0,1,282.113,798.5Zm-24,0a6.5,6.5,0,1,1,6.5,6.5A6.5,6.5,0,0,1,258.113,798.5Zm-24,0a6.5,6.5,0,1,1,6.5,6.5A6.5,6.5,0,0,1,234.113,798.5Zm198.5-6.5a6.481,6.481,0,0,1,2.6.54c-2.765,1.657-5.856,3.2-8.986,4.742A6.5,6.5,0,0,1,432.614,792Zm-6.5-17.5a6.5,6.5,0,1,1,6.5,6.5A6.5,6.5,0,0,1,426.113,774.5Zm-24,0a6.5,6.5,0,1,1,6.5,6.5A6.5,6.5,0,0,1,402.113,774.5Zm-24,0a6.5,6.5,0,1,1,6.5,6.5A6.5,6.5,0,0,1,378.113,774.5Zm-24,0a6.5,6.5,0,1,1,6.5,6.5A6.5,6.5,0,0,1,354.113,774.5Zm-24,0a6.5,6.5,0,1,1,6.5,6.5A6.5,6.5,0,0,1,330.113,774.5Zm-24,0a6.5,6.5,0,1,1,6.5,6.5A6.5,6.5,0,0,1,306.113,774.5Zm-24,0a6.5,6.5,0,1,1,6.5,6.5A6.5,6.5,0,0,1,282.113,774.5Zm-24,0a6.5,6.5,0,1,1,6.5,6.5A6.5,6.5,0,0,1,258.113,774.5Zm-24,0a6.5,6.5,0,1,1,6.5,6.5A6.5,6.5,0,0,1,234.113,774.5Zm216,0a6.472,6.472,0,0,1,1.595-4.265,43.253,43.253,0,0,1-1.591,4.486C450.114,774.647,450.113,774.574,450.113,774.5Zm-24-24a6.5,6.5,0,1,1,6.5,6.5A6.5,6.5,0,0,1,426.113,750.5Zm-24,0a6.5,6.5,0,1,1,6.5,6.5A6.5,6.5,0,0,1,402.113,750.5Zm-24,0a6.5,6.5,0,1,1,6.5,6.5A6.5,6.5,0,0,1,378.113,750.5Zm-24,0a6.5,6.5,0,1,1,6.5,6.5A6.5,6.5,0,0,1,354.113,750.5Zm-24,0a6.5,6.5,0,1,1,6.5,6.5A6.5,6.5,0,0,1,330.113,750.5Zm-24,0a6.5,6.5,0,1,1,6.5,6.5A6.5,6.5,0,0,1,306.113,750.5Zm-24,0a6.5,6.5,0,1,1,6.5,6.5A6.5,6.5,0,0,1,282.113,750.5Zm-24,0a6.5,6.5,0,1,1,6.5,6.5A6.5,6.5,0,0,1,258.113,750.5Zm-21.616,5.03c1.24-4.344,2.311-8.09,3.154-11.461a6.651,6.651,0,0,1,.962-.07,6.5,6.5,0,1,1-4.117,11.531Zm213.617-5.03A6.491,6.491,0,0,1,453,745.1a83.051,83.051,0,0,1,.684,11.2A6.5,6.5,0,0,1,450.113,750.5Zm-24-24a6.5,6.5,0,1,1,6.5,6.5A6.5,6.5,0,0,1,426.113,726.5Zm-24,0a6.5,6.5,0,1,1,6.5,6.5A6.5,6.5,0,0,1,402.113,726.5Zm-24,0a6.5,6.5,0,1,1,6.5,6.5A6.5,6.5,0,0,1,378.113,726.5Zm-24,0a6.5,6.5,0,1,1,6.5,6.5A6.5,6.5,0,0,1,354.113,726.5Zm-24,0a6.5,6.5,0,1,1,6.5,6.5A6.5,6.5,0,0,1,330.113,726.5Zm-24,0a6.5,6.5,0,1,1,6.5,6.5A6.5,6.5,0,0,1,306.113,726.5Zm-24,0a6.5,6.5,0,1,1,6.5,6.5A6.5,6.5,0,0,1,282.113,726.5Zm-24,0a6.5,6.5,0,1,1,6.5,6.5A6.5,6.5,0,0,1,258.113,726.5ZM240.385,720c.076,0,.152,0,.229,0a6.5,6.5,0,0,1,1.022,12.919A38.183,38.183,0,0,0,240.385,720Zm185.728-17.5a6.5,6.5,0,1,1,6.5,6.5A6.5,6.5,0,0,1,426.113,702.5Zm-24,0a6.5,6.5,0,1,1,6.5,6.5A6.5,6.5,0,0,1,402.113,702.5Zm-24,0a6.5,6.5,0,1,1,6.5,6.5A6.5,6.5,0,0,1,378.113,702.5Zm-24,0a6.5,6.5,0,1,1,6.5,6.5A6.5,6.5,0,0,1,354.113,702.5Zm-24,0a6.5,6.5,0,1,1,6.5,6.5A6.5,6.5,0,0,1,330.113,702.5Zm-24,0a6.5,6.5,0,1,1,6.5,6.5A6.5,6.5,0,0,1,306.113,702.5Zm-24,0a6.5,6.5,0,1,1,6.5,6.5A6.5,6.5,0,0,1,282.113,702.5Zm-24,0a6.5,6.5,0,1,1,6.5,6.5A6.5,6.5,0,0,1,258.113,702.5Zm-22.946,3.549q-.285-.63-.585-1.278c-.054-.1-.11-.2-.165-.3a6.506,6.506,0,1,1,.75,1.579ZM426.113,678.5a6.5,6.5,0,1,1,6.5,6.5A6.5,6.5,0,0,1,426.113,678.5Zm-24,0a6.5,6.5,0,1,1,6.5,6.5A6.5,6.5,0,0,1,402.113,678.5Zm-24,0a6.5,6.5,0,1,1,6.5,6.5A6.5,6.5,0,0,1,378.113,678.5Zm-24,0a6.5,6.5,0,1,1,6.5,6.5A6.5,6.5,0,0,1,354.113,678.5Zm-24,0a6.5,6.5,0,1,1,6.5,6.5A6.5,6.5,0,0,1,330.113,678.5Zm-24,0a6.5,6.5,0,1,1,6.5,6.5A6.5,6.5,0,0,1,306.113,678.5Zm-24,0a6.5,6.5,0,1,1,6.5,6.5A6.5,6.5,0,0,1,282.113,678.5Zm-24,0a6.5,6.5,0,1,1,6.5,6.5A6.5,6.5,0,0,1,258.113,678.5Zm-24,0a6.5,6.5,0,1,1,6.5,6.5A6.5,6.5,0,0,1,234.113,678.5Zm-15.361-6.142a6.505,6.505,0,0,1,3.855,8.662Q220.624,676.715,218.751,672.359ZM426.113,654.5a6.5,6.5,0,1,1,6.5,6.5A6.5,6.5,0,0,1,426.113,654.5Zm-24,0a6.5,6.5,0,1,1,6.5,6.5A6.5,6.5,0,0,1,402.113,654.5Zm-24,0a6.5,6.5,0,1,1,6.5,6.5A6.5,6.5,0,0,1,378.113,654.5Zm-24,0a6.5,6.5,0,1,1,6.5,6.5A6.5,6.5,0,0,1,354.113,654.5Zm-24,0a6.5,6.5,0,1,1,6.5,6.5A6.5,6.5,0,0,1,330.113,654.5Zm-24,0a6.5,6.5,0,1,1,6.5,6.5A6.5,6.5,0,0,1,306.113,654.5Zm-24,0a6.5,6.5,0,1,1,6.5,6.5A6.5,6.5,0,0,1,282.113,654.5Zm-24,0a6.5,6.5,0,1,1,6.5,6.5A6.5,6.5,0,0,1,258.113,654.5Zm-24,0a6.5,6.5,0,1,1,6.5,6.5A6.5,6.5,0,0,1,234.113,654.5Zm-20.267,5.882-.187-.482a43.088,43.088,0,0,1-1.717-9.919,6.5,6.5,0,1,1,1.9,10.4ZM450.113,654.5a6.5,6.5,0,0,1,10.941-4.747c-2.57,3.386-5.046,6.887-7.394,10.538A6.5,6.5,0,0,1,450.113,654.5Zm0-24a6.5,6.5,0,1,1,6.5,6.5A6.5,6.5,0,0,1,450.113,630.5Zm-24,0a6.5,6.5,0,1,1,6.5,6.5A6.5,6.5,0,0,1,426.113,630.5Zm-24,0a6.5,6.5,0,1,1,6.5,6.5A6.5,6.5,0,0,1,402.113,630.5Zm-24,0a6.5,6.5,0,1,1,6.5,6.5A6.5,6.5,0,0,1,378.113,630.5Zm-24,0a6.5,6.5,0,1,1,6.5,6.5A6.5,6.5,0,0,1,354.113,630.5Zm-24,0a6.5,6.5,0,1,1,6.5,6.5A6.5,6.5,0,0,1,330.113,630.5Zm-24,0a6.5,6.5,0,1,1,6.5,6.5A6.5,6.5,0,0,1,306.113,630.5Zm-24,0a6.5,6.5,0,1,1,6.5,6.5A6.5,6.5,0,0,1,282.113,630.5Zm-24,0a6.5,6.5,0,1,1,6.5,6.5A6.5,6.5,0,0,1,258.113,630.5Zm-24,0a6.5,6.5,0,1,1,6.5,6.5A6.5,6.5,0,0,1,234.113,630.5Zm-21.8,4.87a76.8,76.8,0,0,0-.1-9.646,6.5,6.5,0,1,1,.1,9.646Zm261.8-4.87a6.5,6.5,0,0,1,8.948-6.023c-2.774,2.927-5.545,5.885-8.278,8.9A6.472,6.472,0,0,1,474.114,630.5Zm481.947-4.64a6.479,6.479,0,0,1,3.112-1.7,27.949,27.949,0,0,0,1.625,4.4Q958.348,627.242,956.061,625.861ZM474.114,606.5a6.5,6.5,0,1,1,6.5,6.5A6.5,6.5,0,0,1,474.114,606.5Zm-24,0a6.5,6.5,0,1,1,6.5,6.5A6.5,6.5,0,0,1,450.113,606.5Zm-24,0a6.5,6.5,0,1,1,6.5,6.5A6.5,6.5,0,0,1,426.113,606.5Zm-24,0a6.5,6.5,0,1,1,6.5,6.5A6.5,6.5,0,0,1,402.113,606.5Zm-24,0a6.5,6.5,0,1,1,6.5,6.5A6.5,6.5,0,0,1,378.113,606.5Zm-24,0a6.5,6.5,0,1,1,6.5,6.5A6.5,6.5,0,0,1,354.113,606.5Zm-24,0a6.5,6.5,0,1,1,6.5,6.5A6.5,6.5,0,0,1,330.113,606.5Zm-24,0a6.5,6.5,0,1,1,6.5,6.5A6.5,6.5,0,0,1,306.113,606.5Zm-24,0a6.5,6.5,0,1,1,6.5,6.5A6.5,6.5,0,0,1,282.113,606.5Zm-24,0a6.5,6.5,0,1,1,6.5,6.5A6.5,6.5,0,0,1,258.113,606.5Zm-24,0a6.5,6.5,0,1,1,6.5,6.5A6.5,6.5,0,0,1,234.113,606.5Zm-24,0a6.5,6.5,0,1,1,6.5,6.5A6.5,6.5,0,0,1,210.114,606.5Zm720.762-3.058a6.5,6.5,0,1,1,8.005,9.151A84.477,84.477,0,0,1,930.876,603.443Zm23.237,3.058a6.465,6.465,0,0,1,1.191-3.751,84.608,84.608,0,0,1,1.613,9.1A6.494,6.494,0,0,1,954.113,606.5Zm-456,0a6.506,6.506,0,0,1,7.518-6.422c-2.361,2.77-4.8,5.5-7.273,8.2A6.528,6.528,0,0,1,498.114,606.5Zm432-24a6.49,6.49,0,0,1,2.593-5.2q1.573,1.878,3.4,3.87a52.274,52.274,0,0,0,5.711,5.224,6.5,6.5,0,0,1-11.7-3.9Zm-432,0a6.5,6.5,0,1,1,6.5,6.5A6.5,6.5,0,0,1,498.114,582.5Zm-24,0a6.5,6.5,0,1,1,6.5,6.5A6.5,6.5,0,0,1,474.114,582.5Zm-24,0a6.5,6.5,0,1,1,6.5,6.5A6.5,6.5,0,0,1,450.113,582.5Zm-24,0a6.5,6.5,0,1,1,6.5,6.5A6.5,6.5,0,0,1,426.113,582.5Zm-24,0a6.5,6.5,0,1,1,6.5,6.5A6.5,6.5,0,0,1,402.113,582.5Zm-24,0a6.5,6.5,0,1,1,6.5,6.5A6.5,6.5,0,0,1,378.113,582.5Zm-24,0a6.5,6.5,0,1,1,6.5,6.5A6.5,6.5,0,0,1,354.113,582.5Zm-24,0a6.5,6.5,0,1,1,6.5,6.5A6.5,6.5,0,0,1,330.113,582.5Zm-24,0a6.5,6.5,0,1,1,6.5,6.5A6.5,6.5,0,0,1,306.113,582.5Zm-24,0a6.5,6.5,0,1,1,6.5,6.5A6.5,6.5,0,0,1,282.113,582.5Zm-24,0a6.5,6.5,0,1,1,6.5,6.5A6.5,6.5,0,0,1,258.113,582.5Zm-24,0a6.5,6.5,0,1,1,6.5,6.5A6.5,6.5,0,0,1,234.113,582.5Zm-24,0a6.5,6.5,0,1,1,6.5,6.5A6.5,6.5,0,0,1,210.114,582.5Zm-24,0a6.5,6.5,0,1,1,6.5,6.5A6.5,6.5,0,0,1,186.113,582.5Zm-72,0a6.5,6.5,0,1,1,6.5,6.5A6.5,6.5,0,0,1,114.113,582.5Zm-24,0a6.5,6.5,0,1,1,6.5,6.5A6.5,6.5,0,0,1,90.113,582.5Zm-24,0a6.5,6.5,0,1,1,6.5,6.5A6.5,6.5,0,0,1,66.113,582.5Zm72,0a6.5,6.5,0,1,1,10.861,4.819c-2.011.456-4.04.948-6.079,1.452A6.5,6.5,0,0,1,138.114,582.5Zm-94.988-3.486a6.5,6.5,0,1,1,10.679,7.4A66.607,66.607,0,0,1,43.126,579.015Zm131.345,6.3a42.819,42.819,0,0,0-11.87-.337,6.5,6.5,0,1,1,11.874.337Zm742.644-7.5a6.484,6.484,0,0,1,2,4.689c0,.1,0,.194-.006.291Q918.06,580.329,917.115,577.812ZM744.526,565a42.857,42.857,0,0,1-6.4-6.971A6.5,6.5,0,1,1,744.613,565Zm-246.412-6.5a6.5,6.5,0,1,1,6.5,6.5A6.5,6.5,0,0,1,498.114,558.5Zm-24,0a6.5,6.5,0,1,1,6.5,6.5A6.5,6.5,0,0,1,474.114,558.5Zm-24,0a6.5,6.5,0,1,1,6.5,6.5A6.5,6.5,0,0,1,450.113,558.5Zm-24,0a6.5,6.5,0,1,1,6.5,6.5A6.5,6.5,0,0,1,426.113,558.5Zm-24,0a6.5,6.5,0,1,1,6.5,6.5A6.5,6.5,0,0,1,402.113,558.5Zm-24,0a6.5,6.5,0,1,1,6.5,6.5A6.5,6.5,0,0,1,378.113,558.5Zm-24,0a6.5,6.5,0,1,1,6.5,6.5A6.5,6.5,0,0,1,354.113,558.5Zm-24,0a6.5,6.5,0,1,1,6.5,6.5A6.5,6.5,0,0,1,330.113,558.5Zm-24,0a6.5,6.5,0,1,1,6.5,6.5A6.5,6.5,0,0,1,306.113,558.5Zm-24,0a6.5,6.5,0,1,1,6.5,6.5A6.5,6.5,0,0,1,282.113,558.5Zm-24,0a6.5,6.5,0,1,1,6.5,6.5A6.5,6.5,0,0,1,258.113,558.5Zm-24,0a6.5,6.5,0,1,1,6.5,6.5A6.5,6.5,0,0,1,234.113,558.5Zm-24,0a6.5,6.5,0,1,1,6.5,6.5A6.5,6.5,0,0,1,210.114,558.5Zm-24,0a6.5,6.5,0,1,1,6.5,6.5A6.5,6.5,0,0,1,186.113,558.5Zm-24,0a6.5,6.5,0,1,1,6.5,6.5A6.5,6.5,0,0,1,162.113,558.5Zm-24,0a6.5,6.5,0,1,1,6.5,6.5A6.5,6.5,0,0,1,138.114,558.5Zm-24,0a6.5,6.5,0,1,1,6.5,6.5A6.5,6.5,0,0,1,114.113,558.5Zm-24,0a6.5,6.5,0,1,1,6.5,6.5A6.5,6.5,0,0,1,90.113,558.5Zm-24,0a6.5,6.5,0,1,1,6.5,6.5A6.5,6.5,0,0,1,66.113,558.5Zm-24,0a6.5,6.5,0,1,1,6.5,6.5A6.5,6.5,0,0,1,42.113,558.5Zm867.672-5.854a6.5,6.5,0,1,1,3.149,12.346C911.786,560.947,910.751,556.823,909.785,552.646ZM522.113,558.5a6.5,6.5,0,0,1,10.241-5.316,102.292,102.292,0,0,1-4.145,11.8A6.5,6.5,0,0,1,522.113,558.5Zm433.133-3.669a6.5,6.5,0,1,1,6.3,10.1C959.394,561.7,957.335,558.274,955.247,554.831ZM19.571,554.4a6.5,6.5,0,1,1,8.3,9.727C24.957,560.974,22.173,557.736,19.571,554.4Zm958.543-19.9a6.5,6.5,0,1,1,6.5,6.5A6.5,6.5,0,0,1,978.114,534.5Zm-24,0a6.5,6.5,0,1,1,6.5,6.5A6.5,6.5,0,0,1,954.113,534.5Zm-48,0a6.5,6.5,0,1,1,6.5,6.5A6.5,6.5,0,0,1,906.114,534.5Zm-168,0a6.5,6.5,0,1,1,6.5,6.5A6.5,6.5,0,0,1,738.113,534.5ZM524.2,539.268c4.134-1.508,7.855-2.893,10.851-3.839a6.5,6.5,0,0,1-10.851,3.839ZM450.113,534.5a6.5,6.5,0,1,1,6.5,6.5A6.5,6.5,0,0,1,450.113,534.5Zm-24,0a6.5,6.5,0,1,1,6.5,6.5A6.5,6.5,0,0,1,426.113,534.5Zm-24,0a6.5,6.5,0,1,1,6.5,6.5A6.5,6.5,0,0,1,402.113,534.5Zm-24,0a6.5,6.5,0,1,1,6.5,6.5A6.5,6.5,0,0,1,378.113,534.5Zm-24,0a6.5,6.5,0,1,1,6.5,6.5A6.5,6.5,0,0,1,354.113,534.5Zm-24,0a6.5,6.5,0,1,1,6.5,6.5A6.5,6.5,0,0,1,330.113,534.5Zm-24,0a6.5,6.5,0,1,1,6.5,6.5A6.5,6.5,0,0,1,306.113,534.5Zm-24,0a6.5,6.5,0,1,1,6.5,6.5A6.5,6.5,0,0,1,282.113,534.5Zm-24,0a6.5,6.5,0,1,1,6.5,6.5A6.5,6.5,0,0,1,258.113,534.5Zm-24,0a6.5,6.5,0,1,1,6.5,6.5A6.5,6.5,0,0,1,234.113,534.5Zm-24,0a6.5,6.5,0,1,1,6.5,6.5A6.5,6.5,0,0,1,210.114,534.5Zm-24,0a6.5,6.5,0,1,1,6.5,6.5A6.5,6.5,0,0,1,186.113,534.5Zm-24,0a6.5,6.5,0,1,1,6.5,6.5A6.5,6.5,0,0,1,162.113,534.5Zm-24,0a6.5,6.5,0,1,1,6.5,6.5A6.5,6.5,0,0,1,138.114,534.5Zm-24,0a6.5,6.5,0,1,1,6.5,6.5A6.5,6.5,0,0,1,114.113,534.5Zm-24,0a6.5,6.5,0,1,1,6.5,6.5A6.5,6.5,0,0,1,90.113,534.5Zm-24,0a6.5,6.5,0,1,1,6.5,6.5A6.5,6.5,0,0,1,66.113,534.5Zm-24,0a6.5,6.5,0,1,1,6.5,6.5A6.5,6.5,0,0,1,42.113,534.5Zm-24,0a6.5,6.5,0,1,1,6.5,6.5A6.5,6.5,0,0,1,18.113,534.5Zm915.773-5.9a6.505,6.505,0,0,1,8.853,8.081A48.586,48.586,0,0,0,933.886,528.6Zm-208.594,1.39a6.522,6.522,0,0,1,1.764,5.378Q726.134,532.684,725.292,529.987ZM5.224,529.918a6.479,6.479,0,0,1,1.887,4.422Q6.1,532.158,5.224,529.918ZM978.114,510.5a6.5,6.5,0,0,1,5.879-6.471c1.918,3.484,3.8,7.187,5.39,10.887a6.5,6.5,0,0,1-11.269-4.416Zm-24,0a6.5,6.5,0,1,1,6.5,6.5A6.5,6.5,0,0,1,954.113,510.5Zm-24,0a6.5,6.5,0,1,1,6.5,6.5A6.5,6.5,0,0,1,930.114,510.5Zm-24,0a6.5,6.5,0,1,1,6.5,6.5A6.5,6.5,0,0,1,906.114,510.5Zm-168,0a6.5,6.5,0,1,1,6.5,6.5A6.5,6.5,0,0,1,738.113,510.5Zm-240,0a6.5,6.5,0,1,1,6.5,6.5A6.5,6.5,0,0,1,498.114,510.5Zm-24,0a6.5,6.5,0,1,1,6.5,6.5A6.5,6.5,0,0,1,474.114,510.5Zm-48,0a6.5,6.5,0,1,1,6.5,6.5A6.5,6.5,0,0,1,426.113,510.5Zm-24,0a6.5,6.5,0,1,1,6.5,6.5A6.5,6.5,0,0,1,402.113,510.5Zm-24,0a6.5,6.5,0,1,1,6.5,6.5A6.5,6.5,0,0,1,378.113,510.5Zm-24,0a6.5,6.5,0,1,1,6.5,6.5A6.5,6.5,0,0,1,354.113,510.5Zm-24,0a6.5,6.5,0,1,1,6.5,6.5A6.5,6.5,0,0,1,330.113,510.5Zm-24,0a6.5,6.5,0,1,1,6.5,6.5A6.5,6.5,0,0,1,306.113,510.5Zm-24,0a6.5,6.5,0,1,1,6.5,6.5A6.5,6.5,0,0,1,282.113,510.5Zm-24,0a6.5,6.5,0,1,1,6.5,6.5A6.5,6.5,0,0,1,258.113,510.5Zm-24,0a6.5,6.5,0,1,1,6.5,6.5A6.5,6.5,0,0,1,234.113,510.5Zm-24,0a6.5,6.5,0,1,1,6.5,6.5A6.5,6.5,0,0,1,210.114,510.5Zm-24,0a6.5,6.5,0,1,1,6.5,6.5A6.5,6.5,0,0,1,186.113,510.5Zm-24,0a6.5,6.5,0,1,1,6.5,6.5A6.5,6.5,0,0,1,162.113,510.5Zm-24,0a6.5,6.5,0,1,1,6.5,6.5A6.5,6.5,0,0,1,138.114,510.5Zm-24,0a6.5,6.5,0,1,1,6.5,6.5A6.5,6.5,0,0,1,114.113,510.5Zm-24,0a6.5,6.5,0,1,1,6.5,6.5A6.5,6.5,0,0,1,90.113,510.5Zm-24,0a6.5,6.5,0,1,1,6.5,6.5A6.5,6.5,0,0,1,66.113,510.5Zm-24,0a6.5,6.5,0,1,1,6.5,6.5A6.5,6.5,0,0,1,42.113,510.5Zm-24,0a6.5,6.5,0,1,1,6.5,6.5A6.5,6.5,0,0,1,18.113,510.5Zm700.393-2.434q-.567-1.58-1.177-3.175a6.5,6.5,0,1,1,4.042,12.065C720.432,513.849,719.5,510.857,718.505,508.066ZM.585,511.856V504H.613a6.5,6.5,0,0,1,.8,12.951Q.912,514.441.585,511.856ZM450.113,510.5a6.489,6.489,0,0,1,.217-1.673c1.507,2.578,3.112,5.278,4.779,8A6.5,6.5,0,0,1,450.113,510.5Zm72,0a6.5,6.5,0,0,1,10.34-5.245c-3.326,1.869-6.812,3.775-10.331,5.594C522.116,510.735,522.113,510.618,522.113,510.5Zm432-24a6.5,6.5,0,1,1,6.5,6.5A6.5,6.5,0,0,1,954.113,486.5Zm-24,0a6.5,6.5,0,1,1,6.5,6.5A6.5,6.5,0,0,1,930.114,486.5Zm-24,0a6.5,6.5,0,1,1,6.5,6.5A6.5,6.5,0,0,1,906.114,486.5Zm-24,0a6.5,6.5,0,1,1,12.437,2.65q-.4-1.152-.814-2.3a45.7,45.7,0,0,1-2.614,5.647,6.5,6.5,0,0,1-9.01-6Zm-144,0a6.5,6.5,0,1,1,6.5,6.5A6.5,6.5,0,0,1,738.113,486.5Zm-24,0a6.5,6.5,0,1,1,6.5,6.5A6.5,6.5,0,0,1,714.114,486.5Zm-168,0a6.5,6.5,0,1,1,6.5,6.5A6.5,6.5,0,0,1,546.114,486.5Zm-24,0a6.5,6.5,0,1,1,6.5,6.5A6.5,6.5,0,0,1,522.113,486.5Zm-24,0a6.5,6.5,0,1,1,6.5,6.5A6.5,6.5,0,0,1,498.114,486.5Zm-24,0a6.5,6.5,0,1,1,6.5,6.5A6.5,6.5,0,0,1,474.114,486.5Zm-48,0a6.508,6.508,0,0,1,7.755-6.379q2.354,4.381,4.828,8.672a6.5,6.5,0,0,1-12.584-2.292Zm-24,0a6.5,6.5,0,1,1,6.5,6.5A6.5,6.5,0,0,1,402.113,486.5Zm-24,0a6.5,6.5,0,1,1,6.5,6.5A6.5,6.5,0,0,1,378.113,486.5Zm-24,0a6.5,6.5,0,1,1,6.5,6.5A6.5,6.5,0,0,1,354.113,486.5Zm-24,0a6.5,6.5,0,1,1,6.5,6.5A6.5,6.5,0,0,1,330.113,486.5Zm-24,0a6.5,6.5,0,1,1,6.5,6.5A6.5,6.5,0,0,1,306.113,486.5Zm-24,0a6.5,6.5,0,1,1,6.5,6.5A6.5,6.5,0,0,1,282.113,486.5Zm-24,0a6.5,6.5,0,1,1,6.5,6.5A6.5,6.5,0,0,1,258.113,486.5Zm-24,0a6.5,6.5,0,1,1,6.5,6.5A6.5,6.5,0,0,1,234.113,486.5Zm-24,0a6.5,6.5,0,1,1,6.5,6.5A6.5,6.5,0,0,1,210.114,486.5Zm-24,0a6.5,6.5,0,1,1,6.5,6.5A6.5,6.5,0,0,1,186.113,486.5Zm-24,0a6.5,6.5,0,1,1,6.5,6.5A6.5,6.5,0,0,1,162.113,486.5Zm-24,0a6.5,6.5,0,1,1,6.5,6.5A6.5,6.5,0,0,1,138.114,486.5Zm-24,0a6.5,6.5,0,1,1,6.5,6.5A6.5,6.5,0,0,1,114.113,486.5Zm-24,0a6.5,6.5,0,1,1,6.5,6.5A6.5,6.5,0,0,1,90.113,486.5Zm-24,0a6.5,6.5,0,1,1,6.5,6.5A6.5,6.5,0,0,1,66.113,486.5Zm-24,0a6.5,6.5,0,1,1,6.5,6.5A6.5,6.5,0,0,1,42.113,486.5Zm-24,0a6.5,6.5,0,1,1,6.5,6.5A6.5,6.5,0,0,1,18.113,486.5ZM.585,493v-4.693q.475-4.217,1.275-8.188A6.5,6.5,0,0,1,.613,493Zm761.529-6.5a6.5,6.5,0,0,1,12.259-3.016c-2.9,3.255-5.486,6.4-7.568,9.26A6.5,6.5,0,0,1,762.114,486.5Zm-307.46-6.2a6.5,6.5,0,0,1,5.424,11.7C458.592,488.867,456.76,484.876,454.654,480.3Zm499.46-17.8a6.5,6.5,0,0,1,12.049-3.387c-3.5,4.071-5.137,7.221-5.488,9.886h-.061A6.5,6.5,0,0,1,954.113,462.5Zm-24,0a6.5,6.5,0,1,1,6.5,6.5A6.5,6.5,0,0,1,930.114,462.5Zm-24,0a6.5,6.5,0,1,1,6.5,6.5A6.5,6.5,0,0,1,906.114,462.5Zm-24,0a6.5,6.5,0,1,1,6.5,6.5A6.5,6.5,0,0,1,882.113,462.5Zm-120,0a6.5,6.5,0,1,1,6.5,6.5A6.5,6.5,0,0,1,762.114,462.5Zm-24,0a6.5,6.5,0,1,1,6.5,6.5A6.5,6.5,0,0,1,738.113,462.5Zm-24,0a6.5,6.5,0,1,1,6.5,6.5A6.5,6.5,0,0,1,714.114,462.5Zm-144,0a6.5,6.5,0,1,1,6.5,6.5A6.5,6.5,0,0,1,570.114,462.5Zm-24,0a6.5,6.5,0,1,1,6.5,6.5A6.5,6.5,0,0,1,546.114,462.5Zm-24,0a6.5,6.5,0,1,1,6.5,6.5A6.5,6.5,0,0,1,522.113,462.5Zm-24,0a6.5,6.5,0,1,1,6.5,6.5A6.5,6.5,0,0,1,498.114,462.5Zm-24,0a6.5,6.5,0,1,1,6.5,6.5A6.5,6.5,0,0,1,474.114,462.5Zm-24,0a6.5,6.5,0,1,1,6.5,6.5A6.5,6.5,0,0,1,450.113,462.5Zm-48,0a6.5,6.5,0,1,1,6.5,6.5A6.5,6.5,0,0,1,402.113,462.5Zm-24,0a6.5,6.5,0,1,1,6.5,6.5A6.5,6.5,0,0,1,378.113,462.5Zm-24,0a6.5,6.5,0,1,1,6.5,6.5A6.5,6.5,0,0,1,354.113,462.5Zm-24,0a6.5,6.5,0,1,1,6.5,6.5A6.5,6.5,0,0,1,330.113,462.5Zm-24,0a6.5,6.5,0,1,1,6.5,6.5A6.5,6.5,0,0,1,306.113,462.5Zm-24,0a6.5,6.5,0,1,1,6.5,6.5A6.5,6.5,0,0,1,282.113,462.5Zm-24,0a6.5,6.5,0,1,1,6.5,6.5A6.5,6.5,0,0,1,258.113,462.5Zm-24,0a6.5,6.5,0,1,1,6.5,6.5A6.5,6.5,0,0,1,234.113,462.5Zm-24,0a6.5,6.5,0,1,1,6.5,6.5A6.5,6.5,0,0,1,210.114,462.5Zm-24,0a6.5,6.5,0,1,1,6.5,6.5A6.5,6.5,0,0,1,186.113,462.5Zm-24,0a6.5,6.5,0,1,1,6.5,6.5A6.5,6.5,0,0,1,162.113,462.5Zm-24,0a6.5,6.5,0,1,1,6.5,6.5A6.5,6.5,0,0,1,138.114,462.5Zm-24,0a6.5,6.5,0,1,1,6.5,6.5A6.5,6.5,0,0,1,114.113,462.5Zm-24,0a6.5,6.5,0,1,1,6.5,6.5A6.5,6.5,0,0,1,90.113,462.5Zm-24,0a6.5,6.5,0,1,1,6.5,6.5A6.5,6.5,0,0,1,66.113,462.5Zm-24,0a6.5,6.5,0,1,1,6.5,6.5A6.5,6.5,0,0,1,42.113,462.5Zm-24,0a6.5,6.5,0,1,1,6.5,6.5A6.5,6.5,0,0,1,18.113,462.5Zm844.645,2.173q-1.766-3.081-3.556-5.776a6.5,6.5,0,1,1,5.6,10.1C864.043,467.249,863.361,465.762,862.757,464.674ZM786.114,462.5a6.5,6.5,0,0,1,12.436-2.651c-2.945,2.523-6.062,5.332-9.185,8.282A6.5,6.5,0,0,1,786.114,462.5Zm-779,.218A6.479,6.479,0,0,1,5.6,466.675Q6.313,464.67,7.109,462.719Zm693.626-5.245a6.508,6.508,0,0,1,1.715,7.89C701.758,462.74,701.174,460.107,700.735,457.474ZM1002.113,438.5a6.5,6.5,0,1,1,6.5,6.5A6.5,6.5,0,0,1,1002.113,438.5Zm-24,0a6.5,6.5,0,1,1,6.5,6.5A6.5,6.5,0,0,1,978.114,438.5Zm-24,0a6.5,6.5,0,1,1,6.5,6.5A6.5,6.5,0,0,1,954.113,438.5Zm-24,0a6.5,6.5,0,1,1,6.5,6.5A6.5,6.5,0,0,1,930.114,438.5Zm-24,0a6.5,6.5,0,1,1,6.5,6.5A6.5,6.5,0,0,1,906.114,438.5Zm-24,0a6.5,6.5,0,1,1,6.5,6.5A6.5,6.5,0,0,1,882.113,438.5Zm-24,0a6.5,6.5,0,1,1,6.5,6.5A6.5,6.5,0,0,1,858.114,438.5Zm-48,0a6.5,6.5,0,1,1,6.5,6.5A6.5,6.5,0,0,1,810.113,438.5Zm-24,0a6.5,6.5,0,1,1,6.5,6.5A6.5,6.5,0,0,1,786.114,438.5Zm-24,0a6.5,6.5,0,1,1,6.5,6.5A6.5,6.5,0,0,1,762.114,438.5Zm-24,0a6.5,6.5,0,1,1,6.5,6.5A6.5,6.5,0,0,1,738.113,438.5Zm-24,0a6.5,6.5,0,1,1,6.5,6.5A6.5,6.5,0,0,1,714.114,438.5Zm-24,0a6.5,6.5,0,1,1,9.777,5.614q.049-.919.13-1.839-.582,1.247-1.18,2.333a6.5,6.5,0,0,1-8.726-6.108Zm-120,0a6.5,6.5,0,1,1,6.5,6.5A6.5,6.5,0,0,1,570.114,438.5Zm-24,0a6.5,6.5,0,1,1,6.5,6.5A6.5,6.5,0,0,1,546.114,438.5Zm-24,0a6.5,6.5,0,1,1,6.5,6.5A6.5,6.5,0,0,1,522.113,438.5Zm-24,0a6.5,6.5,0,1,1,6.5,6.5A6.5,6.5,0,0,1,498.114,438.5Zm-24,0a6.5,6.5,0,1,1,6.5,6.5A6.5,6.5,0,0,1,474.114,438.5Zm-24,0a6.5,6.5,0,1,1,6.5,6.5A6.5,6.5,0,0,1,450.113,438.5Zm-48,0a6.5,6.5,0,0,1,9.37-5.834q1.669,3.849,3.359,7.7a6.5,6.5,0,0,1-12.729-1.864Zm-24,0a6.5,6.5,0,1,1,6.5,6.5A6.5,6.5,0,0,1,378.113,438.5Zm-24,0a6.5,6.5,0,1,1,6.5,6.5A6.5,6.5,0,0,1,354.113,438.5Zm-24,0a6.5,6.5,0,1,1,6.5,6.5A6.5,6.5,0,0,1,330.113,438.5Zm-24,0a6.5,6.5,0,1,1,6.5,6.5A6.5,6.5,0,0,1,306.113,438.5Zm-24,0a6.5,6.5,0,1,1,6.5,6.5A6.5,6.5,0,0,1,282.113,438.5Zm-24,0a6.5,6.5,0,1,1,6.5,6.5A6.5,6.5,0,0,1,258.113,438.5Zm-24,0a6.5,6.5,0,1,1,6.5,6.5A6.5,6.5,0,0,1,234.113,438.5Zm-24,0a6.5,6.5,0,1,1,6.5,6.5A6.5,6.5,0,0,1,210.114,438.5Zm-24,0a6.5,6.5,0,1,1,6.5,6.5A6.5,6.5,0,0,1,186.113,438.5Zm-24,0a6.5,6.5,0,1,1,6.5,6.5A6.5,6.5,0,0,1,162.113,438.5Zm-24,0a6.5,6.5,0,1,1,6.5,6.5A6.5,6.5,0,0,1,138.114,438.5Zm-24,0a6.5,6.5,0,1,1,6.5,6.5A6.5,6.5,0,0,1,114.113,438.5Zm-24,0a6.5,6.5,0,1,1,6.5,6.5A6.5,6.5,0,0,1,90.113,438.5Zm-24,0a6.5,6.5,0,1,1,6.5,6.5A6.5,6.5,0,0,1,66.113,438.5Zm-24,0a6.5,6.5,0,1,1,6.5,6.5A6.5,6.5,0,0,1,42.113,438.5ZM18.7,441.2c2.058-3.109,4.224-6.154,6.47-9.175A6.5,6.5,0,1,1,18.7,441.2Zm647.738-4.731a6.5,6.5,0,1,1,7.593,8.377C671.439,442.263,668.89,439.334,666.437,436.469ZM594.113,438.5a6.486,6.486,0,0,1,.482-2.461q1.168,1.47,2.282,2.984a24.041,24.041,0,0,1,.82,5.287A6.5,6.5,0,0,1,594.113,438.5Zm241.163,3.712a6.5,6.5,0,1,1,8.5,1.965A22.37,22.37,0,0,0,835.277,442.212ZM431.1,432.178a6.5,6.5,0,0,1,5.862,11.156C435.044,439.579,433.081,435.831,431.1,432.178Zm595.015,6.322a6.5,6.5,0,0,1,10.838-4.842,68.55,68.55,0,0,1-10.508,6.888A6.491,6.491,0,0,1,1026.113,438.5Zm0-24a6.5,6.5,0,1,1,6.5,6.5A6.5,6.5,0,0,1,1026.113,414.5Zm-24,0a6.5,6.5,0,1,1,6.5,6.5A6.5,6.5,0,0,1,1002.113,414.5Zm-24,0a6.5,6.5,0,1,1,6.5,6.5A6.5,6.5,0,0,1,978.114,414.5Zm-24,0a6.5,6.5,0,1,1,6.5,6.5A6.5,6.5,0,0,1,954.113,414.5Zm-24,0a6.5,6.5,0,1,1,6.5,6.5A6.5,6.5,0,0,1,930.114,414.5Zm-24,0a6.5,6.5,0,1,1,6.5,6.5A6.5,6.5,0,0,1,906.114,414.5Zm-24,0a6.5,6.5,0,1,1,6.5,6.5A6.5,6.5,0,0,1,882.113,414.5Zm-24,0a6.5,6.5,0,1,1,6.5,6.5A6.5,6.5,0,0,1,858.114,414.5Zm-24,0a6.5,6.5,0,1,1,6.5,6.5A6.5,6.5,0,0,1,834.114,414.5Zm-24,0a6.5,6.5,0,1,1,6.5,6.5A6.5,6.5,0,0,1,810.113,414.5Zm-24,0a6.5,6.5,0,1,1,6.5,6.5A6.5,6.5,0,0,1,786.114,414.5Zm-24,0a6.5,6.5,0,1,1,6.5,6.5A6.5,6.5,0,0,1,762.114,414.5Zm-24,0a6.5,6.5,0,1,1,6.5,6.5A6.5,6.5,0,0,1,738.113,414.5Zm-24,0a6.5,6.5,0,1,1,6.5,6.5A6.5,6.5,0,0,1,714.114,414.5Zm-24,0a6.5,6.5,0,1,1,6.5,6.5A6.5,6.5,0,0,1,690.114,414.5Zm-24,0a6.5,6.5,0,1,1,6.5,6.5A6.5,6.5,0,0,1,666.113,414.5Zm-96,0c0-.147,0-.292.014-.437.29.031.581.071.87.123q4.313,2.912,8.312,6.23a6.5,6.5,0,0,1-9.2-5.916Zm-19.375,6.225c1.13-.531,2.247-1.089,3.353-1.647,1.552-.783,3.084-1.566,4.6-2.275a6.508,6.508,0,0,1-7.954,3.922ZM498.114,414.5a6.5,6.5,0,1,1,6.5,6.5A6.5,6.5,0,0,1,498.114,414.5Zm-24,0a6.5,6.5,0,1,1,6.5,6.5A6.5,6.5,0,0,1,474.114,414.5Zm-24,0a6.5,6.5,0,1,1,6.5,6.5A6.5,6.5,0,0,1,450.113,414.5Zm-24,0a6.5,6.5,0,1,1,6.5,6.5A6.5,6.5,0,0,1,426.113,414.5Zm-48,0a6.5,6.5,0,1,1,6.5,6.5A6.5,6.5,0,0,1,378.113,414.5Zm-24,0a6.5,6.5,0,1,1,6.5,6.5A6.5,6.5,0,0,1,354.113,414.5Zm-24,0a6.5,6.5,0,1,1,6.5,6.5A6.5,6.5,0,0,1,330.113,414.5Zm-24,0a6.5,6.5,0,1,1,6.5,6.5A6.5,6.5,0,0,1,306.113,414.5Zm-24,0a6.5,6.5,0,1,1,6.5,6.5A6.5,6.5,0,0,1,282.113,414.5Zm-24,0a6.5,6.5,0,1,1,6.5,6.5A6.5,6.5,0,0,1,258.113,414.5Zm-24,0a6.5,6.5,0,1,1,6.5,6.5A6.5,6.5,0,0,1,234.113,414.5Zm-24,0a6.5,6.5,0,1,1,6.5,6.5A6.5,6.5,0,0,1,210.114,414.5Zm-24,0a6.5,6.5,0,1,1,6.5,6.5A6.5,6.5,0,0,1,186.113,414.5Zm-24,0a6.5,6.5,0,1,1,6.5,6.5A6.5,6.5,0,0,1,162.113,414.5Zm-24,0a6.5,6.5,0,1,1,6.5,6.5A6.5,6.5,0,0,1,138.114,414.5Zm-24,0a6.5,6.5,0,1,1,6.5,6.5A6.5,6.5,0,0,1,114.113,414.5Zm-24,0a6.5,6.5,0,1,1,6.5,6.5A6.5,6.5,0,0,1,90.113,414.5Zm-24,0a6.5,6.5,0,1,1,6.5,6.5A6.5,6.5,0,0,1,66.113,414.5Zm-24,0a6.5,6.5,0,1,1,6.5,6.5A6.5,6.5,0,0,1,42.113,414.5Zm480.1,1.128a24.939,24.939,0,0,0,5.171,5.255A6.5,6.5,0,0,1,522.211,415.628Zm120.6,1.808a6.5,6.5,0,1,1,7.15,3.424A37.848,37.848,0,0,0,642.813,417.436Zm-240.7-2.936a6.473,6.473,0,0,1,.469-2.427q1.841,4.231,3.674,8.486A6.5,6.5,0,0,1,402.113,414.5Zm648,0a6.5,6.5,0,0,1,5.836-6.466,58.854,58.854,0,0,1-4.9,9.839A6.472,6.472,0,0,1,1050.114,414.5Zm-429.287.737q-1.309.022-2.668.041a6.5,6.5,0,1,1,12.907,0C627.827,415.112,624.461,415.174,620.827,415.238Zm-18.183-.46q-4.2-.787-8.349-1.812a6.5,6.5,0,0,1,12.818,1.534q0,.305-.027.6Q604.936,414.986,602.645,414.778ZM1050.114,390.5a6.5,6.5,0,0,1,9.827-5.585,62.541,62.541,0,0,1-.841,11.592,6.5,6.5,0,0,1-8.986-6.007Zm-24,0a6.5,6.5,0,1,1,6.5,6.5A6.5,6.5,0,0,1,1026.113,390.5Zm-24,0a6.5,6.5,0,1,1,6.5,6.5A6.5,6.5,0,0,1,1002.113,390.5Zm-24,0a6.5,6.5,0,1,1,6.5,6.5A6.5,6.5,0,0,1,978.114,390.5Zm-24,0a6.5,6.5,0,1,1,6.5,6.5A6.5,6.5,0,0,1,954.113,390.5Zm-24,0a6.5,6.5,0,1,1,6.5,6.5A6.5,6.5,0,0,1,930.114,390.5Zm-24,0a6.5,6.5,0,1,1,6.5,6.5A6.5,6.5,0,0,1,906.114,390.5Zm-24,0a6.5,6.5,0,1,1,6.5,6.5A6.5,6.5,0,0,1,882.113,390.5Zm-24,0a6.5,6.5,0,1,1,6.5,6.5A6.5,6.5,0,0,1,858.114,390.5Zm-24,0a6.5,6.5,0,1,1,6.5,6.5A6.5,6.5,0,0,1,834.114,390.5Zm-24,0a6.5,6.5,0,1,1,6.5,6.5A6.5,6.5,0,0,1,810.113,390.5Zm-24,0a6.5,6.5,0,1,1,6.5,6.5A6.5,6.5,0,0,1,786.114,390.5Zm-24,0a6.5,6.5,0,1,1,6.5,6.5A6.5,6.5,0,0,1,762.114,390.5Zm-24,0a6.5,6.5,0,1,1,6.5,6.5A6.5,6.5,0,0,1,738.113,390.5Zm-24,0a6.5,6.5,0,1,1,6.5,6.5A6.5,6.5,0,0,1,714.114,390.5Zm-24,0a6.5,6.5,0,1,1,6.5,6.5A6.5,6.5,0,0,1,690.114,390.5Zm-24,0a6.5,6.5,0,1,1,6.5,6.5A6.5,6.5,0,0,1,666.113,390.5Zm-24,0a6.5,6.5,0,1,1,6.5,6.5A6.5,6.5,0,0,1,642.114,390.5Zm-24,0a6.5,6.5,0,1,1,6.5,6.5A6.5,6.5,0,0,1,618.114,390.5Zm-24,0a6.5,6.5,0,1,1,6.5,6.5A6.5,6.5,0,0,1,594.113,390.5Zm-24,0a6.5,6.5,0,1,1,6.5,6.5A6.5,6.5,0,0,1,570.114,390.5Zm-24,0a6.5,6.5,0,1,1,6.5,6.5A6.5,6.5,0,0,1,546.114,390.5Zm-48,0a6.505,6.505,0,0,1,7.793-6.372c1.3,3,2.743,6.318,4.283,9.712a6.5,6.5,0,0,1-12.076-3.34Zm-24,0a6.5,6.5,0,1,1,6.5,6.5A6.5,6.5,0,0,1,474.114,390.5Zm-24,0a6.5,6.5,0,1,1,6.5,6.5A6.5,6.5,0,0,1,450.113,390.5Zm-24,0a6.5,6.5,0,1,1,6.5,6.5A6.5,6.5,0,0,1,426.113,390.5Zm-19.28,6.253a27.232,27.232,0,0,0-3.848-3,6.487,6.487,0,1,1,3.848,3ZM378.113,390.5a6.5,6.5,0,1,1,6.5,6.5A6.5,6.5,0,0,1,378.113,390.5Zm-24,0a6.5,6.5,0,1,1,6.5,6.5A6.5,6.5,0,0,1,354.113,390.5Zm-24,0a6.5,6.5,0,1,1,6.5,6.5A6.5,6.5,0,0,1,330.113,390.5Zm-24,0a6.5,6.5,0,1,1,6.5,6.5A6.5,6.5,0,0,1,306.113,390.5Zm-24,0a6.5,6.5,0,1,1,6.5,6.5A6.5,6.5,0,0,1,282.113,390.5Zm-24,0a6.5,6.5,0,1,1,6.5,6.5A6.5,6.5,0,0,1,258.113,390.5Zm-24,0a6.5,6.5,0,1,1,6.5,6.5A6.5,6.5,0,0,1,234.113,390.5Zm-24,0a6.5,6.5,0,1,1,6.5,6.5A6.5,6.5,0,0,1,210.114,390.5Zm-24,0a6.5,6.5,0,1,1,6.5,6.5A6.5,6.5,0,0,1,186.113,390.5Zm-24,0a6.5,6.5,0,1,1,6.5,6.5A6.5,6.5,0,0,1,162.113,390.5Zm-24,0a6.5,6.5,0,1,1,6.5,6.5A6.5,6.5,0,0,1,138.114,390.5Zm-24,0a6.5,6.5,0,1,1,6.5,6.5A6.5,6.5,0,0,1,114.113,390.5Zm-24,0a6.5,6.5,0,1,1,6.5,6.5A6.5,6.5,0,0,1,90.113,390.5Zm-24,0a6.5,6.5,0,1,1,6.5,6.5A6.5,6.5,0,0,1,66.113,390.5Zm461.719-6.455a6.594,6.594,0,0,1,.781-.046,6.5,6.5,0,0,1,6.381,5.253C532.628,387.5,530.226,385.731,527.832,384.046ZM1050.114,366.5a6.5,6.5,0,0,1,3.932-5.973,24,24,0,0,1,5.02,11.994,6.5,6.5,0,0,1-8.952-6.021Zm-24,0a6.5,6.5,0,1,1,6.5,6.5A6.5,6.5,0,0,1,1026.113,366.5Zm-24,0a6.5,6.5,0,1,1,6.5,6.5A6.5,6.5,0,0,1,1002.113,366.5Zm-24,0a6.5,6.5,0,1,1,6.5,6.5A6.5,6.5,0,0,1,978.114,366.5Zm-24,0a6.5,6.5,0,1,1,6.5,6.5A6.5,6.5,0,0,1,954.113,366.5Zm-24,0a6.5,6.5,0,1,1,6.5,6.5A6.5,6.5,0,0,1,930.114,366.5Zm-24,0a6.5,6.5,0,1,1,6.5,6.5A6.5,6.5,0,0,1,906.114,366.5Zm-24,0a6.5,6.5,0,1,1,6.5,6.5A6.5,6.5,0,0,1,882.113,366.5Zm-24,0a6.5,6.5,0,1,1,6.5,6.5A6.5,6.5,0,0,1,858.114,366.5Zm-24,0a6.5,6.5,0,1,1,6.5,6.5A6.5,6.5,0,0,1,834.114,366.5Zm-24,0a6.5,6.5,0,1,1,6.5,6.5A6.5,6.5,0,0,1,810.113,366.5Zm-24,0a6.5,6.5,0,1,1,6.5,6.5A6.5,6.5,0,0,1,786.114,366.5Zm-24,0a6.5,6.5,0,1,1,6.5,6.5A6.5,6.5,0,0,1,762.114,366.5Zm-24,0a6.5,6.5,0,1,1,6.5,6.5A6.5,6.5,0,0,1,738.113,366.5Zm-24,0a6.5,6.5,0,1,1,6.5,6.5A6.5,6.5,0,0,1,714.114,366.5Zm-24,0a6.5,6.5,0,1,1,6.5,6.5A6.5,6.5,0,0,1,690.114,366.5Zm-24,0a6.5,6.5,0,1,1,6.5,6.5A6.5,6.5,0,0,1,666.113,366.5Zm-24,0a6.5,6.5,0,1,1,6.5,6.5A6.5,6.5,0,0,1,642.114,366.5Zm-24,0a6.5,6.5,0,1,1,6.5,6.5A6.5,6.5,0,0,1,618.114,366.5Zm-24,0a6.5,6.5,0,1,1,6.5,6.5A6.5,6.5,0,0,1,594.113,366.5Zm-24,0a6.5,6.5,0,1,1,6.5,6.5A6.5,6.5,0,0,1,570.114,366.5Zm-24,0a6.5,6.5,0,1,1,6.5,6.5A6.5,6.5,0,0,1,546.114,366.5Zm-24,0a6.5,6.5,0,1,1,6.5,6.5A6.5,6.5,0,0,1,522.113,366.5Zm-24,0a6.5,6.5,0,1,1,6.5,6.5A6.5,6.5,0,0,1,498.114,366.5Zm-24,0a6.5,6.5,0,1,1,6.5,6.5A6.5,6.5,0,0,1,474.114,366.5Zm-24,0a6.5,6.5,0,1,1,6.5,6.5A6.5,6.5,0,0,1,450.113,366.5Zm-24,0a6.5,6.5,0,1,1,6.5,6.5A6.5,6.5,0,0,1,426.113,366.5Zm-24,0a6.5,6.5,0,1,1,6.5,6.5A6.5,6.5,0,0,1,402.113,366.5Zm-24,.044c5.251-.279,9.275-1.224,12.394-2.789a6.5,6.5,0,1,1-12.394,2.789Zm-24-.044a6.483,6.483,0,0,1,.4-2.24,85.041,85.041,0,0,0,11.46,1.95c.383.033.765.066,1.14.1,0,.065,0,.13,0,.194a6.5,6.5,0,0,1-13,0Zm-24,0a6.5,6.5,0,1,1,6.5,6.5A6.5,6.5,0,0,1,330.113,366.5Zm-24,0a6.5,6.5,0,1,1,6.5,6.5A6.5,6.5,0,0,1,306.113,366.5Zm-19.469,6.2c.958-5.161,2.846-8.963,5.444-11.69a6.5,6.5,0,0,1-5.444,11.69Zm-28.531-6.2a6.485,6.485,0,0,1,2.281-4.945c3.573,1.641,7.16,3.251,10.719,4.861v.084a6.5,6.5,0,1,1-13,0Zm-24,0a6.5,6.5,0,1,1,6.5,6.5A6.5,6.5,0,0,1,234.113,366.5Zm-24,0a6.5,6.5,0,1,1,6.5,6.5A6.5,6.5,0,0,1,210.114,366.5Zm-24,0a6.5,6.5,0,1,1,6.5,6.5A6.5,6.5,0,0,1,186.113,366.5Zm-24,0a6.5,6.5,0,1,1,6.5,6.5A6.5,6.5,0,0,1,162.113,366.5Zm-24,0a6.5,6.5,0,1,1,6.5,6.5A6.5,6.5,0,0,1,138.114,366.5Zm-24,0a6.5,6.5,0,1,1,6.5,6.5A6.5,6.5,0,0,1,114.113,366.5Zm-24,0a6.5,6.5,0,1,1,6.5,6.5A6.5,6.5,0,0,1,90.113,366.5Zm-21.506,5.118c.169-.325.335-.647.5-.974a46.3,46.3,0,0,0,3.905-10.633,6.5,6.5,0,1,1-4.407,11.606ZM1026.113,342.5a6.506,6.506,0,0,1,8.933-6.03,70.085,70.085,0,0,0,4.066,5.88c0,.049,0,.1,0,.15a6.5,6.5,0,0,1-13,0Zm-24,0a6.5,6.5,0,1,1,6.5,6.5A6.5,6.5,0,0,1,1002.113,342.5Zm-24,0a6.5,6.5,0,1,1,6.5,6.5A6.5,6.5,0,0,1,978.114,342.5Zm-24,0a6.5,6.5,0,1,1,6.5,6.5A6.5,6.5,0,0,1,954.113,342.5Zm-24,0a6.5,6.5,0,1,1,6.5,6.5A6.5,6.5,0,0,1,930.114,342.5Zm-24,0a6.5,6.5,0,1,1,6.5,6.5A6.5,6.5,0,0,1,906.114,342.5Zm-24,0a6.5,6.5,0,1,1,6.5,6.5A6.5,6.5,0,0,1,882.113,342.5Zm-24,0a6.5,6.5,0,1,1,6.5,6.5A6.5,6.5,0,0,1,858.114,342.5Zm-24,0a6.5,6.5,0,1,1,6.5,6.5A6.5,6.5,0,0,1,834.114,342.5Zm-24,0a6.5,6.5,0,1,1,6.5,6.5A6.5,6.5,0,0,1,810.113,342.5Zm-24,0a6.5,6.5,0,1,1,6.5,6.5A6.5,6.5,0,0,1,786.114,342.5Zm-24,0a6.5,6.5,0,1,1,6.5,6.5A6.5,6.5,0,0,1,762.114,342.5Zm-24,0a6.5,6.5,0,1,1,6.5,6.5A6.5,6.5,0,0,1,738.113,342.5Zm-24,0a6.5,6.5,0,1,1,6.5,6.5A6.5,6.5,0,0,1,714.114,342.5Zm-24,0a6.5,6.5,0,1,1,6.5,6.5A6.5,6.5,0,0,1,690.114,342.5Zm-24,0a6.5,6.5,0,1,1,6.5,6.5A6.5,6.5,0,0,1,666.113,342.5Zm-24,0a6.5,6.5,0,1,1,6.5,6.5A6.5,6.5,0,0,1,642.114,342.5Zm-24,0a6.5,6.5,0,1,1,6.5,6.5A6.5,6.5,0,0,1,618.114,342.5Zm-24,0a6.5,6.5,0,1,1,6.5,6.5A6.5,6.5,0,0,1,594.113,342.5Zm-24,0a6.5,6.5,0,1,1,6.5,6.5A6.5,6.5,0,0,1,570.114,342.5Zm-24,0a6.5,6.5,0,1,1,6.5,6.5A6.5,6.5,0,0,1,546.114,342.5Zm-24,0a6.5,6.5,0,1,1,6.5,6.5A6.5,6.5,0,0,1,522.113,342.5Zm-24,0a6.5,6.5,0,1,1,6.5,6.5A6.5,6.5,0,0,1,498.114,342.5Zm-24,0a6.5,6.5,0,1,1,6.5,6.5A6.5,6.5,0,0,1,474.114,342.5Zm-24,0a6.5,6.5,0,1,1,6.5,6.5A6.5,6.5,0,0,1,450.113,342.5Zm-24,0a6.5,6.5,0,1,1,6.5,6.5A6.5,6.5,0,0,1,426.113,342.5Zm-24,0a6.5,6.5,0,1,1,6.5,6.5A6.5,6.5,0,0,1,402.113,342.5Zm-192,0a6.507,6.507,0,0,1,8.129-6.295c.771,1.876,2.246,3.333,4.753,5.057a6.5,6.5,0,1,1-12.882,1.237Zm-24,0a6.5,6.5,0,1,1,6.5,6.5A6.5,6.5,0,0,1,186.113,342.5Zm-24,0a6.5,6.5,0,1,1,6.5,6.5A6.5,6.5,0,0,1,162.113,342.5Zm-24,0a6.5,6.5,0,1,1,6.5,6.5A6.5,6.5,0,0,1,138.114,342.5Zm-24,0a6.5,6.5,0,1,1,6.5,6.5A6.5,6.5,0,0,1,114.113,342.5Zm-24,0a6.5,6.5,0,1,1,6.5,6.5A6.5,6.5,0,0,1,90.113,342.5ZM78.87,344.269a6.507,6.507,0,0,1-2.31,3.4A20.141,20.141,0,0,1,78.87,344.269ZM1002.113,318.5a6.5,6.5,0,1,1,6.5,6.5A6.5,6.5,0,0,1,1002.113,318.5Zm-24,0a6.5,6.5,0,1,1,6.5,6.5A6.5,6.5,0,0,1,978.114,318.5Zm-24,0a6.5,6.5,0,1,1,6.5,6.5A6.5,6.5,0,0,1,954.113,318.5Zm-24,0a6.5,6.5,0,1,1,6.5,6.5A6.5,6.5,0,0,1,930.114,318.5Zm-24,0a6.5,6.5,0,1,1,6.5,6.5A6.5,6.5,0,0,1,906.114,318.5Zm-24,0a6.5,6.5,0,1,1,6.5,6.5A6.5,6.5,0,0,1,882.113,318.5Zm-24,0a6.5,6.5,0,1,1,6.5,6.5A6.5,6.5,0,0,1,858.114,318.5Zm-24,0a6.5,6.5,0,1,1,6.5,6.5A6.5,6.5,0,0,1,834.114,318.5Zm-24,0a6.5,6.5,0,1,1,6.5,6.5A6.5,6.5,0,0,1,810.113,318.5Zm-24,0a6.5,6.5,0,1,1,6.5,6.5A6.5,6.5,0,0,1,786.114,318.5Zm-24,0a6.5,6.5,0,1,1,6.5,6.5A6.5,6.5,0,0,1,762.114,318.5Zm-24,0a6.5,6.5,0,1,1,6.5,6.5A6.5,6.5,0,0,1,738.113,318.5Zm-24,0a6.5,6.5,0,1,1,6.5,6.5A6.5,6.5,0,0,1,714.114,318.5Zm-24,0a6.5,6.5,0,1,1,6.5,6.5A6.5,6.5,0,0,1,690.114,318.5Zm-24,0a6.5,6.5,0,1,1,6.5,6.5A6.5,6.5,0,0,1,666.113,318.5Zm-24,0a6.5,6.5,0,1,1,6.5,6.5A6.5,6.5,0,0,1,642.114,318.5Zm-24,0a6.5,6.5,0,1,1,6.5,6.5A6.5,6.5,0,0,1,618.114,318.5Zm-24,0a6.5,6.5,0,1,1,6.5,6.5A6.5,6.5,0,0,1,594.113,318.5Zm-24,0a6.5,6.5,0,1,1,6.5,6.5A6.5,6.5,0,0,1,570.114,318.5Zm-24,0a6.5,6.5,0,1,1,6.5,6.5A6.5,6.5,0,0,1,546.114,318.5Zm-24,0a6.5,6.5,0,1,1,6.5,6.5A6.5,6.5,0,0,1,522.113,318.5Zm-24,0a6.5,6.5,0,1,1,6.5,6.5A6.5,6.5,0,0,1,498.114,318.5Zm-24,0a6.5,6.5,0,1,1,6.5,6.5A6.5,6.5,0,0,1,474.114,318.5Zm-24,0a6.5,6.5,0,1,1,6.5,6.5A6.5,6.5,0,0,1,450.113,318.5Zm-24,0a6.5,6.5,0,1,1,6.5,6.5A6.5,6.5,0,0,1,426.113,318.5Zm-21.529,5.1c.341-2.071.723-4.2,1.164-6.4q-1.736.089-3.548.238a6.5,6.5,0,1,1,2.384,6.164Zm-194.47-5.1a6.473,6.473,0,0,1,.544-2.607q4.36-.467,8.694-.985c-.459,3.971-.9,7.217-1.228,9.914a6.5,6.5,0,0,1-8.01-6.323Zm-24,0q0-.13.005-.257,6.43-.575,12.837-1.175a6.5,6.5,0,1,1-12.842,1.432ZM162.4,320.423q6.329-.625,12.67-1.191a6.5,6.5,0,0,1-12.67,1.191Zm-22.505,2.55q5.169-.683,10.373-1.269a6.5,6.5,0,0,1-10.373,1.269Zm886.216-4.472a6.5,6.5,0,0,1,10.659-5c-4.806,3.032-6.416,6.962-6.14,11.19A6.5,6.5,0,0,1,1026.113,318.5ZM90.344,320.224a6.5,6.5,0,1,1,11.627,1.958c-.466.026-.937.04-1.409.04A28.276,28.276,0,0,1,90.344,320.224Zm264.165-2.506-.335-.113a6.5,6.5,0,1,1,12.8,2.255A47.646,47.646,0,0,1,354.509,317.718Zm23.6.783a6.5,6.5,0,1,1,13,0c0,.016,0,.032,0,.049-4.235.458-8.581.914-12.883,1.179A6.505,6.505,0,0,1,378.113,318.5Zm-264,0a6.5,6.5,0,0,1,8.793-6.085,52.268,52.268,0,0,1-8.792,6.139C114.114,318.537,114.113,318.519,114.113,318.5Zm192.955-3.393a6.515,6.515,0,0,1,3.889-2.9,38.465,38.465,0,0,1-1.623,4.988Q308.191,316.162,307.067,315.108ZM1002.113,294.5a6.5,6.5,0,0,1,11.027-4.665l-7.9,6.741a40,40,0,0,0,4.2,4.371,6.5,6.5,0,0,1-7.323-6.448Zm-24,0a6.5,6.5,0,1,1,6.5,6.5A6.5,6.5,0,0,1,978.114,294.5Zm-24,0a6.5,6.5,0,1,1,6.5,6.5A6.5,6.5,0,0,1,954.113,294.5Zm-24,0a6.5,6.5,0,1,1,6.5,6.5A6.5,6.5,0,0,1,930.114,294.5Zm-24,0a6.5,6.5,0,1,1,6.5,6.5A6.5,6.5,0,0,1,906.114,294.5Zm-24,0a6.5,6.5,0,1,1,6.5,6.5A6.5,6.5,0,0,1,882.113,294.5Zm-24,0a6.5,6.5,0,1,1,6.5,6.5A6.5,6.5,0,0,1,858.114,294.5Zm-24,0a6.5,6.5,0,1,1,6.5,6.5A6.5,6.5,0,0,1,834.114,294.5Zm-24,0a6.5,6.5,0,1,1,6.5,6.5A6.5,6.5,0,0,1,810.113,294.5Zm-24,0a6.5,6.5,0,1,1,6.5,6.5A6.5,6.5,0,0,1,786.114,294.5Zm-24,0a6.5,6.5,0,1,1,6.5,6.5A6.5,6.5,0,0,1,762.114,294.5Zm-24,0a6.5,6.5,0,1,1,6.5,6.5A6.5,6.5,0,0,1,738.113,294.5Zm-24,0a6.5,6.5,0,1,1,6.5,6.5A6.5,6.5,0,0,1,714.114,294.5Zm-24,0a6.5,6.5,0,1,1,6.5,6.5A6.5,6.5,0,0,1,690.114,294.5Zm-24,0a6.5,6.5,0,1,1,6.5,6.5A6.5,6.5,0,0,1,666.113,294.5Zm-24,0a6.5,6.5,0,1,1,6.5,6.5A6.5,6.5,0,0,1,642.114,294.5Zm-24,0a6.5,6.5,0,1,1,6.5,6.5A6.5,6.5,0,0,1,618.114,294.5Zm-24,0a6.5,6.5,0,1,1,6.5,6.5A6.5,6.5,0,0,1,594.113,294.5Zm-24,0a6.5,6.5,0,1,1,6.5,6.5A6.5,6.5,0,0,1,570.114,294.5Zm-24,0a6.5,6.5,0,1,1,6.5,6.5A6.5,6.5,0,0,1,546.114,294.5Zm-24,0a6.5,6.5,0,1,1,6.5,6.5A6.5,6.5,0,0,1,522.113,294.5Zm-24,0a6.5,6.5,0,1,1,6.5,6.5A6.5,6.5,0,0,1,498.114,294.5Zm-24,0a6.5,6.5,0,1,1,6.5,6.5A6.5,6.5,0,0,1,474.114,294.5Zm-24,0a6.5,6.5,0,1,1,6.5,6.5A6.5,6.5,0,0,1,450.113,294.5Zm-24,0a6.5,6.5,0,1,1,6.5,6.5A6.5,6.5,0,0,1,426.113,294.5Zm-24,0a6.5,6.5,0,1,1,6.5,6.5A6.5,6.5,0,0,1,402.113,294.5Zm-24,0a6.5,6.5,0,1,1,6.5,6.5A6.5,6.5,0,0,1,378.113,294.5Zm-24,0a6.5,6.5,0,1,1,6.5,6.5A6.5,6.5,0,0,1,354.113,294.5Zm-18.741,6.381a95.742,95.742,0,0,1-1.873-12.089A6.5,6.5,0,1,1,336.613,301,6.551,6.551,0,0,1,335.372,300.882ZM114.113,294.5a6.5,6.5,0,1,1,6.5,6.5A6.5,6.5,0,0,1,114.113,294.5Zm-24,0a6.5,6.5,0,1,1,6.5,6.5A6.5,6.5,0,0,1,90.113,294.5Zm-20.2-5.916A6.5,6.5,0,1,1,72.666,301,51.666,51.666,0,0,1,69.916,288.585Zm236.2,5.916a6.5,6.5,0,0,1,3.354-5.689,38.44,38.44,0,0,1,2.605,12.166A6.5,6.5,0,0,1,306.113,294.5Zm-48,0a6.5,6.5,0,0,1,12.124-3.262c-2.6,3.38-4.908,6.656-7.092,9.595A6.5,6.5,0,0,1,258.113,294.5Zm28.077-2.285a16.813,16.813,0,0,1-1.389-2.981,6.5,6.5,0,1,1,7.589,10.556Q289.2,296.082,286.19,292.216Zm770.21-.222a14,14,0,0,0-5.3-.944,6.5,6.5,0,0,1,11.379,6.248C1060.4,294.666,1058.349,292.764,1056.4,291.993ZM138.114,294.5a6.5,6.5,0,0,1,6.5-6.5c.075,0,.149,0,.224,0-2.137,2.9-4.26,5.756-6.423,8.457A6.5,6.5,0,0,1,138.114,294.5Zm889.081-3.593a6.5,6.5,0,0,1,11.866,2.759,22.264,22.264,0,0,1-5.958,1.128A6,6,0,0,1,1027.2,290.908Zm22.919-20.408a6.5,6.5,0,1,1,6.5,6.5A6.5,6.5,0,0,1,1050.114,270.5Zm-24,0a6.5,6.5,0,1,1,6.5,6.5A6.5,6.5,0,0,1,1026.113,270.5Zm-24,0a6.5,6.5,0,1,1,6.5,6.5A6.5,6.5,0,0,1,1002.113,270.5Zm-24,0a6.5,6.5,0,1,1,6.5,6.5A6.5,6.5,0,0,1,978.114,270.5Zm-24,0a6.5,6.5,0,1,1,6.5,6.5A6.5,6.5,0,0,1,954.113,270.5Zm-24,0a6.5,6.5,0,1,1,6.5,6.5A6.5,6.5,0,0,1,930.114,270.5Zm-24,0a6.5,6.5,0,1,1,6.5,6.5A6.5,6.5,0,0,1,906.114,270.5Zm-24,0a6.5,6.5,0,1,1,6.5,6.5A6.5,6.5,0,0,1,882.113,270.5Zm-24,0a6.5,6.5,0,1,1,6.5,6.5A6.5,6.5,0,0,1,858.114,270.5Zm-24,0a6.5,6.5,0,1,1,6.5,6.5A6.5,6.5,0,0,1,834.114,270.5Zm-24,0a6.5,6.5,0,1,1,6.5,6.5A6.5,6.5,0,0,1,810.113,270.5Zm-24,0a6.5,6.5,0,1,1,6.5,6.5A6.5,6.5,0,0,1,786.114,270.5Zm-24,0a6.5,6.5,0,1,1,6.5,6.5A6.5,6.5,0,0,1,762.114,270.5Zm-24,0a6.5,6.5,0,1,1,6.5,6.5A6.5,6.5,0,0,1,738.113,270.5Zm-24,0a6.5,6.5,0,1,1,6.5,6.5A6.5,6.5,0,0,1,714.114,270.5Zm-24,0a6.5,6.5,0,1,1,6.5,6.5A6.5,6.5,0,0,1,690.114,270.5Zm-24,0a6.5,6.5,0,1,1,6.5,6.5A6.5,6.5,0,0,1,666.113,270.5Zm-24,0a6.5,6.5,0,1,1,6.5,6.5A6.5,6.5,0,0,1,642.114,270.5Zm-24,0a6.5,6.5,0,1,1,6.5,6.5A6.5,6.5,0,0,1,618.114,270.5Zm-24,0a6.5,6.5,0,1,1,6.5,6.5A6.5,6.5,0,0,1,594.113,270.5Zm-24,0a6.5,6.5,0,1,1,6.5,6.5A6.5,6.5,0,0,1,570.114,270.5Zm-24,0a6.5,6.5,0,1,1,6.5,6.5A6.5,6.5,0,0,1,546.114,270.5Zm-24,0a6.5,6.5,0,1,1,6.5,6.5A6.5,6.5,0,0,1,522.113,270.5Zm-24,0a6.5,6.5,0,1,1,6.5,6.5A6.5,6.5,0,0,1,498.114,270.5Zm-24,0a6.5,6.5,0,1,1,6.5,6.5A6.5,6.5,0,0,1,474.114,270.5Zm-24,0a6.5,6.5,0,1,1,6.5,6.5A6.5,6.5,0,0,1,450.113,270.5Zm-24,0a6.5,6.5,0,1,1,6.5,6.5A6.5,6.5,0,0,1,426.113,270.5Zm-24,0a6.5,6.5,0,1,1,6.5,6.5A6.5,6.5,0,0,1,402.113,270.5Zm-24,0a6.5,6.5,0,1,1,6.5,6.5A6.5,6.5,0,0,1,378.113,270.5Zm-24,0a6.5,6.5,0,1,1,6.5,6.5A6.5,6.5,0,0,1,354.113,270.5Zm-24,0a6.5,6.5,0,1,1,6.5,6.5A6.5,6.5,0,0,1,330.113,270.5Zm-24,0a6.5,6.5,0,1,1,6.5,6.5A6.5,6.5,0,0,1,306.113,270.5Zm-24,0a6.5,6.5,0,1,1,6.5,6.5A6.5,6.5,0,0,1,282.113,270.5Zm-144,0a6.5,6.5,0,1,1,6.5,6.5A6.5,6.5,0,0,1,138.114,270.5Zm-24,0a6.5,6.5,0,1,1,6.5,6.5A6.5,6.5,0,0,1,114.113,270.5Zm-24,0a6.5,6.5,0,1,1,6.5,6.5A6.5,6.5,0,0,1,90.113,270.5Zm-19.9,6.041a32.572,32.572,0,0,1,4.316-12.255,6.5,6.5,0,1,1-4.316,12.255Zm164.462-8.678a6.509,6.509,0,0,1,4.6-3.724,66.968,66.968,0,0,0,7.834,6.7,6.5,6.5,0,0,1-4.236,5.761A79.534,79.534,0,0,0,234.671,267.863ZM1050.114,246.5a6.5,6.5,0,1,1,6.5,6.5A6.5,6.5,0,0,1,1050.114,246.5Zm-24,0a6.5,6.5,0,1,1,6.5,6.5A6.5,6.5,0,0,1,1026.113,246.5Zm-24,0a6.5,6.5,0,1,1,6.5,6.5A6.5,6.5,0,0,1,1002.113,246.5Zm-24,0a6.5,6.5,0,1,1,6.5,6.5A6.5,6.5,0,0,1,978.114,246.5Zm-24,0a6.5,6.5,0,1,1,6.5,6.5A6.5,6.5,0,0,1,954.113,246.5Zm-24,0a6.5,6.5,0,1,1,6.5,6.5A6.5,6.5,0,0,1,930.114,246.5Zm-24,0a6.5,6.5,0,1,1,6.5,6.5A6.5,6.5,0,0,1,906.114,246.5Zm-24,0a6.5,6.5,0,1,1,6.5,6.5A6.5,6.5,0,0,1,882.113,246.5Zm-24,0a6.5,6.5,0,1,1,6.5,6.5A6.5,6.5,0,0,1,858.114,246.5Zm-24,0a6.5,6.5,0,1,1,6.5,6.5A6.5,6.5,0,0,1,834.114,246.5Zm-24,0a6.5,6.5,0,1,1,6.5,6.5A6.5,6.5,0,0,1,810.113,246.5Zm-24,0a6.5,6.5,0,1,1,6.5,6.5A6.5,6.5,0,0,1,786.114,246.5Zm-24,0a6.5,6.5,0,1,1,6.5,6.5A6.5,6.5,0,0,1,762.114,246.5Zm-24,0a6.5,6.5,0,1,1,6.5,6.5A6.5,6.5,0,0,1,738.113,246.5Zm-24,0a6.5,6.5,0,1,1,6.5,6.5A6.5,6.5,0,0,1,714.114,246.5Zm-24,0a6.5,6.5,0,1,1,6.5,6.5A6.5,6.5,0,0,1,690.114,246.5Zm-24,0a6.5,6.5,0,1,1,6.5,6.5A6.5,6.5,0,0,1,666.113,246.5Zm-24,0a6.5,6.5,0,1,1,6.5,6.5A6.5,6.5,0,0,1,642.114,246.5Zm-24,0a6.5,6.5,0,1,1,6.5,6.5A6.5,6.5,0,0,1,618.114,246.5Zm-24,0a6.5,6.5,0,1,1,6.5,6.5A6.5,6.5,0,0,1,594.113,246.5Zm-24,0a6.5,6.5,0,1,1,6.5,6.5A6.5,6.5,0,0,1,570.114,246.5Zm-24,0a6.5,6.5,0,1,1,6.5,6.5A6.5,6.5,0,0,1,546.114,246.5Zm-24,0a6.5,6.5,0,1,1,6.5,6.5A6.5,6.5,0,0,1,522.113,246.5Zm-24,0a6.5,6.5,0,1,1,6.5,6.5A6.5,6.5,0,0,1,498.114,246.5Zm-24,0a6.5,6.5,0,1,1,6.5,6.5A6.5,6.5,0,0,1,474.114,246.5Zm-24,0a6.5,6.5,0,1,1,6.5,6.5A6.5,6.5,0,0,1,450.113,246.5Zm-24,0a6.5,6.5,0,1,1,6.5,6.5A6.5,6.5,0,0,1,426.113,246.5Zm-24,0a6.5,6.5,0,1,1,6.5,6.5A6.5,6.5,0,0,1,402.113,246.5Zm-24,0a6.5,6.5,0,1,1,6.5,6.5A6.5,6.5,0,0,1,378.113,246.5Zm-24,0a6.5,6.5,0,1,1,6.5,6.5A6.5,6.5,0,0,1,354.113,246.5Zm-24,0a6.5,6.5,0,1,1,6.5,6.5A6.5,6.5,0,0,1,330.113,246.5Zm-24,0a6.5,6.5,0,1,1,6.5,6.5A6.5,6.5,0,0,1,306.113,246.5Zm-24,0a6.5,6.5,0,1,1,6.5,6.5A6.5,6.5,0,0,1,282.113,246.5Zm-24,0a6.5,6.5,0,1,1,6.5,6.5A6.5,6.5,0,0,1,258.113,246.5Zm-48,0a6.5,6.5,0,1,1,6.5,6.5A6.5,6.5,0,0,1,210.114,246.5Zm-24,0a6.5,6.5,0,1,1,6.5,6.5A6.5,6.5,0,0,1,186.113,246.5Zm-24,0a6.5,6.5,0,1,1,6.5,6.5A6.5,6.5,0,0,1,162.113,246.5Zm-24,0a6.5,6.5,0,1,1,6.5,6.5A6.5,6.5,0,0,1,138.114,246.5ZM240.473,240h.14a6.5,6.5,0,0,1,6.232,4.648C244.667,243.084,242.529,241.537,240.473,240Zm809.641-17.5a6.5,6.5,0,1,1,6.5,6.5A6.5,6.5,0,0,1,1050.114,222.5Zm-24,0a6.5,6.5,0,1,1,6.5,6.5A6.5,6.5,0,0,1,1026.113,222.5Zm-24,0a6.5,6.5,0,1,1,6.5,6.5A6.5,6.5,0,0,1,1002.113,222.5Zm-24,0a6.5,6.5,0,1,1,6.5,6.5A6.5,6.5,0,0,1,978.114,222.5Zm-24,0a6.5,6.5,0,1,1,6.5,6.5A6.5,6.5,0,0,1,954.113,222.5Zm-24,0a6.5,6.5,0,1,1,6.5,6.5A6.5,6.5,0,0,1,930.114,222.5Zm-24,0a6.5,6.5,0,1,1,6.5,6.5A6.5,6.5,0,0,1,906.114,222.5Zm-24,0a6.5,6.5,0,1,1,6.5,6.5A6.5,6.5,0,0,1,882.113,222.5Zm-24,0a6.5,6.5,0,1,1,6.5,6.5A6.5,6.5,0,0,1,858.114,222.5Zm-24,0a6.5,6.5,0,1,1,6.5,6.5A6.5,6.5,0,0,1,834.114,222.5Zm-24,0a6.5,6.5,0,1,1,6.5,6.5A6.5,6.5,0,0,1,810.113,222.5Zm-24,0a6.5,6.5,0,1,1,6.5,6.5A6.5,6.5,0,0,1,786.114,222.5Zm-24,0a6.5,6.5,0,1,1,6.5,6.5A6.5,6.5,0,0,1,762.114,222.5Zm-24,0a6.5,6.5,0,1,1,6.5,6.5A6.5,6.5,0,0,1,738.113,222.5Zm-24,0a6.5,6.5,0,1,1,6.5,6.5A6.5,6.5,0,0,1,714.114,222.5Zm-24,0a6.5,6.5,0,1,1,6.5,6.5A6.5,6.5,0,0,1,690.114,222.5Zm-24,0a6.5,6.5,0,1,1,6.5,6.5A6.5,6.5,0,0,1,666.113,222.5Zm-24,0a6.5,6.5,0,1,1,6.5,6.5A6.5,6.5,0,0,1,642.114,222.5Zm-24,0a6.5,6.5,0,1,1,6.5,6.5A6.5,6.5,0,0,1,618.114,222.5Zm-24,0a6.5,6.5,0,1,1,6.5,6.5A6.5,6.5,0,0,1,594.113,222.5Zm-24,0a6.5,6.5,0,1,1,6.5,6.5A6.5,6.5,0,0,1,570.114,222.5Zm-24,0a6.5,6.5,0,1,1,6.5,6.5A6.5,6.5,0,0,1,546.114,222.5Zm-24,0a6.5,6.5,0,1,1,6.5,6.5A6.5,6.5,0,0,1,522.113,222.5Zm-24,0a6.5,6.5,0,1,1,6.5,6.5A6.5,6.5,0,0,1,498.114,222.5Zm-24,0a6.5,6.5,0,1,1,6.5,6.5A6.5,6.5,0,0,1,474.114,222.5Zm-24,0a6.5,6.5,0,1,1,6.5,6.5A6.5,6.5,0,0,1,450.113,222.5Zm-24,0a6.5,6.5,0,1,1,6.5,6.5A6.5,6.5,0,0,1,426.113,222.5Zm-24,0a6.5,6.5,0,1,1,6.5,6.5A6.5,6.5,0,0,1,402.113,222.5Zm-24,0a6.5,6.5,0,1,1,6.5,6.5A6.5,6.5,0,0,1,378.113,222.5Zm-24,0a6.5,6.5,0,1,1,6.5,6.5A6.5,6.5,0,0,1,354.113,222.5Zm-24,0a6.5,6.5,0,1,1,6.5,6.5A6.5,6.5,0,0,1,330.113,222.5Zm-24,0a6.5,6.5,0,1,1,6.5,6.5A6.5,6.5,0,0,1,306.113,222.5Zm-24,0a6.5,6.5,0,1,1,6.5,6.5A6.5,6.5,0,0,1,282.113,222.5Zm-24,0a6.5,6.5,0,1,1,6.5,6.5A6.5,6.5,0,0,1,258.113,222.5Zm-24,0a6.5,6.5,0,1,1,6.5,6.5A6.5,6.5,0,0,1,234.113,222.5Zm-24,0a6.5,6.5,0,1,1,6.5,6.5A6.5,6.5,0,0,1,210.114,222.5Zm-24,0a6.5,6.5,0,1,1,6.5,6.5A6.5,6.5,0,0,1,186.113,222.5Zm-24,0a6.5,6.5,0,1,1,6.5,6.5A6.5,6.5,0,0,1,162.113,222.5Zm-24,0a6.5,6.5,0,1,1,6.5,6.5A6.5,6.5,0,0,1,138.114,222.5Zm-20.56-5.737a6.5,6.5,0,0,1,8.573,9.178C123.217,222.566,120.125,219.435,117.554,216.764ZM1050.114,198.5a6.5,6.5,0,1,1,6.5,6.5A6.5,6.5,0,0,1,1050.114,198.5Zm-24,0a6.5,6.5,0,1,1,6.5,6.5A6.5,6.5,0,0,1,1026.113,198.5Zm-24,0a6.5,6.5,0,1,1,6.5,6.5A6.5,6.5,0,0,1,1002.113,198.5Zm-24,0a6.5,6.5,0,1,1,6.5,6.5A6.5,6.5,0,0,1,978.114,198.5Zm-24,0a6.5,6.5,0,1,1,6.5,6.5A6.5,6.5,0,0,1,954.113,198.5Zm-24,0a6.5,6.5,0,1,1,6.5,6.5A6.5,6.5,0,0,1,930.114,198.5Zm-24,0a6.5,6.5,0,1,1,6.5,6.5A6.5,6.5,0,0,1,906.114,198.5Zm-24,0a6.5,6.5,0,1,1,6.5,6.5A6.5,6.5,0,0,1,882.113,198.5Zm-24,0a6.5,6.5,0,1,1,6.5,6.5A6.5,6.5,0,0,1,858.114,198.5Zm-24,0a6.5,6.5,0,1,1,6.5,6.5A6.5,6.5,0,0,1,834.114,198.5Zm-24,0a6.5,6.5,0,1,1,6.5,6.5A6.5,6.5,0,0,1,810.113,198.5Zm-24,0a6.5,6.5,0,1,1,6.5,6.5A6.5,6.5,0,0,1,786.114,198.5Zm-24,0a6.5,6.5,0,1,1,6.5,6.5A6.5,6.5,0,0,1,762.114,198.5Zm-24,0a6.5,6.5,0,1,1,6.5,6.5A6.5,6.5,0,0,1,738.113,198.5Zm-24,0a6.5,6.5,0,1,1,6.5,6.5A6.5,6.5,0,0,1,714.114,198.5Zm-24,0a6.5,6.5,0,1,1,6.5,6.5A6.5,6.5,0,0,1,690.114,198.5Zm-24,0a6.5,6.5,0,1,1,6.5,6.5A6.5,6.5,0,0,1,666.113,198.5Zm-24,0a6.5,6.5,0,1,1,6.5,6.5A6.5,6.5,0,0,1,642.114,198.5Zm-24,0a6.5,6.5,0,1,1,6.5,6.5A6.5,6.5,0,0,1,618.114,198.5Zm-24,0a6.5,6.5,0,1,1,6.5,6.5A6.5,6.5,0,0,1,594.113,198.5Zm-24,0a6.5,6.5,0,1,1,6.5,6.5A6.5,6.5,0,0,1,570.114,198.5Zm-24,0a6.5,6.5,0,1,1,6.5,6.5A6.5,6.5,0,0,1,546.114,198.5Zm-24,0a6.5,6.5,0,1,1,6.5,6.5A6.5,6.5,0,0,1,522.113,198.5Zm-24,0a6.5,6.5,0,1,1,6.5,6.5A6.5,6.5,0,0,1,498.114,198.5Zm-24,0a6.5,6.5,0,1,1,6.5,6.5A6.5,6.5,0,0,1,474.114,198.5Zm-24,0a6.5,6.5,0,1,1,6.5,6.5A6.5,6.5,0,0,1,450.113,198.5Zm-24,0a6.5,6.5,0,1,1,6.5,6.5A6.5,6.5,0,0,1,426.113,198.5Zm-24,0a6.5,6.5,0,1,1,6.5,6.5A6.5,6.5,0,0,1,402.113,198.5Zm-24,0a6.5,6.5,0,1,1,6.5,6.5A6.5,6.5,0,0,1,378.113,198.5Zm-24,0a6.5,6.5,0,1,1,6.5,6.5A6.5,6.5,0,0,1,354.113,198.5Zm-24,0a6.5,6.5,0,1,1,6.5,6.5A6.5,6.5,0,0,1,330.113,198.5Zm-24,0a6.5,6.5,0,1,1,6.5,6.5A6.5,6.5,0,0,1,306.113,198.5Zm-24,0a6.5,6.5,0,1,1,6.5,6.5A6.5,6.5,0,0,1,282.113,198.5Zm-24,0a6.5,6.5,0,1,1,6.5,6.5A6.5,6.5,0,0,1,258.113,198.5Zm-24,0a6.5,6.5,0,1,1,6.5,6.5A6.5,6.5,0,0,1,234.113,198.5Zm-24,0a6.5,6.5,0,1,1,6.5,6.5A6.5,6.5,0,0,1,210.114,198.5Zm-24,0a6.5,6.5,0,1,1,6.5,6.5A6.5,6.5,0,0,1,186.113,198.5Zm-24,0a6.5,6.5,0,1,1,6.5,6.5A6.5,6.5,0,0,1,162.113,198.5Zm-19.941,6.025q4.271-1.747,8.485-3.631a6.506,6.506,0,0,1-8.485,3.631ZM1050.114,174.5a6.5,6.5,0,1,1,6.5,6.5A6.5,6.5,0,0,1,1050.114,174.5Zm-24,0a6.5,6.5,0,1,1,6.5,6.5A6.5,6.5,0,0,1,1026.113,174.5Zm-24,0a6.5,6.5,0,1,1,6.5,6.5A6.5,6.5,0,0,1,1002.113,174.5Zm-24,0a6.5,6.5,0,1,1,6.5,6.5A6.5,6.5,0,0,1,978.114,174.5Zm-24,0a6.5,6.5,0,1,1,6.5,6.5A6.5,6.5,0,0,1,954.113,174.5Zm-24,0a6.5,6.5,0,1,1,6.5,6.5A6.5,6.5,0,0,1,930.114,174.5Zm-24,0a6.5,6.5,0,1,1,6.5,6.5A6.5,6.5,0,0,1,906.114,174.5Zm-24,0a6.5,6.5,0,1,1,6.5,6.5A6.5,6.5,0,0,1,882.113,174.5Zm-24,0a6.5,6.5,0,1,1,6.5,6.5A6.5,6.5,0,0,1,858.114,174.5Zm-24,0a6.5,6.5,0,1,1,6.5,6.5A6.5,6.5,0,0,1,834.114,174.5Zm-24,0a6.5,6.5,0,1,1,6.5,6.5A6.5,6.5,0,0,1,810.113,174.5Zm-24,0a6.5,6.5,0,1,1,6.5,6.5A6.5,6.5,0,0,1,786.114,174.5Zm-24,0a6.5,6.5,0,1,1,6.5,6.5A6.5,6.5,0,0,1,762.114,174.5Zm-24,0a6.5,6.5,0,1,1,6.5,6.5A6.5,6.5,0,0,1,738.113,174.5Zm-24,0a6.5,6.5,0,1,1,6.5,6.5A6.5,6.5,0,0,1,714.114,174.5Zm-24,0a6.5,6.5,0,1,1,6.5,6.5A6.5,6.5,0,0,1,690.114,174.5Zm-24,0a6.5,6.5,0,1,1,6.5,6.5A6.5,6.5,0,0,1,666.113,174.5Zm-24,0a6.5,6.5,0,1,1,6.5,6.5A6.5,6.5,0,0,1,642.114,174.5Zm-24,0a6.5,6.5,0,1,1,6.5,6.5A6.5,6.5,0,0,1,618.114,174.5Zm-24,0a6.5,6.5,0,1,1,6.5,6.5A6.5,6.5,0,0,1,594.113,174.5Zm-24,0a6.5,6.5,0,1,1,6.5,6.5A6.5,6.5,0,0,1,570.114,174.5Zm-24,0a6.5,6.5,0,1,1,6.5,6.5A6.5,6.5,0,0,1,546.114,174.5Zm-24,0a6.5,6.5,0,1,1,6.5,6.5A6.5,6.5,0,0,1,522.113,174.5Zm-24,0a6.5,6.5,0,1,1,6.5,6.5A6.5,6.5,0,0,1,498.114,174.5Zm-24,0a6.5,6.5,0,1,1,6.5,6.5A6.5,6.5,0,0,1,474.114,174.5Zm-24,0a6.5,6.5,0,1,1,6.5,6.5A6.5,6.5,0,0,1,450.113,174.5Zm-24,0a6.5,6.5,0,1,1,6.5,6.5A6.5,6.5,0,0,1,426.113,174.5Zm-24,0a6.5,6.5,0,1,1,6.5,6.5A6.5,6.5,0,0,1,402.113,174.5Zm-24,0a6.5,6.5,0,1,1,6.5,6.5A6.5,6.5,0,0,1,378.113,174.5Zm-24,0a6.5,6.5,0,1,1,6.5,6.5A6.5,6.5,0,0,1,354.113,174.5Zm-24,0a6.5,6.5,0,1,1,6.5,6.5A6.5,6.5,0,0,1,330.113,174.5Zm-24,0a6.5,6.5,0,1,1,6.5,6.5A6.5,6.5,0,0,1,306.113,174.5Zm-24,0a6.5,6.5,0,1,1,6.5,6.5A6.5,6.5,0,0,1,282.113,174.5Zm-24,0a6.5,6.5,0,1,1,6.5,6.5A6.5,6.5,0,0,1,258.113,174.5Zm-24,0a6.5,6.5,0,1,1,6.5,6.5A6.5,6.5,0,0,1,234.113,174.5Zm-24,0a6.5,6.5,0,1,1,6.5,6.5A6.5,6.5,0,0,1,210.114,174.5Zm-24,0a6.477,6.477,0,0,1,1.733-4.419,46.341,46.341,0,0,0,6.708-1.787,6.5,6.5,0,1,1-8.441,6.206Zm840-24a6.5,6.5,0,1,1,6.5,6.5A6.5,6.5,0,0,1,1026.113,150.5Zm-24,0a6.5,6.5,0,1,1,6.5,6.5A6.5,6.5,0,0,1,1002.113,150.5Zm-24,0a6.5,6.5,0,1,1,6.5,6.5A6.5,6.5,0,0,1,978.114,150.5Zm-24,0a6.5,6.5,0,1,1,6.5,6.5A6.5,6.5,0,0,1,954.113,150.5Zm-24,0a6.5,6.5,0,1,1,6.5,6.5A6.5,6.5,0,0,1,930.114,150.5Zm-24,0a6.5,6.5,0,1,1,6.5,6.5A6.5,6.5,0,0,1,906.114,150.5Zm-24,0a6.5,6.5,0,1,1,6.5,6.5A6.5,6.5,0,0,1,882.113,150.5Zm-24,0a6.5,6.5,0,1,1,6.5,6.5A6.5,6.5,0,0,1,858.114,150.5Zm-24,0a6.5,6.5,0,1,1,6.5,6.5A6.5,6.5,0,0,1,834.114,150.5Zm-24,0a6.5,6.5,0,1,1,6.5,6.5A6.5,6.5,0,0,1,810.113,150.5Zm-24,0a6.5,6.5,0,1,1,6.5,6.5A6.5,6.5,0,0,1,786.114,150.5Zm-24,0a6.5,6.5,0,1,1,6.5,6.5A6.5,6.5,0,0,1,762.114,150.5Zm-24,0a6.5,6.5,0,1,1,6.5,6.5A6.5,6.5,0,0,1,738.113,150.5Zm-24,0a6.5,6.5,0,1,1,6.5,6.5A6.5,6.5,0,0,1,714.114,150.5Zm-24,0a6.5,6.5,0,1,1,6.5,6.5A6.5,6.5,0,0,1,690.114,150.5Zm-24,0a6.5,6.5,0,1,1,6.5,6.5A6.5,6.5,0,0,1,666.113,150.5Zm-24,0a6.5,6.5,0,1,1,6.5,6.5A6.5,6.5,0,0,1,642.114,150.5Zm-24,0a6.5,6.5,0,1,1,6.5,6.5A6.5,6.5,0,0,1,618.114,150.5Zm-24,0a6.5,6.5,0,1,1,6.5,6.5A6.5,6.5,0,0,1,594.113,150.5Zm-24,0a6.5,6.5,0,1,1,6.5,6.5A6.5,6.5,0,0,1,570.114,150.5Zm-24,0a6.5,6.5,0,1,1,6.5,6.5A6.5,6.5,0,0,1,546.114,150.5Zm-24,0a6.5,6.5,0,1,1,6.5,6.5A6.5,6.5,0,0,1,522.113,150.5Zm-24,0a6.5,6.5,0,1,1,6.5,6.5A6.5,6.5,0,0,1,498.114,150.5Zm-24,0a6.5,6.5,0,1,1,6.5,6.5A6.5,6.5,0,0,1,474.114,150.5Zm-24,0a6.5,6.5,0,1,1,6.5,6.5A6.5,6.5,0,0,1,450.113,150.5Zm-24,0a6.5,6.5,0,1,1,6.5,6.5A6.5,6.5,0,0,1,426.113,150.5Zm-24,0a6.5,6.5,0,1,1,6.5,6.5A6.5,6.5,0,0,1,402.113,150.5Zm-24,0a6.5,6.5,0,1,1,6.5,6.5A6.5,6.5,0,0,1,378.113,150.5Zm-24,0a6.5,6.5,0,1,1,6.5,6.5A6.5,6.5,0,0,1,354.113,150.5Zm-24,0a6.5,6.5,0,1,1,6.5,6.5A6.5,6.5,0,0,1,330.113,150.5Zm-24,0a6.5,6.5,0,1,1,6.5,6.5A6.5,6.5,0,0,1,306.113,150.5Zm-20.039,5.985c1.591-3.027.408-8.507,1.159-12.338a6.5,6.5,0,1,1-1.159,12.338Zm-75.96-5.985a6.5,6.5,0,0,1,4.016-6.008c-.944,5.1-.108,9.223,2.022,12.492A6.5,6.5,0,0,1,210.114,150.5Zm24,0a6.5,6.5,0,0,1,12.842-1.435c-3.27,3.828-6.368,6.644-8.929,7.4A6.5,6.5,0,0,1,234.113,150.5Zm792-24a6.5,6.5,0,1,1,6.5,6.5A6.5,6.5,0,0,1,1026.113,126.5Zm-24,0a6.5,6.5,0,1,1,6.5,6.5A6.5,6.5,0,0,1,1002.113,126.5Zm-24,0a6.5,6.5,0,1,1,6.5,6.5A6.5,6.5,0,0,1,978.114,126.5Zm-24,0a6.5,6.5,0,1,1,6.5,6.5A6.5,6.5,0,0,1,954.113,126.5Zm-24,0a6.5,6.5,0,1,1,6.5,6.5A6.5,6.5,0,0,1,930.114,126.5Zm-24,0a6.5,6.5,0,1,1,6.5,6.5A6.5,6.5,0,0,1,906.114,126.5Zm-24,0a6.5,6.5,0,1,1,6.5,6.5A6.5,6.5,0,0,1,882.113,126.5Zm-24,0a6.5,6.5,0,1,1,6.5,6.5A6.5,6.5,0,0,1,858.114,126.5Zm-24,0a6.5,6.5,0,1,1,6.5,6.5A6.5,6.5,0,0,1,834.114,126.5Zm-24,0a6.5,6.5,0,1,1,6.5,6.5A6.5,6.5,0,0,1,810.113,126.5Zm-24,0a6.5,6.5,0,1,1,6.5,6.5A6.5,6.5,0,0,1,786.114,126.5Zm-24,0a6.5,6.5,0,1,1,6.5,6.5A6.5,6.5,0,0,1,762.114,126.5Zm-24,0a6.5,6.5,0,1,1,6.5,6.5A6.5,6.5,0,0,1,738.113,126.5Zm-24,0a6.5,6.5,0,1,1,6.5,6.5A6.5,6.5,0,0,1,714.114,126.5Zm-24,0a6.5,6.5,0,1,1,6.5,6.5A6.5,6.5,0,0,1,690.114,126.5Zm-24,0a6.5,6.5,0,1,1,6.5,6.5A6.5,6.5,0,0,1,666.113,126.5Zm-24,0a6.5,6.5,0,1,1,6.5,6.5A6.5,6.5,0,0,1,642.114,126.5Zm-24,0a6.5,6.5,0,1,1,6.5,6.5A6.5,6.5,0,0,1,618.114,126.5Zm-24,0a6.5,6.5,0,1,1,6.5,6.5A6.5,6.5,0,0,1,594.113,126.5Zm-24,0a6.5,6.5,0,1,1,6.5,6.5A6.5,6.5,0,0,1,570.114,126.5Zm-24,0a6.5,6.5,0,1,1,6.5,6.5A6.5,6.5,0,0,1,546.114,126.5Zm-24,0a6.5,6.5,0,1,1,6.5,6.5A6.5,6.5,0,0,1,522.113,126.5Zm-24,0a6.5,6.5,0,1,1,6.5,6.5A6.5,6.5,0,0,1,498.114,126.5Zm-24,0a6.5,6.5,0,1,1,6.5,6.5A6.5,6.5,0,0,1,474.114,126.5Zm-24,0a6.5,6.5,0,1,1,6.5,6.5A6.5,6.5,0,0,1,450.113,126.5Zm-24,0a6.5,6.5,0,1,1,6.5,6.5A6.5,6.5,0,0,1,426.113,126.5Zm-24,0a6.5,6.5,0,1,1,6.5,6.5A6.5,6.5,0,0,1,402.113,126.5Zm-24,0a6.5,6.5,0,1,1,6.5,6.5A6.5,6.5,0,0,1,378.113,126.5Zm-24,0a6.5,6.5,0,1,1,6.5,6.5A6.5,6.5,0,0,1,354.113,126.5Zm-24,0a6.5,6.5,0,1,1,6.5,6.5A6.5,6.5,0,0,1,330.113,126.5Zm-24,0a6.475,6.475,0,0,1,1.631-4.3h4.548a10.574,10.574,0,0,1,3.049-1.6,6.5,6.5,0,1,1-9.228,5.9Zm-72,0a6.5,6.5,0,1,1,6.5,6.5A6.5,6.5,0,0,1,234.113,126.5Zm816,0a6.5,6.5,0,0,1,12.987-.408,22.707,22.707,0,0,0-9.6,6.116A6.5,6.5,0,0,1,1050.114,126.5Zm-792,0a6.5,6.5,0,0,1,8.882-6.05c-1.948,2.786-4.375,6.541-7.041,10.581A6.476,6.476,0,0,1,258.113,126.5Zm-37.726-3.491c-3.737,1.48-7.1,3.073-10.208,4.417a6.5,6.5,0,1,1,12.935-.926,6.481,6.481,0,0,1-1.786,4.475A72.139,72.139,0,0,0,220.387,123.009Zm-28.541,5.618a15.019,15.019,0,0,1-4.958-5.207,6.5,6.5,0,1,1,10.782,7.164A12.41,12.41,0,0,1,191.846,128.627ZM1050.114,102.5a6.5,6.5,0,1,1,6.5,6.5A6.5,6.5,0,0,1,1050.114,102.5Zm-24,0a6.5,6.5,0,1,1,6.5,6.5A6.5,6.5,0,0,1,1026.113,102.5Zm-24,0a6.5,6.5,0,1,1,6.5,6.5A6.5,6.5,0,0,1,1002.113,102.5Zm-24,0a6.5,6.5,0,1,1,6.5,6.5A6.5,6.5,0,0,1,978.114,102.5Zm-24,0a6.5,6.5,0,1,1,6.5,6.5A6.5,6.5,0,0,1,954.113,102.5Zm-24,0a6.5,6.5,0,1,1,6.5,6.5A6.5,6.5,0,0,1,930.114,102.5Zm-24,0a6.5,6.5,0,1,1,6.5,6.5A6.5,6.5,0,0,1,906.114,102.5Zm-24,0a6.5,6.5,0,1,1,6.5,6.5A6.5,6.5,0,0,1,882.113,102.5Zm-24,0a6.5,6.5,0,1,1,6.5,6.5A6.5,6.5,0,0,1,858.114,102.5Zm-24,0a6.5,6.5,0,1,1,6.5,6.5A6.5,6.5,0,0,1,834.114,102.5Zm-24,0a6.5,6.5,0,1,1,6.5,6.5A6.5,6.5,0,0,1,810.113,102.5Zm-24,0a6.5,6.5,0,1,1,6.5,6.5A6.5,6.5,0,0,1,786.114,102.5Zm-24,0a6.5,6.5,0,1,1,6.5,6.5A6.5,6.5,0,0,1,762.114,102.5Zm-24,0a6.5,6.5,0,1,1,6.5,6.5A6.5,6.5,0,0,1,738.113,102.5Zm-24,0a6.5,6.5,0,1,1,6.5,6.5A6.5,6.5,0,0,1,714.114,102.5Zm-24,0a6.5,6.5,0,1,1,6.5,6.5A6.5,6.5,0,0,1,690.114,102.5Zm-24,0a6.5,6.5,0,1,1,6.5,6.5A6.5,6.5,0,0,1,666.113,102.5Zm-24,0a6.5,6.5,0,1,1,6.5,6.5A6.5,6.5,0,0,1,642.114,102.5Zm-24,0a6.5,6.5,0,1,1,6.5,6.5A6.5,6.5,0,0,1,618.114,102.5Zm-24,0a6.5,6.5,0,1,1,6.5,6.5A6.5,6.5,0,0,1,594.113,102.5Zm-24,0a6.5,6.5,0,1,1,6.5,6.5A6.5,6.5,0,0,1,570.114,102.5Zm-24,0a6.5,6.5,0,1,1,6.5,6.5A6.5,6.5,0,0,1,546.114,102.5Zm-24,0a6.5,6.5,0,1,1,6.5,6.5A6.5,6.5,0,0,1,522.113,102.5Zm-24,0a6.5,6.5,0,1,1,6.5,6.5A6.5,6.5,0,0,1,498.114,102.5Zm-24,0a6.5,6.5,0,1,1,6.5,6.5A6.5,6.5,0,0,1,474.114,102.5Zm-24,0a6.5,6.5,0,1,1,6.5,6.5A6.5,6.5,0,0,1,450.113,102.5Zm-24,0a6.5,6.5,0,1,1,6.5,6.5A6.5,6.5,0,0,1,426.113,102.5Zm-24,0a6.5,6.5,0,1,1,6.5,6.5A6.5,6.5,0,0,1,402.113,102.5Zm-24,0a6.5,6.5,0,1,1,6.5,6.5A6.5,6.5,0,0,1,378.113,102.5Zm-24,0a6.5,6.5,0,1,1,6.5,6.5A6.5,6.5,0,0,1,354.113,102.5Zm-24,0a6.5,6.5,0,1,1,6.5,6.5A6.5,6.5,0,0,1,330.113,102.5Zm-24,0a6.5,6.5,0,1,1,6.5,6.5A6.5,6.5,0,0,1,306.113,102.5Zm-72,0a6.5,6.5,0,1,1,6.5,6.5A6.5,6.5,0,0,1,234.113,102.5Zm-24,0a6.5,6.5,0,1,1,6.5,6.5A6.5,6.5,0,0,1,210.114,102.5Zm-24,0a6.491,6.491,0,0,1,.3-1.941,20.285,20.285,0,0,1,5.667-4.538q.266-.022.537-.022a6.5,6.5,0,1,1-6.5,6.5Zm97.082-3.592a6.5,6.5,0,1,1,6.207,10.044C285.664,104.958,283.746,101.714,283.195,98.909ZM1050.114,78.5a6.5,6.5,0,1,1,6.5,6.5A6.5,6.5,0,0,1,1050.114,78.5Zm-24,0a6.5,6.5,0,1,1,6.5,6.5A6.5,6.5,0,0,1,1026.113,78.5Zm-24,0a6.5,6.5,0,1,1,6.5,6.5A6.5,6.5,0,0,1,1002.113,78.5Zm-24,0a6.5,6.5,0,1,1,6.5,6.5A6.5,6.5,0,0,1,978.114,78.5Zm-24,0a6.5,6.5,0,1,1,6.5,6.5A6.5,6.5,0,0,1,954.113,78.5Zm-24,0a6.5,6.5,0,1,1,6.5,6.5A6.5,6.5,0,0,1,930.114,78.5Zm-24,0a6.5,6.5,0,1,1,6.5,6.5A6.5,6.5,0,0,1,906.114,78.5Zm-24,0a6.5,6.5,0,1,1,6.5,6.5A6.5,6.5,0,0,1,882.113,78.5Zm-24,0a6.5,6.5,0,1,1,6.5,6.5A6.5,6.5,0,0,1,858.114,78.5Zm-24,0a6.5,6.5,0,1,1,6.5,6.5A6.5,6.5,0,0,1,834.114,78.5Zm-24,0a6.5,6.5,0,1,1,6.5,6.5A6.5,6.5,0,0,1,810.113,78.5Zm-24,0a6.5,6.5,0,1,1,6.5,6.5A6.5,6.5,0,0,1,786.114,78.5Zm-24,0a6.5,6.5,0,1,1,6.5,6.5A6.5,6.5,0,0,1,762.114,78.5Zm-24,0a6.5,6.5,0,1,1,6.5,6.5A6.5,6.5,0,0,1,738.113,78.5Zm-24,0a6.5,6.5,0,1,1,6.5,6.5A6.5,6.5,0,0,1,714.114,78.5Zm-24,0a6.5,6.5,0,1,1,6.5,6.5A6.5,6.5,0,0,1,690.114,78.5Zm-24,0a6.5,6.5,0,1,1,6.5,6.5A6.5,6.5,0,0,1,666.113,78.5Zm-24,0a6.5,6.5,0,1,1,6.5,6.5A6.5,6.5,0,0,1,642.114,78.5Zm-24,0a6.5,6.5,0,1,1,6.5,6.5A6.5,6.5,0,0,1,618.114,78.5Zm-24,0a6.5,6.5,0,1,1,6.5,6.5A6.5,6.5,0,0,1,594.113,78.5Zm-24,0a6.5,6.5,0,1,1,6.5,6.5A6.5,6.5,0,0,1,570.114,78.5Zm-24,0a6.5,6.5,0,1,1,6.5,6.5A6.5,6.5,0,0,1,546.114,78.5Zm-24,0a6.5,6.5,0,1,1,6.5,6.5A6.5,6.5,0,0,1,522.113,78.5Zm-24,0a6.5,6.5,0,1,1,6.5,6.5A6.5,6.5,0,0,1,498.114,78.5Zm-24,0a6.5,6.5,0,1,1,6.5,6.5A6.5,6.5,0,0,1,474.114,78.5Zm-24,0a6.5,6.5,0,1,1,6.5,6.5A6.5,6.5,0,0,1,450.113,78.5Zm-24,0a6.5,6.5,0,1,1,6.5,6.5A6.5,6.5,0,0,1,426.113,78.5Zm-24,0a6.5,6.5,0,1,1,6.5,6.5A6.5,6.5,0,0,1,402.113,78.5Zm-48,0a6.482,6.482,0,0,1,2.046-4.734,55.768,55.768,0,0,0,9.876,8.321A6.5,6.5,0,0,1,354.113,78.5Zm-24,0a6.5,6.5,0,1,1,6.5,6.5A6.5,6.5,0,0,1,330.113,78.5Zm-24,0a6.5,6.5,0,1,1,6.5,6.5A6.5,6.5,0,0,1,306.113,78.5Zm-48,0a6.5,6.5,0,1,1,12.161,3.2c-1.031.861-2.021,1.771-2.964,2.718a6.5,6.5,0,0,1-9.2-5.916Zm-24,0a6.5,6.5,0,1,1,6.5,6.5A6.5,6.5,0,0,1,234.113,78.5Zm54.5-6.5a6.475,6.475,0,0,1,4.445,1.757,23.609,23.609,0,0,0-9.558.729A6.49,6.49,0,0,1,288.613,72Zm761.5-17.5a6.5,6.5,0,1,1,6.5,6.5A6.5,6.5,0,0,1,1050.114,54.5Zm-24,0a6.5,6.5,0,1,1,6.5,6.5A6.5,6.5,0,0,1,1026.113,54.5Zm-24,0a6.5,6.5,0,1,1,6.5,6.5A6.5,6.5,0,0,1,1002.113,54.5Zm-24,0a6.5,6.5,0,1,1,6.5,6.5A6.5,6.5,0,0,1,978.114,54.5Zm-24,0a6.5,6.5,0,1,1,6.5,6.5A6.5,6.5,0,0,1,954.113,54.5Zm-24,0a6.5,6.5,0,1,1,6.5,6.5A6.5,6.5,0,0,1,930.114,54.5Zm-24,0a6.5,6.5,0,1,1,6.5,6.5A6.5,6.5,0,0,1,906.114,54.5Zm-24,0a6.5,6.5,0,1,1,6.5,6.5A6.5,6.5,0,0,1,882.113,54.5Zm-24,0a6.5,6.5,0,1,1,6.5,6.5A6.5,6.5,0,0,1,858.114,54.5Zm-24,0a6.5,6.5,0,1,1,6.5,6.5A6.5,6.5,0,0,1,834.114,54.5Zm-24,0a6.5,6.5,0,1,1,6.5,6.5A6.5,6.5,0,0,1,810.113,54.5Zm-24,0a6.5,6.5,0,1,1,6.5,6.5A6.5,6.5,0,0,1,786.114,54.5Zm-24,0a6.5,6.5,0,1,1,6.5,6.5A6.5,6.5,0,0,1,762.114,54.5Zm-24,0a6.5,6.5,0,1,1,6.5,6.5A6.5,6.5,0,0,1,738.113,54.5Zm-24,0a6.5,6.5,0,1,1,6.5,6.5A6.5,6.5,0,0,1,714.114,54.5Zm-24,0a6.5,6.5,0,1,1,6.5,6.5A6.5,6.5,0,0,1,690.114,54.5Zm-24,0a6.5,6.5,0,1,1,6.5,6.5A6.5,6.5,0,0,1,666.113,54.5Zm-24,0a6.5,6.5,0,1,1,6.5,6.5A6.5,6.5,0,0,1,642.114,54.5Zm-24,0a6.5,6.5,0,1,1,6.5,6.5A6.5,6.5,0,0,1,618.114,54.5Zm-24,0a6.5,6.5,0,1,1,6.5,6.5A6.5,6.5,0,0,1,594.113,54.5Zm-24,0a6.5,6.5,0,1,1,6.5,6.5A6.5,6.5,0,0,1,570.114,54.5Zm-24,0a6.5,6.5,0,1,1,6.5,6.5A6.5,6.5,0,0,1,546.114,54.5Zm-24,0a6.5,6.5,0,0,1,4.711-6.25q2.6.346,5.248.746a6.5,6.5,0,1,1-9.958,5.5Zm-24,0a6.5,6.5,0,1,1,6.5,6.5A6.5,6.5,0,0,1,498.114,54.5Zm-24,0a6.5,6.5,0,1,1,6.5,6.5A6.5,6.5,0,0,1,474.114,54.5Zm-24,0a6.486,6.486,0,0,1,.146-1.377q5.731-1.646,11.267-2.879A6.5,6.5,0,1,1,450.113,54.5Zm-21.165,5.368c3.037-.865,5.929-1.731,8.519-2.65q.616-.217,1.231-.43a6.5,6.5,0,0,1-9.751,3.08ZM378.113,54.5a6.484,6.484,0,0,1,2-4.692,107.658,107.658,0,0,1,10.911,5.768A6.5,6.5,0,0,1,378.113,54.5Zm-24,0a6.5,6.5,0,1,1,6.5,6.5A6.5,6.5,0,0,1,354.113,54.5Zm-24,0a6.5,6.5,0,1,1,6.5,6.5A6.5,6.5,0,0,1,330.113,54.5Zm-24,0a6.5,6.5,0,1,1,6.5,6.5A6.5,6.5,0,0,1,306.113,54.5Zm-24,0a6.5,6.5,0,1,1,6.5,6.5A6.5,6.5,0,0,1,282.113,54.5Zm-24,0a6.5,6.5,0,1,1,6.5,6.5A6.5,6.5,0,0,1,258.113,54.5Zm-11-.064c0,.022,0,.042,0,.064a6.5,6.5,0,0,1-5.214,6.372A56.415,56.415,0,0,1,247.113,54.437Zm803-23.935a6.488,6.488,0,0,1,.1-1.162q6.2.563,12.9,1.193a6.5,6.5,0,0,1-13-.031Zm-24,0a6.467,6.467,0,0,1,.846-3.208q5.476.468,11.778,1.021a6.5,6.5,0,1,1-12.624,2.187Zm-24,0a6.492,6.492,0,0,1,2.5-5.122c2.319.21,5.288.465,8.829.766a6.5,6.5,0,1,1-11.326,4.356Zm-24,0a6.5,6.5,0,0,1,5.25-6.381q1.288,0,2.581.016a6.5,6.5,0,1,1-7.831,6.365Zm-24,0a6.485,6.485,0,0,1,2.224-4.9q3.82-.346,7.671-.648a6.5,6.5,0,1,1-9.895,5.545Zm-24,0a6.484,6.484,0,0,1,.593-2.718c3.781-.224,7.557-.525,11.336-.858A6.5,6.5,0,1,1,930.114,30.5Zm-24,0a6.476,6.476,0,0,1,.594-2.72c4.024.3,8.015.419,11.981.405A6.5,6.5,0,1,1,906.114,30.5Zm-24,0a6.5,6.5,0,0,1,4-6q3.656.919,7.258,1.579A6.5,6.5,0,1,1,882.113,30.5Zm-24,0a6.5,6.5,0,1,1,6.5,6.5A6.5,6.5,0,0,1,858.114,30.5Zm-24,0a6.5,6.5,0,1,1,6.5,6.5A6.5,6.5,0,0,1,834.114,30.5Zm-24,0a6.5,6.5,0,1,1,6.5,6.5A6.5,6.5,0,0,1,810.113,30.5Zm-24,0a6.5,6.5,0,1,1,6.5,6.5A6.5,6.5,0,0,1,786.114,30.5Zm-24,0a6.5,6.5,0,1,1,6.5,6.5A6.5,6.5,0,0,1,762.114,30.5Zm-24,0a6.5,6.5,0,1,1,6.5,6.5A6.5,6.5,0,0,1,738.113,30.5Zm-24,0a6.5,6.5,0,1,1,6.5,6.5A6.5,6.5,0,0,1,714.114,30.5Zm-24,0a6.5,6.5,0,1,1,6.5,6.5A6.5,6.5,0,0,1,690.114,30.5Zm-24,0a6.5,6.5,0,1,1,6.5,6.5A6.5,6.5,0,0,1,666.113,30.5Zm-24,0a6.5,6.5,0,1,1,6.5,6.5A6.5,6.5,0,0,1,642.114,30.5Zm-24,0a6.5,6.5,0,1,1,6.5,6.5A6.5,6.5,0,0,1,618.114,30.5Zm-24,0a6.5,6.5,0,1,1,6.5,6.5A6.5,6.5,0,0,1,594.113,30.5Zm-24,0a6.5,6.5,0,1,1,6.5,6.5A6.5,6.5,0,0,1,570.114,30.5Zm-24,0a6.5,6.5,0,1,1,6.5,6.5A6.5,6.5,0,0,1,546.114,30.5ZM308.5,35.532q4.051-.065,8.146.068a6.5,6.5,0,0,1-8.146-.068ZM738.113,6.5a6.5,6.5,0,0,1,3.643-5.84h5.714a6.5,6.5,0,1,1-9.357,5.84Zm-24,0a6.5,6.5,0,0,1,3.642-5.84h5.714a6.5,6.5,0,1,1-9.356,5.84Zm-24,0a6.5,6.5,0,0,1,3.642-5.84h5.714a6.5,6.5,0,1,1-9.356,5.84Zm-24,0a6.5,6.5,0,0,1,3.643-5.84h5.714a6.5,6.5,0,1,1-9.357,5.84Zm-24,0a6.5,6.5,0,0,1,3.642-5.84h5.714a6.5,6.5,0,1,1-9.356,5.84Zm-22.6,4.034c3.769-2.061,7.533-4.117,11.314-5.935a6.5,6.5,0,0,1-11.314,5.935Z" transform="translate(-0.585 -0.661)" fill="#5694fc" opacity="0.08"/>
</svg>
