<svg xmlns="http://www.w3.org/2000/svg" width="192" height="167" viewBox="0 0 192 167">
  <path id="Polygon_16" data-name="Polygon 16" d="M122.171,18.986a10,10,0,0,1,16.384,9.427l-4.929,25.724a10,10,0,0,0,6.535,11.327l24.692,8.591a10,10,0,0,1,0,18.889l-24.692,8.591a10,10,0,0,0-6.535,11.327l4.929,25.724a10,10,0,0,1-16.384,9.427l-19.609-17.055a10,10,0,0,0-13.126,0L69.829,148.014a10,10,0,0,1-16.384-9.427l4.929-25.724a10,10,0,0,0-6.535-11.327L27.146,92.945a10,10,0,0,1,0-18.889l24.692-8.591a10,10,0,0,0,6.535-11.327L53.444,28.413a10,10,0,0,1,16.384-9.427L89.437,36.042a10,10,0,0,0,13.126,0Z" fill="#f5d032"/>
</svg>
