<svg xmlns="http://www.w3.org/2000/svg" width="23.125" height="17.347" viewBox="0 0 23.125 17.347">
  <path id="YouTube_icon_email" data-name="YouTube icon email" d="M22.974,8.331a3.511,3.511,0,0,0-3.343-3.668c-2.5-.117-5.055-.163-7.661-.163h-.813c-2.6,0-5.159.045-7.661.163A3.519,3.519,0,0,0,.158,8.34C.045,9.948,0,11.556,0,13.164s.045,3.216.154,4.829a3.523,3.523,0,0,0,3.338,3.682c2.629.122,5.326.176,8.068.172s5.434-.045,8.068-.172a3.524,3.524,0,0,0,3.343-3.682c.108-1.613.158-3.221.154-4.833S23.083,9.943,22.974,8.331ZM9.351,17.6V8.719l6.55,4.436Z" transform="translate(0 -4.5)" fill="#053888"/>
</svg>
