<svg xmlns="http://www.w3.org/2000/svg" width="155.219" height="155.219" viewBox="0 0 155.219 155.219">
  <path fill="#064EBE" id="Icon_metro-qrcode" data-name="Icon metro-qrcode" d="M51.077,11.629h-38.8v38.8h38.8Zm9.7-9.7V60.135H2.571V1.928Zm-38.8,19.4h19.4v19.4h-19.4Zm126.115-9.7h-38.8v38.8h38.8Zm9.7-9.7V60.135H99.582V1.928h58.207Zm-38.8,19.4h19.4v19.4h-19.4ZM51.077,108.641h-38.8v38.8h38.8Zm9.7-9.7v58.207H2.571V98.94Zm-38.8,19.4h19.4v19.4h-19.4ZM70.479,1.928h9.7v9.7h-9.7Zm9.7,9.7h9.7v9.7h-9.7Zm-9.7,9.7h9.7v9.7h-9.7Zm9.7,9.7h9.7v9.7h-9.7Zm-9.7,9.7h9.7v9.7h-9.7Zm9.7,9.7h9.7v9.7h-9.7Zm-9.7,9.7h9.7v9.7h-9.7Zm0,19.4h9.7v9.7h-9.7Zm9.7,9.7h9.7v9.7h-9.7Zm-9.7,9.7h9.7v9.7h-9.7Zm9.7,9.7h9.7v9.7h-9.7Zm-9.7,9.7h9.7v9.7h-9.7Zm9.7,9.7h9.7v9.7h-9.7Zm-9.7,9.7h9.7v9.7h-9.7Zm9.7,9.7h9.7v9.7h-9.7Zm67.908-67.908h9.7v9.7h-9.7Zm-135.816,0h9.7v9.7h-9.7Zm9.7-9.7h9.7v9.7h-9.7Zm-19.4,0h9.7v9.7h-9.7Zm38.8,0h9.7v9.7h-9.7Zm9.7,9.7h9.7v9.7h-9.7Zm9.7-9.7h9.7v9.7h-9.7Zm29.1,9.7h9.7v9.7h-9.7Zm9.7-9.7h9.7v9.7h-9.7Zm9.7,9.7h9.7v9.7h-9.7Zm9.7-9.7h9.7v9.7h-9.7Zm9.7,9.7h9.7v9.7h-9.7Zm9.7-9.7h9.7v9.7h-9.7Zm9.7,29.1h9.7v9.7h-9.7Zm-58.207,0h9.7v9.7h-9.7Zm9.7-9.7h9.7v9.7h-9.7Zm9.7,9.7h9.7v9.7h-9.7Zm19.4,0h9.7v9.7h-9.7Zm9.7-9.7h9.7v9.7h-9.7Zm9.7,29.1h9.7v9.7h-9.7Zm-58.207,0h9.7v9.7h-9.7Zm9.7-9.7h9.7v9.7h-9.7Zm19.4,0h9.7v9.7h-9.7Zm9.7,9.7h9.7v9.7h-9.7Zm9.7-9.7h9.7v9.7h-9.7Zm9.7,29.1h9.7v9.7h-9.7Zm-48.506-9.7h9.7v9.7h-9.7Zm9.7,9.7h9.7v9.7h-9.7Zm9.7-9.7h9.7v9.7h-9.7Zm9.7,9.7h9.7v9.7h-9.7Zm-29.1,9.7h9.7v9.7h-9.7Zm19.4,0h9.7v9.7h-9.7Zm19.4,0h9.7v9.7h-9.7Z" transform="translate(-2.571 -1.928)"/>
</svg>
