<svg width="1195" height="575" viewBox="0 0 1195 575" fill="none" xmlns="http://www.w3.org/2000/svg">
<path d="M-303.769 311.172C-253.906 326.301 -133.98 338.276 -53.1775 265.145C47.826 173.73 43.3512 125.785 202.528 42.6813C329.869 -23.802 561.154 83.168 660.879 144.963C794.485 227.753 1041.24 265.143 1180.6 42.6813C1275.39 -108.628 1521.75 -117.561 1617.86 -114.578" stroke="#EBEBEB" stroke-opacity="0.24"/>
<path d="M-314.636 304.778C-265.88 323.163 -183.073 364.296 -78.109 334.973C84.9031 289.435 -4.59369 190.989 178.333 140.717C316.849 102.65 575.035 318.366 670.468 386.604C798.322 478.025 1042.08 531.609 1195.8 318.822C1300.36 174.094 1505.25 67.8321 1600.95 77.1471" stroke="#EBEBEB" stroke-opacity="0.24"/>
<path d="M-288.426 319.33C-239.67 337.715 -156.863 378.848 -51.8989 349.526C111.113 303.988 -4.59345 316.81 178.333 266.538C316.85 228.471 575.036 444.186 670.468 512.425C798.323 603.846 1042.07 657.429 1195.8 444.643C1300.36 299.915 1505.25 193.653 1600.95 202.968" stroke="#EBEBEB" stroke-opacity="0.24"/>
</svg>
