<svg xmlns="http://www.w3.org/2000/svg" width="39.49" height="36.669" viewBox="0 0 39.49 36.669">
  <path id="Icon_ionic-ios-star-half" data-name="Icon ionic-ios-star-half" d="M40.242,16.068H27.275L23.335,4.309a1.428,1.428,0,0,0-2.68,0l-3.94,11.759H3.66a1.415,1.415,0,0,0-1.41,1.41,1.036,1.036,0,0,0,.026.238,1.355,1.355,0,0,0,.591,1l10.657,7.51L9.434,38.114A1.414,1.414,0,0,0,9.919,39.7a1.364,1.364,0,0,0,.793.344,1.728,1.728,0,0,0,.881-.317L22,32.314l10.4,7.413a1.652,1.652,0,0,0,.881.317,1.266,1.266,0,0,0,.785-.344,1.4,1.4,0,0,0,.485-1.587l-4.09-11.891,10.569-7.581.256-.22a1.479,1.479,0,0,0,.458-.943A1.493,1.493,0,0,0,40.242,16.068Zm-4.178,3.1-7.034,5.051a2.476,2.476,0,0,0-.9,2.8l2.653,7.731a.354.354,0,0,1-.538.405L23.423,30.3l-.009-.009A3.287,3.287,0,0,1,22,27.6V9.131a.172.172,0,0,1,.335-.053h0l2.609,7.775a2.465,2.465,0,0,0,2.336,1.684h8.577A.352.352,0,0,1,36.064,19.171Z" transform="translate(-2.25 -3.375)" fill="#ed6e2b"/>
</svg>
