<svg xmlns="http://www.w3.org/2000/svg" width="96" height="96" viewBox="0 0 96 96">
  <g id="Group_730" data-name="Group 730" transform="translate(-1604 -1495)">
    <g id="Group_729" data-name="Group 729" transform="translate(-3054 13936)">
      <g id="Group_119" data-name="Group 119" transform="translate(-3225 -22527)">
        <path id="Path_337" data-name="Path 337" d="M48,0A48,48,0,1,1,0,48,48,48,0,0,1,48,0Z" transform="translate(7883 10086)" fill="#b767fc"/>
      </g>
    </g>
    <g id="Group_728" data-name="Group 728" transform="translate(-3027.122 13962.878)">
      <g id="Group_119-2" data-name="Group 119" transform="translate(4658 -12441)">
        <path id="Path_337-2" data-name="Path 337" d="M21.561,0A21.561,21.561,0,1,1,0,21.561,21.561,21.561,0,0,1,21.561,0Z" fill="#681fb5"/>
      </g>
    </g>
    <path id="Subtraction_7" data-name="Subtraction 7" d="M11.5,11.759A11.1,11.1,0,0,1,3.461,8.315,11.762,11.762,0,0,1,1.2,5H21.8a11.757,11.757,0,0,1-2.257,3.315A11.107,11.107,0,0,1,11.5,11.759Z" transform="translate(1641 1543)" fill="#d0a6fc"/>
    <path id="Subtraction_6" data-name="Subtraction 6" d="M20.591,6.76H0A11.762,11.762,0,0,1,2.257,3.444a11.1,11.1,0,0,1,16.077,0A11.763,11.763,0,0,1,20.59,6.758Z" transform="translate(1642.204 1531)" fill="#d0a6fc"/>
  </g>
</svg>
